<svg height="249.6" version="1.2" xmlns="http://www.w3.org/2000/svg" baseProfile="tiny" width="288" viewBox="0 0 15 13"><g fill-rule="evenodd" stroke-linejoin="bevel" stroke="#000" fill="none" stroke-linecap="square" font-weight="400" font-family=".AppleSystemUIFont" font-size=".903"><path d="M-1.981-1.981h19.81v17.829h-19.81V-1.981" stroke="none" fill="#fff"/><path d="M0 0h14.857v13H0V0" stroke="none" fill="#fff"/><path fill="none" d="M0 0h14.857v12.876H0z" fill-opacity="0" stroke="none"/><g stroke-width=".051" stroke="#96cb65" fill="#96cb65"><path d="M3.967 10.543h.099v.099-.1.1h-.1v.099-.1h-.098v-.098h.099v.099h.099-.1l.1-.1-.1.1v-.1h.1-.1 0M4.66 10.84v-.1.199h.1-.1v-.1.1-.1h0M3.769 10.74v-.098h.099l-.1.099h0M4.512 11.055h.076v-.088h-.076v.088" stroke-width=".05051448"/><path d="M3.67 10.84h.099v-.1.1h-.1 0M3.457 11.199h.045v-.056h-.045v.056M3.863 10.082H3.9v-.066h-.037v.066M3.786 10.775h.045v-.043h-.045v.043M3.924 10.72h.032v-.036h-.032v.035M2.778 11.533v-.099h.1v.099h-.1 0" stroke-width=".05051448"/><path d="M3.85 10.084h.022v-.039H3.85v.04M3.558 11.076l-.013-.006-.013-.02.02.01.01.01-.004.006M3.472 10.939v-.1.1-.1.1h0M3.926 10.51h.024v-.017h-.024v.017M3.463 10.94l-.001-.017.011-.007.005.015-.006-.005-.01.015M5.23 11.013h.018v-.017H5.23v.017M3.446 11.147l.01.012-.001.002-.012-.002.001-.017.002.005M3.368 11.117h-.005l.002-.005.012-.005.002.007-.011.003M3.49 10.738l.005.01-.002.01-.005-.016.002-.004M6.333 10.833l-.007.004v-.012l.01.005-.003.003M3.676 10.89l-.002.008-.008-.004.002-.005.008.002M3.86 10.698l-.007-.003.004-.006.005.007-.002.002M3.688 10.877l-.001-.007.01.004H3.69l-.002.003M4.093 10.092l.01.002v.004h-.005l-.005-.006M3.676 10.855l-.003-.002.007-.005.002.002-.006.005M8.114 9.47l.003.007-.006.002v-.001l.003-.007" stroke-width=".05051448"/></g><g stroke-width=".051" stroke="#bdd66b" fill="#bdd66b"><path d="M3.273 9.948V9.75h-.099V9.453h.1v.1l.098.098v.198l-.099.1h0M12.287 2.916l-.1.198-.197.198-.1.198-.098.198-.1.297-.099.298-.198.396-.198.297-.198.297-.198.297-.099.297-.198.297-.198.1-.198.198-.198.198-.198.198-.199.297-.198.198-.297.297-.198.297-.198.198-.198.1-.198.198-.198.297-.198.297-.1.198-.198.198-.099.198-.099.1-.198.197-.198.1-.198.197-.099.1-.198.098-.1.1-.197.099H5.849l-.1-.1h-.197l-.199-.099-.198-.099h-.198l-.099-.099v-.198L4.76 9.75l-.099-.297.1-.198.098-.1.198-.197h.297l.1-.1.198-.098.198-.198h.099l.198-.1.099-.099.099-.099.099-.297.198-.297.1-.198.098-.297v-.198l.1-.198.098-.1.198-.296.198-.298.1-.099.198-.099.099-.198.099-.099.099-.198V4.699l.099-.198.099-.1.099-.198v-.495l.099-.198.099-.297.099-.1.198-.098.1-.297.098-.198.1-.297.395-.595.199-.594.198-.495.198-.297.396-.595.198-.297.297-.495.071-.143h2.882l-.08.242-.1.198v.297l-.099.396V.737l-.099.297-.099.198-.198.198-.198.297-.198.198-.099.198-.1.199-.098.198-.1.198-.098.198h-.1 0M9.613 4.104v.1l.199.099h.495l.099.099v.396h-.198l-.297-.1h-.397l-.297.1-.297.099-.099.297-.099.297v.297l.1.198.098.297.1.1.098.099h.198l.198-.1.397-.396.396-.198.099-.099.099-.297V5.094l.099-.197.198-.1.198-.098.1-.1.197-.296.1-.397V3.51l.098-.396v-.397l-.099-.098V2.42l-.099-.198v-.1l.1-.099.296-.099.199.198.198.199h.099l.198-.199.099-.297.099-.297v-.297l.099-.297h.099l.198-.1.198-.197V.043l-.198-.099-.297-.198-.1-.297v-.198l.1-.198-.1-.198-.142-.143h-.166l-.087.044h-.297l-.298.198-.099.396v.297l-.198.198L11 .043l-.198.298-.198.297-.1.495-.098.297v.297l-.198.396-.297.298-.1.396-.198.396-.099.297-.099.198.1.198.098.198h0M6.938 9.552l.1-.396v-.198l-.1-.1H6.84l-.198.199v.396l.1.1h.198m1.188-1.685.198-.198.099-.297v-.198l-.198-.1-.1-.098H7.93l-.1.099-.098.198v.495l.099.1.099.098.198-.099h0" stroke-width=".05051448"/></g><g stroke-width=".051" stroke="#a9d168" fill="#a9d168"><path d="M3.174 8.363v-.198l-.099-.099V7.67h-.099.1-.1.1-.1v-.099h-.099v-.099h.198v-.099h-.099.1-.1H3.274v-.1h.198v.595l-.1.198-.099.297h-.099 0M6.938 9.552H6.74l-.099-.099v-.396l.198-.198h.1l.098.099v.198l-.099.396h0M8.127 7.868l-.198.1-.1-.1-.098-.099v-.495l.099-.198.099-.1h.198l.099.1.198.099v.198l-.1.297-.197.198h0M9.513 6.383l-.198.099h-.198l-.099-.1-.099-.099-.099-.297-.099-.198v-.297l.1-.297.098-.297.297-.1.297-.098h.397l.297.099h.198v-.396l-.1-.1h-.494l-.199-.099v-.099l-.099-.198-.099-.198.1-.198.098-.297.199-.396.099-.396.297-.298.198-.396V1.43l.099-.297.099-.495L10.8.34l.198-.298.297-.198.198-.198V-.65l.1-.396.297-.198h.297l.087-.044h.166l.143.143.099.198-.1.198v.198l.1.297.297.198.198.1v.594l-.198.198-.198.099h-.1l-.098.297v.297l-.1.297-.098.297-.198.199h-.1l-.197-.199-.199-.198-.297.1-.099.098v.1l.1.198v.198l.098.099v.396l-.099.396v.396l-.099.397-.198.297-.099.099-.198.099-.198.099-.1.198V5.392l-.098.297-.1.1-.395.197-.397.397h0" stroke-width=".05051448"/></g><path d="M-1.486-1.288h15.952v.54h-.1V-.453h-.098v.198h-.1.1v.198h-.1v.1l.1-.1v.1h-.1.1-.1l-.098.099v-.1.1-.1.1h.099v-.1.1h-.1.1v.099-.1.1-.1h.099V.044.341h-.1V.44h-.098.099l-.1.099v.594h-.098v.099h-.1v.1h-.099v.098h-.099v.1h-.099v.098h-.099v.1l-.099.098-.099.1v.098h-.099l-.099.1v.099h-.099v.099l-.099.099v.198h-.099v.198h-.1v.198l-.098.099v.099h-.1l-.098.099-.1.198-.098.1-.1.098v.1h-.098V4.103h-.1v.199h-.098v.099h.099V4.5h-.1V4.6h-.099v.099h-.099V4.996h-.099v.099h.1-.1v.099h-.099v.099h-.099v.099l-.099.1v.098h-.099v.1L11 5.787v.1l-.099.098h-.099v.1h-.099l-.1.098v.199h-.098v.099-.1l-.1.1v.099h-.098l-.1.099-.098.099-.1.099H9.91v.198h-.1v.099h-.098v.099h-.1v.099h.1-.1v.099h-.099v.198-.099.1-.1h-.099v.1h-.099.1v.098h-.1l-.099.1.1.098h-.1v.1h-.099v.098H8.92v.1H8.82v.098l-.099.1-.099.099v.099h-.099l.099.099h-.099v.099h-.1v.198h-.098v.099h.099v-.1.1h-.1v.198h-.098v.099h-.1v-.099h-.098V9.651h-.1v.1H7.83v.098h-.1v.1h-.198v.098l-.099.1v-.1.1h-.099v.098h-.198v.1h-.099v.098h-.099.1-.199l-.099.1v.099h-.198v.198h-.099v-.1.1-.1h-.1v.1h-.098v.099-.1h-.198v.1-.1.1l-.1-.1v.1H5.85l-.1.099v-.1l-.098.1h.099-.198.099-.1v.099-.1.1h-.198v-.1h.1l-.1-.098v-.1h-.099v.1h-.099.1-.1.1v.099h-.1.1-.1v-.1h-.099v-.198.1h-.099.1H4.758v-.1h-.198v.1h-.099v-.198h.1-.1.1-.1.1-.1.1v-.1h-.1.1-.1v-.099h.1v-.099.1-.1l.098-.099h-.198l.1-.099v-.099h-.1v.198h-.199v.1h-.098v.098h-.1v.1-.1.1-.1h-.098.099-.1.1-.1v-.099h.1-.1.1-.1.1v-.099h.099v-.099l.099-.099h-.1v.1h-.098.099-.1.1-.1v-.1.1-.1h-.098v.1-.1h-.1.1-.1v.198H3.77h.099v.1h-.1v-.1.1H3.67h.099v.098h-.1v.1h-.098.099v.099h-.1v-.1h.1-.1v.1-.1.1h-.098.099-.1.1l-.1.099-.099-.1v.1h.1-.1v.099h.1-.1v.198-.1h-.099v.1h-.099v.099h.1-.1v.198h-.099.1v-.1h-.1v-.098l-.099.099h.1-.1v-.1.1H2.68l.1-.1v.1h.098v-.1h-.099v.1-.1H2.68v.1-.1.1-.1h.1H2.48v.1h.1v.099-.1.1-.1h.098v.1h.1v.099-.1l-.1.1h.1l-.1.099v-.099.099l-.099.1v.098h-.099v-.198h-.099.1v-.099h-.1.1-.1v-.1h.1v-.198H2.182v-.098h.1v-.1h.199v-.098h.098v.099-.1h.396v-.098h.1V10.443v.1-.1.1h.098l-.099-.1h.1-.1.1-.1.1V10.146h.098v-.198l.1-.099v-.198l-.1-.099v-.099h-.099V9.156h.1v-.1h-.1v-.098h.1-.1.1v-.1l-.1-.296v-.199h.1l.098-.297.1-.198v-.595h.099-.1.1v-.098h.099v-.1h.099v-.098h-.1.1v-.1h.099V6.78h.099v-.1h.099v.1h.099v.396h.099V7.472l-.1.1v.098h.1v.1h.198v.098h-.099.099v.198H4.76v-.099h-.1v-.099h.198V7.77h.1v-.396h.098v-.1h.1v-.098h.098-.099.198v-.1h.1-.1.1v-.098.099-.1h.099-.1.1-.1.1-.1.1-.1.1-.1.1v-.098h-.1.1-.1V6.58h.1v-.198h.099v-.099h.198v-.099h.099-.1v-.099h.1-.1v-.099.1-.1h.1V5.69v.1-.1h.099V5.59h.099v-.099h.099v-.198h-.1v-.1h.199v-.098.099-.1h.099-.1.1V4.799h.099-.099v-.1h-.1l.1-.098v-.198h.099v-.1h.1-.1v-.099h.1v-.099h-.1v-.099h.1V3.708h.098V3.61h.1v-.198l-.1-.099v-.099l.1-.1v-.098h.098v-.1h.1v.1-.1.1-.1h.198v-.098h.098v-.1h.1V2.62h-.1.1v-.1h.098v-.098l-.099-.1h-.099V2.025h-.099v-.198h.1V1.53l.098-.099v-.099h.1v-.099H7.234l-.099-.099v.099H6.84l-.099.1h-.198v.098H6.245v.198h-.198v.1H5.749l-.098.098v-.099h-.199l-.099.1v.098h-.198v.198h-.099v-.099h-.099v.199h-.099v.198h-.396v.099l-.099-.1v.1h-.198v-.1.1h-.496v.099-.1h-.098v-.098h-.397v.099H2.877V2.222l-.099-.099v-.099l-.198-.099v-.099l-.099-.099h.1V1.53h.098V1.232H2.58v-.099h.1v-.1H2.48V.836h-.099V.638h.1V.44h.098V.342h-.198V.44v-.1h-.397L1.888.243h-.1v-.1H1.69V.044h-.1v-.099h-.098v-.099h.099-.1v-.099h-.098v-.198h-.1v.1h-.099V-.65H.896l.1.1h-.1l-.099-.1H.698v.1H.6v-.1H.5v-.099H.203v-.099h.099v-.099H.005v-.1h-.1v.1h-.198v.099-.099H-.39l-.1.099-.098-.099v.099-.099h-.397v-.1h-.099v-.241h3.863v.143l-.099.297V-.055l.1.198.098.198v.198l-.099.198v.495l.1.198.098.1h.396v-.1l.1-.198V.538L3.57.44l.099-.1.198-.098h.892l.098-.1.198-.099.1-.099.197-.099.1-.099v-.099l.099-.198.198-.099.099-.099.099.1.099.098h.099l.099.1H6.74v-.1l.1-.099.098-.099.1-.099.098-.198.1-.1.197-.098.066-.044h-8.985m13.773 4.204h.099l.099-.198.099-.198.099-.198.099-.199.099-.198.198-.198.198-.297.198-.198.1-.198.098-.297V-.155l.1-.396v-.297l.099-.198.08-.242H11.07l-.07.143-.298.495-.198.297-.396.595-.198.297-.198.495-.199.594-.396.595-.099.297-.099.198-.099.297-.198.099-.099.099-.1.297-.098.198V4.203l-.1.199-.098.099-.1.198V5.392l-.098.198-.1.1-.098.197-.199.1-.099.098-.198.298-.198.297-.099.099-.099.198v.198l-.099.297-.099.198-.198.297-.1.297-.098.1-.1.099-.197.099h-.1l-.197.198-.199.099-.099.099h-.297l-.198.198-.099.099-.099.198.1.297.098.297v.198l.1.1h.197l.198.098.199.1h.198l.099.099H6.146l.198-.1.099-.099.198-.099.1-.099.197-.198.198-.099.198-.198.1-.099.098-.198.199-.198.099-.198.198-.297.198-.297.198-.199.198-.099.198-.198.198-.297.297-.297.198-.198.199-.297.198-.198.198-.198.198-.199.198-.099.198-.297.099-.297.198-.297.198-.297.198-.297.198-.396.1-.298.099-.297.099-.198.099-.198.198-.198.099-.198h0" stroke-width=".05051448" stroke="#96cb65" fill="#96cb65"/><path d="M-1.486-1.288H7.5l-.066.044-.198.099-.099.099-.099.198-.099.1-.099.098-.099.1v.098H6.245l-.1-.099h-.098l-.1-.099-.098-.099-.1.1-.197.098-.1.198v.1l-.099.098-.198.1-.099.098-.198.1-.099.099h-.891L3.67.34l-.1.099-.098.099V1.232l-.1.198v.1h-.396l-.099-.1-.099-.198V.737l.1-.198V.34l-.1-.198-.099-.199V-.848l.1-.297v-.143h-4.265m6.047.638v-.099H4.263v.198h.1v.1h.099v-.1h.1V-.65h0" stroke-width=".05051448" stroke="#a9d168" fill="#a9d168"/><g stroke-width=".051" stroke="#7296a8" fill="#cbe2f1"><path d="M13.277 11.83V12.128h-.099l-.099-.1v-.099h.1l.098-.099h0M16.343 11.528l-.094-.094-.1-.1-.098-.098h-.397l-.099.099-.297.198-.099.1-.099.098h-.099v-.198h-.099l-.1-.198h-.396v.099h-.098v.099l-.1.1v.198h.1v.098h.099v.1h.099v.098h.099l.099-.099h.099v.1h.099v.098l.099.198h.198l.1.1v.099l-.199.099-.297-.199h-.198v.199h-.198V13.019l-.198.099-.1.099h-.198v-.198h-.099v-.1l.1-.098v-.1l.099-.098v-.397l-.1-.099v-.099h-.099l-.198-.099V11.632h.1v-.496h.198l.099-.098.099-.1h.198v-.198h.099v-.098h.099v-.199l-.1-.099h-.098V10.047l.099-.099h.099v.1l.198.098.099.1v.098h.595l.098-.099v-.099h.1v-.495l-.1-.198.1-.099v-.1h.098l.1-.098.098-.1v-.693l.1-.099v-.099l.099-.198V7.67l-.1-.099V7.273h-.099v-.098l-.099-.1V6.78l.1-.198.198-.1h.099l.099-.098v.099l.094.094v4.952" stroke-width=".05051448"/></g><g stroke-width=".051" stroke="#fff"><path d="m12.683 3.015-.1.099v.099h-.098l-.1.099-.098.198-.1.1-.098.098v.1h-.1V4.103h-.098v.199h-.1v.099h.1V4.5h-.1V4.6h-.099v.099h-.099V4.996h-.099v.099h.1-.1v.099h-.099v.099h-.099v.099l-.099.1v.098h-.099v.1L11 5.787v.1l-.099.098h-.099v.1h-.099l-.1.098v.199h-.098v.099-.1l-.1.1v.099h-.098l-.1.099-.098.099-.1.099H9.91v.198h-.1v.099h-.098v.099h-.1v.099h.1-.1v.099h-.099v.198-.099.1-.1h-.099v.1h-.099.1v.098h-.1l-.099.1.1.098h-.1v.1h-.099v.098H8.92v.1H8.82v.098l-.099.1-.099.099v.099h-.099l.099.099h-.099v.099h-.1v.198h-.098v.099h.099v-.1.1h-.1v.198h-.098v.099h-.1v-.099h-.098V9.651h-.1v.1H7.83v.098h-.1v.1h-.198v.098l-.099.1v-.1.1h-.099v.098h-.198v.1h-.099v.098h-.099.1-.199l-.099.1v.099h-.198v.198h-.099v-.1.1-.1h-.1v.1h-.098v.099-.1h-.198v.1-.1.1l-.1-.1v.1H5.85l-.1.099v-.1l-.098.1h.099-.198.099-.1v.099-.1.1h-.198v-.1h.1l-.1-.098v-.1h-.099v.1h-.099.1-.1.1v.099h-.1.1-.1v-.1h-.099v-.198.1h-.099.1H4.758v-.1h-.198v.1h-.099v-.198h.1-.1.1-.1.1-.1.1v-.1h-.1.1-.1v-.099h.1v-.099.1-.1l.098-.099h-.198l.1-.099v-.099h-.1v.198h-.199v.1h-.098v.098h-.1v.1-.1.1-.1h-.098.099-.1.1-.1v-.099h.1-.1.1-.1.1v-.099h.099v-.099l.099-.099h-.1v.1h-.098.099-.1.1-.1v-.1.1-.1h-.098v.1-.1h-.1.1-.1v.198H3.77h.099v.1h-.1v-.1.1H3.67h.099v.098h-.1v.1h-.098.099v.099h-.1v-.1h.1-.1v.1-.1.1h-.098.099-.1.1l-.1.099-.099-.1v.1h.1-.1v.099h.1-.1v.198-.1h-.099v.1h-.099v.099h.1-.1v.198h-.099.1v-.1h-.1v-.098l-.099.099h.1-.1v-.1.1H2.68l.1-.1v.1h.098v-.1h-.099v.1-.1H2.68v.1-.1.1-.1h.1H2.48v.1h.1v.099-.1.1-.1h.098v.1h.1v.099-.1l-.1.1h.1l-.1.099v-.099.099l-.099.1v.098h-.099v-.198h-.099.1v-.099h-.1.1-.1v-.1h.1v-.198H2.182v-.098h.1v-.1h.199v-.098h.098v.099-.1h.396v-.098h.1V10.443v.1-.1.1h.098l-.099-.1h.1-.1.1-.1.1V10.146h.098V9.75h-.099v-.594h.1v-.1h-.1v-.098h.1-.1.1v-.1l-.1-.296v-.397l-.099-.099V7.67h-.099.1-.1.1-.1v-.099h-.099v-.099h.198v-.099h-.099.1-.1H3.274v-.1H3.57h-.1.1v-.098h.099v-.1h.099v-.098h-.1.1v-.1h.099V6.78h.099v-.1h.099v.1h.099v.396h.099V7.472l-.1.1v.098h.1v.1h.198v.098h-.099.099v.198H4.76v-.099h-.1v-.099h.198V7.77h.1v-.396h.098v-.1h.1v-.098h.098-.099.198v-.1h.1-.1.1v-.098.099-.1h.099-.1.1-.1.1-.1.1-.1.1-.1.1v-.098h-.1.1-.1V6.58h.1v-.198h.099v-.099h.198v-.099h.099-.1v-.099h.1-.1v-.099.1-.1h.1V5.69v.1-.1h.099V5.59h.099v-.099h.099v-.198h-.1v-.1h.199v-.098.099-.1h.099-.1.1V4.799h.099-.099v-.1h-.1l.1-.098v-.198h.199v-.1.1-.1h.098v.1h.1v-.1H7.135h-.099v-.099h.1v-.198h-.1v-.099h.1v-.099h.098V3.61h.1V3.51h.198-.1.1v-.099h.099v.1-.1.1h.198v-.1H8.127v.1h.099v.098h.099v.1h-.1v.198h.1v-.1h.397-.1v.1h.1v.098h.098v.1h.198v-.1h.1v.1H9.413v.098-.099h.1v-.099.1H9.81h-.1v-.1h.199v-.099h.099v-.099h.099v-.099h.099-.1V3.411h.1v-.198h.198v.099h.099v-.099.099h.099v.1h.099v-.1.1h.099v-.1h.1v-.099h.098v-.1H11.297v-.198h.098l.1-.098v-.1h-.1V2.62h.1v-.1h-.1v-.098h-.198v.099h-.099v-.1H11v-.098H10.702v-.1h.099v-.099h.1v.1-.199h-.199v-.198h-.1v-.198h.199V1.53v.1-.1.1-.1.1-.1.1-.1H11.099h-.1.396V1.43h.1-.1.1v-.099h.098v-.099h.1v-.099h.198v.099h.099v.198h.099v.198h.099l.099-.099v.198h-.1v.1h-.098v.098h.099v.1h.099v.098h.099v.199h-.1.1v.099h-.1v-.1.1h-.198v.099h-.098.099v.099h.099v.099h-.1v.198h.1-.1.496v.099h.099" stroke-width=".05051448"/><path d="M3.967 10.543h.099v.099-.1.1h-.1v.099-.1h-.098v-.098h.099v.099h.099-.1l.1-.1-.1.1v-.1h.1-.1 0M4.66 10.84v-.1.199h.1-.1v-.1.1-.1h0M3.769 10.74v-.098h.099l-.1.099h0M4.512 11.055h.076v-.088h-.076v.088" stroke-width=".05051448"/><path d="M3.67 10.84h.099v-.1.1h-.1 0M3.457 11.199h.045v-.056h-.045v.056M3.863 10.082H3.9v-.066h-.037v.066M3.786 10.775h.045v-.043h-.045v.043M3.924 10.72h.032v-.036h-.032v.035M2.778 11.533v-.099h.1v.099h-.1 0" stroke-width=".05051448"/><path d="M3.85 10.084h.022v-.039H3.85v.04M3.545 11.07l-.013-.02.02.01.01.01-.004.006-.013-.006M3.472 10.939v-.1.1-.1.1h0M3.926 10.51h.024v-.017h-.024v.017M3.462 10.923l.011-.007.005.015-.006-.005-.01.015v-.018M5.23 11.013h.018v-.017H5.23v.017M3.456 11.159l-.001.002-.012-.002.001-.017.002.005.01.012M3.363 11.117l.002-.005.012-.005.002.007-.011.003h-.005M3.495 10.749l-.002.009-.005-.016.002-.004.005.01M6.326 10.837v-.012l.01.005-.003.003-.007.004M3.674 10.898l-.008-.004.002-.005.008.002-.002.007M3.853 10.695l.004-.006.005.007-.002.002-.007-.003M3.687 10.87l.01.004H3.69l-.002.003-.001-.007M4.102 10.094v.004h-.004l-.005-.006.01.002M3.673 10.853l.007-.005.002.002-.006.005-.003-.002M8.117 9.477l-.006.002v-.001l.003-.007.003.006M14.466-1.288v.54h-.1V-.453h-.098v.198h-.1.1v.198h-.1v.1l.1-.1v.1h-.1.1-.1l-.098.099v-.1.1-.1.1h.099v-.1.1h-.1.1v.099-.1.1-.1h.099V.044.341h-.1V.44h-.098.099l-.1.099v.594h-.098v.099h-.1v.1h-.099v.098h-.099v.1h-.099v.098h-.099v.1l-.099.098-.099.1v.098h-.099l-.099.1v.099h-.099v.099l-.099.099v.198h-.099v.198h-.1v.198h-.098v-.1h-.496.1-.1v-.198h.1V2.62h-.1v-.1h-.098.099v-.098h.198v-.1.1h.099v-.1h-.1.1v-.198h-.1v-.099h-.098v-.099h-.1v-.099h.1v-.099h.099V1.53l-.1.1h-.098V1.43h-.1v-.198h-.098v-.099h-.199v.099h-.099v.1h-.099v.098h-.099.1-.1v.1H11h.1H10.8v.098-.099.1-.1.1-.1.1-.1.1h-.199v.198h.1v.198h.199v.198-.1h-.1v.1h-.099v.099H10.999v.099h.1v.099h.098v-.1h.198v.1h.1v.099h-.1v.099h.1v.099l-.1.099h-.099v.198H11v.099H10.9v.099h-.099v.1h-.099v-.1.1h-.1v-.1h-.098v-.099.099h-.1v-.099h-.198v.199h-.098V3.707h.099-.1v.1h-.098v.098h-.1v.1h-.198v.098h.1H9.513v-.099.1h-.099v.098-.099H9.117v-.099h-.099v.1H8.82v-.1h-.099v-.099h-.099v-.099h.1-.397v.1h-.1v-.199h.1V3.61h-.1V3.51h-.098v-.099H7.829v.1h-.198v-.1.1-.1h-.099v.1h-.099.1-.199v.098h-.099v.198h-.099v.1h-.099v.098h.1v.198h-.1v.1h.1H6.838v.099H6.74v-.1h-.099v.1-.1.1h-.099v-.1h.1-.1v-.099h.1v-.099h-.1v-.099h.1V3.708h.098V3.61h.1v-.198l-.1-.099v-.099l.1-.1v-.098h.098v-.1h.1v.1-.1.1-.1h.198v-.098h.098v-.1h.1V2.62h-.1.1v-.1h.098v-.098l-.099-.1h-.099V2.025h-.099v-.198h.1V1.53l.098-.099v-.099h.1v-.099h.099v-.199h.099V.836h-.199v.1h-.099v-.1h-.198V.738h-.099v-.1h-.099V.54v.099H6.84v.099h.1-.199v.099h-.099v-.1.1-.1h-.099v.1-.1h-.099v.1-.1h-.1V.639h-.098v-.1.1-.1.1h-.1.1v-.1h-.1v.1-.1.1h-.098v-.1.1-.1h-.1V.44H5.652V.142v.1V-.056h-.1v-.099h-.099v-.099h-.099v-.099.1-.1.1h-.099v-.1h-.198v-.099h-.099.1H4.758v.1H4.66v-.1h-.099V-.55h.1V-.65h-.199v-.099h-.199v.1h-.098.099v.098h-.1v.1h-.098.099v.098h-.198v-.099h-.1V-.55v.1H3.67v.098h-.098.099-.1v.1h-.098.099-.1V-.552h.1-.1V-.65h.1v-.397h-.1v-.098h-.099v-.1h.199v-.043h10.895" stroke-width=".05051448"/><path d="M7.73.935v.099h-.098v.198h-.397l-.099-.099v.099H6.84l-.099.1h-.198v.098H6.245v.198h-.198v.1H5.749l-.098.098v-.099h-.199l-.099.1v.098h-.198v.198h-.099v-.099h-.099v.199h-.099v.198h-.396v.099l-.099-.1v.1h-.198v-.1.1h-.496v.099-.1h-.098v-.098h-.397v.099H2.877V2.222l-.099-.099v-.099l-.198-.099v-.099l-.099-.099h.1V1.53h.098V1.232H2.58v-.099h.1v-.1H2.48V.836h-.099V.638h.1V.44h.098V.342h-.099v-.1h.1l.098-.098H2.977v-.397h.098v-.099h.1v.1-.1H3.471v.1h.099-.1.1v-.1h.099-.1.1v-.099h.198V-.55v.1h.099v.098h.198v-.099h-.1.1V-.55h.099V-.65h-.1.1v-.099h.198v.1h.198v.098h-.099v.1h.1v.098h.098v-.099H5.057h-.1.1v.1h.198v.098h.098v-.099.1-.1.1h.1v.098h.099v.1h.099V.241v-.1V.44H5.948v.099h.099v.099-.1.1h.099v-.1.1-.1h.099v.1h-.1.1v-.1.1-.1.1h.099v.099h.099v.099-.1h.099v.1-.1h.1v.1-.1.1h.098v-.1h.198-.099V.639h.198v-.1.1h.1v.099h.098v.099h.198v.099h.1v-.1h.198v.1h0" stroke-width=".05051448"/><path d="M3.57-1.288v.044h-.198v.099h.1v.099h.099v.396h-.1v.1h.1-.1v.198H3.175v.098-.099h-.099v.1h-.099v.396H2.68L2.58.242h-.099V.34h-.099V.44v-.1h-.397L1.888.243h-.1v-.1H1.69V.044h-.1v-.099h-.098v-.099h.099-.1v-.099h-.098v-.198h-.1v.1h-.099V-.65H.896l.1.1h-.1l-.099-.1H.698v.1H.6v-.1H.5v-.099H.203v-.099h.099v-.099H.005v-.1h-.1v.1h-.198v.099-.099H-.39l-.1.099-.098-.099v.099-.099h-.397v-.1h-.099v-.241h4.656" stroke-width=".05051448"/></g><g stroke-width=".051" stroke="#7296a8" fill="#cbe2f1"><path d="M2.58 11.731v.1h-.099v-.1H2.183l-.197.198-.198.198-.1.198v.1l-.197.198-.1.099v.099h-.099V13.118l.1.099h.099v.099l-.1.099v.694h-.198l-.074.055h-2.605V13.14l.302.076H-.887l.1-.1.099.1.099.099v-.1h.099l.099-.098V12.82h-.1v-.098l-.098-.1v-.198l-.1-.099v-.099H.403v-.099H.5l.1-.099.098-.099h.1V11.632l.098-.099h.198v.1l.298-.1v-.496l.099-.197v-.1l.099-.098h.198l.198.099V11.038l.099.198h.099l.198.099v.198h.1v.198h.098" stroke-width=".05051448"/><path d="M5.155 7.175v.099h-.099v.099h-.099v.397h-.099v.098H4.66v.1h.1v.098H4.461v-.198h-.099.099V7.77h-.199V7.67h-.098v-.099l.099-.099V7.175h-.1v-.396h-.098v-.1h-.1v.1h-.098v.099h-.1v.099H3.67h.099v.099h-.1v.099h-.098v.099h-.1.1H3.273v.099H2.976h.1-.1.1v.099h-.199v.1h.1v.098h.098-.099.1-.1.1v.396l.098.1v.396l.1.297v.099h-.1.1-.1v.099h.1v.099h-.1v.595h.1v.396h-.1V10.442h-.099.1-.1.1-.1l.1.1h-.1v-.1.1-.1V10.741h-.099v.099H2.58v.099-.1h-.099v.1h-.198v.099h-.1v.099H2.483v.198h-.1v.099h.1-.1.1v.099h-.1.1-.1v-.198l-.198-.1h-.1l-.098-.197V10.74l-.198-.098H1.59l-.1.099v.099l-.098.198v.495l-.298.1v-.1H.896l-.099.1V11.93H.698l-.099.098-.099.1H.401v.098h-1.09v.1l.1.098v.199l.099.099v.099h.099V13.118l-.1.099h-.098v.099l-.1-.1-.099-.098-.099.099H-1.184l-.302-.076V-1.288h.401V-1.046h.1v.099h.396v.099-.099l.099.099.099-.099h.099v.099-.099h.198v-.1h.099v.1H.302v.099H.203v.1H.5v.098h.1v.1h.098v-.1h.1l.098.1h.1l-.1-.1H1.194V-.352h.098v-.1h.1v.198h.099v.1h.099-.1v.098h.1v.1h.099v.099h.099v.099h.099l.099.099h.396V.44v-.1h.198v.1h-.099v.198h-.099v.198h.1v.198h.198v.099h-.1v.099h.1V1.53h-.1v.198h-.099l.1.098v.1l.197.098v.1l.1.099V2.52H3.173v-.1h.397v.1h.099v.099-.1h.495v-.098.099h.198v-.1l.099.1v-.1h.396v-.198h.1v-.198h.098v.1h.1v-.199h.198v-.099l.098-.099h.199v.1l.099-.1H6.047v-.099h.198V1.43H6.542v-.099h.198l.1-.099H7.135v-.099l.1.099H7.531v.1h-.099v.098l-.099.1V1.825h-.099v.198h.1V2.322h.098l.1.099v.099h-.1v.099h-.099.1v.099h-.1v.099h-.099v.099h-.198v.099-.1.1-.1h-.099v.1H6.84v.099l-.099.099v.099l.1.1v.198h-.1v.098h-.099V4.006h-.099v.098h.1v.1h-.1v.099h.1-.1v.099h-.099V4.6l-.1.099h.1v.099h.099-.099V5.095h-.1.1-.1v.099-.1.1h-.198v.099h.1v.199h-.1v.098h-.098v.1h-.1v.098-.099V5.987H5.85v.098-.099.1h.099-.1v.098h.1-.1v.1H5.65v.099h-.098v.198h-.1V6.878h.1-.1.1v.099h-.1.1-.1.1-.1.1-.1.1-.1.1-.1v.099-.1.1h-.099.1-.1v.099h-.198.1-.1 0" stroke-width=".05051448"/></g><path d="M-1.486 14.164h17.829V-1.288H-1.486v15.452m4.3-2.664.008-.008-.002-.017.013-.002.006.005.007-.006.002.016-.023.013h-.011m.678-.358.01.007-.014.024.004.013-.006.01-.007-.006-.01.008-.012-.003.024-.012-.004-.025.01-.012.005-.004m-.129-.026.002-.005.012-.005.002.007-.011.003h-.005m.093.042-.001.002-.012-.002.001-.017.002.005.01.012m.09-.089-.014-.02.02.01.01.01-.004.006-.013-.006m1.686-.059v-.007l.017-.008-.004.01-.013.007v-.002m-.676.025-.003-.022-.012-.003-.014.02-.011-.006-.003-.018.01-.009.006-.017.016-.011.018-.003.015.023v.052l.011.008-.008-.004-.01.007-.019.002.004-.019m-.88-.138-.01-.004.003-.005.008.002-.002.007m-.218-.008v-.007l.01-.007.017.005-.007.01-.006-.004-.003.008-.01-.005m.23-.02.01.004H3.69l-.002.003-.001-.007m2.64-.033v-.012l.009.005-.003.003-.007.004m-2.653.016.007-.005.002.002-.006.005-.003-.002m.03-.02v-.006l.016-.01.012-.025.012-.008.005.004.004.026-.003.004-.013-.008-.008.003-.005.006.004.012-.008.007-.017-.004m-.24.089.011-.007.005.015-.006-.005-.01.015v-.018m1.153-.085.013.002.014-.01-.008-.052.012-.012.01-.001.014.033-.004.013.021.012.007.014-.01.005-.001.013-.013.002-.003.01.005.005v.016l.017.019v.008l.025.009.004.008-.013.014h-.01v-.01h-.01l-.014-.02.004-.009-.021-.03-.008-.002-.026.02v-.024l-.005-.033m-.684-.345.015.001.004.01-.003.006H3.93l-.003-.013.005-.004m.171-.4v.005h-.004l-.005-.006.01.002m-.18.62.008-.01-.005-.01.009-.01.004.011.017.003-.011.017-.019.004-.002-.005m-.07-.019.003-.006.005.007-.002.002-.007-.003m-.046.03-.004-.028-.014-.006.012-.017-.018-.032.014-.01.01.01.005-.003-.01-.019.006-.003h.008v.015l.01.003.002.02.023.015-.011.008v.013l-.012-.006-.016.015-.005.01.008.013-.008.001m.208-.166.022-.002-.011.01.008.015v.012l.013-.001.005-.013h.006l-.001-.008-.006.002.001-.007.01.005-.013.036.002.005.006-.005.003.003-.017.03-.022.022.006.014-.008-.01-.014.007v-.008l-.007-.003-.012.035h-.004l.005-.01-.006-.001.009-.017-.008-.01h-.007l-.013.016-.027.007-.01-.019h-.009l-.005-.013h-.004v.012l-.01-.001-.004.007.003-.011v.004l.01-.001v-.01l-.02-.015-.004.004-.002-.006h-.007l-.016.013-.026-.017.003-.003.003.006.006-.005-.007-.014.008-.005v-.01l.036.023h.01l.009-.006V10.6l-.017.007.002-.015-.01.002v.009l-.01-.015.002-.009.012-.009-.005-.008.008-.007.006.019.015-.005-.006-.006.001-.008-.008-.007.003-.01-.007-.004.015-.001-.003-.008-.01-.003.002-.008.008-.002.007-.01.008.027.019-.004.006.01h.018l.013.006v.014l.006.004.005.018.007-.002.012.027-.003.012.01-.002.007.022.005.001.004-.008-.004-.007.005-.005-.01-.002.002-.014h-.007l.01-.007-.012.002-.005-.01.003-.007-.009.002-.008-.019-.007.003-.004-.02.015-.005-.023-.013-.004-.01-.009.002-.003-.012.025-.002.016.005.016-.006.008.007.005-.003-.013.037.007.015m-.148-.479-.004-.023-.003.028-.006-.005-.003-.02.01-.014.01.016-.004.018m.033-.008-.006.01-.004-.003.002-.011-.007.002.004-.013-.01.02-.008.002.002-.019-.01-.015.008-.028.014.005.01.016.002.016.003.018m-.102.678-.001-.007-.01-.004.002-.004.026-.002.004.006h.01l.002.028-.014.001-.011.008-.017-.007.009-.019m-.303 0-.002.009-.005-.016.002-.004.005.01m4.622-1.27-.006.001v-.001l.003-.007.003.006m4.547-6.44-.014.012-.041.066-.003.022.01.022-.002.021-.046.007-.017-.004-.005-.007-.008.001-.05.026-.036.028-.054.065-.125.195-.128.12-.038.056-.043.088-.02.068-.022.032-.003.019.003.012-.009.072-.012.02v.02l-.027.034-.024.01-.004.021h-.007l-.016.02v.01l-.012.015-.007.033-.02.018-.01.022-.018.066.001.019-.022.024.005.015v.035l-.013.03-.003.033.006.034.018.014v.007l-.01.018-.004.04-.01.029.005.013-.056.046-.079.039-.015.018-.006.018-.041.034-.018.033-.01.045-.044.095-.014.08-.016.03.002.055.013.017-.006.019-.037.043-.006.02-.045.063-.011-.003-.008.005-.018.035-.028.04-.043.034-.018.056-.055.06-.024.034-.076.082-.028.043-.008.002-.027.073-.024.05h-.008l-.003.012-.032.024-.007.038.009.021-.008.018-.022.019-.028.037-.026.013-.053.054-.02.007-.018.016-.02.024-.008.02-.033.029-.013.018-.03.005-.022.012-.105.087-.023.045-.016.016-.007.03-.01.023-.01.012-.009.032-.021.011-.015.023-.008.023-.02.024-.028.016-.006-.002-.018.017-.018.037-.005.024-.022.013-.011.022-.003.025-.017.02-.048.01-.047.027-.04.036-.03.036-.034.026-.037.053-.03.023-.077.035-.028.022-.03.036-.008.001-.014.026.002.017-.01.02L9.926 7l-.01.076-.046.039-.02.006-.013.01-.017.023.003.005-.004.006h-.014l-.01.008-.003-.004-.011.002-.01.006.002.01-.015.001-.016.038-.006.009-.018.01-.034.049-.006.02-.01-.003-.008.007-.004.029.01.006.003.016-.008.013-.014.02-.02-.004-.005.004v.012l-.018.007-.012.024-.005.033-.008.005-.01.023-.017-.002-.02.023h-.007l-.007.029.01.008-.002.02.012.012-.004.005v.024l-.009.005-.01-.003-.006-.008-.007.003-.022-.03-.016-.006-.002-.014-.014-.005-.018.005-.017.013.005.029-.006.005v.018l-.01.022-.015-.002-.03.007.002.017h.012v-.007l.001.012.014.01.012-.001v.013l-.021.02h-.028l-.023.013-.044.045-.012.03-.006.006-.005.032-.01.002-.005.011.002.024.02.04v.01l-.043.018-.01.019.002.042.007.008-.043.043-.01.023-.04.016-.005.014-.056.023-.035.031-.012-.001v-.016l-.004.002.004.008-.009-.006-.015.002-.015.012v.015l-.007.006-.023-.002-.004.006-.028.005-.03.021-.014-.001-.018.01-.01-.002-.011.009.001.015-.004.011-.024.031-.027.016-.002.027.01.009.004-.007.001.006-.005.004v.011l-.025.06-.019.023-.006.033-.026.018-.008-.002-.037.013-.02.016-.04.062-.003.019-.045.026v.043l.015.033-.013.01-.006.038h-.012l-.005.008.007.036-.008.025.007.028-.004.017-.008.002-.004-.006h-.008l-.022.025h-.019l-.005-.006-.015.005-.014.02h-.01l-.004.006-.014-.002-.006.006-.005.02.01.014v.024l-.018.003-.01.03.001.01.01.003.005.008v.03L8.4 9.065l-.009-.033-.006-.005-.044-.018-.017.013.001.013.02.014-.005.016.01.007-.004.006-.006-.002-.005.004.003.013.011.007.006-.012h.007l.006.01-.021.01-.004.012-.014.01.003.011.034.008.024-.02-.007-.019.019-.007.012.001v.005l-.005.014-.014.01v.018l-.01.01v.027l.004.01-.017-.004-.012.008-.002.013-.01.008.007.012-.006.015-.022.011-.024.033v.037l-.02.013-.013-.006-.009.003-.029.03-.006.026-.014.007-.007.01h-.02l-.038.024-.007.011-.028.013-.01-.002-.02-.021-.003-.02.012-.027.027-.006.01-.01-.002-.003-.013-.002-.024.02-.027.002-.02.013.004.012-.004.019.017.007.002.007-.005.01-.006-.003-.007.006.008.014V9.5l-.002.007-.013.008.005.018.007.004v.01l-.003.006h-.012l-.017.01-.016.02-.013.008v.01l.009.005-.005.008.006.004-.016.033-.001.028-.026.022-.001.017.006.02-.013.028-.019.008-.016-.005-.022.003-.03.021-.04.013-.004.011-.013.008-.009-.002-.01.014-.008.001-.012-.01H7.75l-.015.02.011.012-.009.013-.048.032-.05.019-.022.021-.02.008-.017.016-.028.049-.027.008-.006.016.006.006-.01.004.007.01-.015.008.008.006-.009.018-.03.005-.031-.006-.01.013-.01-.001-.005.006-.007-.003-.018.013-.007.01v.01l-.018.019-.01-.001-.015.011-.014.001-.011.03-.013.008-.017.004-.022-.012-.03.012-.011.018-.07.057-.002.012-.02.013-.027.007-.01.009-.002.014-.018.008-.01.012h-.015l-.017.006-.016.02-.009.002-.004.006-.01-.001-.002.007-.01.002.003.007-.01.01-.011-.017-.006.006-.013-.007-.013.006-.005.017.01.01.007-.002-.011.01-.009-.016H6.9l-.038.025-.012.019h-.024l-.01.008-.025.007-.016.03-.002.018.004.006-.015.01-.015.002-.021.019-.008.018.002.014-.005.013-.032.009-.023.022-.025.005-.01-.003-.034.025-.014.013-.005.019-.028.018-.013.018-.019.015-.008.045-.02.003-.013.02-.018-.006-.016.004v-.006l.01-.01-.003-.012-.012-.01.003-.006.007.005.009-.004.009.009.01-.001v-.004l-.038-.011-.013-.018-.017.002-.008.018-.025.012-.013-.004-.01.005-.006.006-.001.017-.027.01-.015.017-.038.022-.01.02.006.016-.008.005-.016.023-.013-.004v-.011l-.005-.003.003-.01-.018-.012-.007-.01.005-.004-.001-.01-.012-.01-.045-.012-.028.022-.007-.007-.002-.012-.01-.002-.019.011.003.01.008.005-.003.008.003.007h-.016l-.01.014-.008-.006-.004-.015-.017.01.005.017-.016.004-.003-.008h-.008l-.009-.01-.001-.007h-.017l-.006.006-.01-.006-.004.012.02.018-.004.005H5.96l-.005.008-.008-.001v.006l-.012.005v.01l-.01-.001-.001.008-.012-.007-.003.007-.004-.005-.008.008v-.007l-.012-.002-.01.01.003.011-.005.007-.009-.002-.001.008-.077.022-.01-.005-.003-.014-.009-.004-.017.005-.04-.003-.01.012.006.015-.004.008-.03-.003-.015.007h-.022l-.009.013.003.009-.012.012-.004.001-.003-.006-.011.005-.003.007.008.008-.01.014.007.003v.004l-.021.011v-.014l-.012-.001-.004.011-.006.002.003.006-.005-.002-.006.009.002.005-.009.002-.008.01-.048-.006-.022.009-.002-.011-.016-.003-.026.011-.02.02v-.005l-.016-.02.001-.01-.029-.023-.004-.013h.01l.003-.003-.003-.003v-.001l.004.004v.006l.038-.004-.004-.006-.018.005-.012-.01v-.005l.011-.003.001-.01.007-.002-.002-.012.01.002.016-.012.03.025.024-.013h-.007l.001-.009-.009.002.006-.013.013.008-.009-.01-.007.002-.008.016-.005-.003v-.015l-.008-.003-.003-.013-.008-.002-.007.01-.017-.03h-.01v-.01l-.006-.01-.01-.009-.014-.001-.002-.012-.019-.008-.002-.006h.007l.002-.009-.01-.01.023-.03-.003-.003-.009.007.002-.014-.005.016h-.009l.01-.022-.015.02v.007l.009-.002.001.007-.05-.013-.033.004-.025.01.003.01-.01.005-.01.026-.012-.003.01.007-.005.001.004.007-.025.021h.01l.007-.01.004.004.006-.004v-.006l.022-.014.004-.01.009.007-.008.02.005.011h-.01v.009l-.019.008.008.026-.007-.003-.003.007-.007-.009-.004.003.004.008-.01.005.004.01-.008.009.005.006-.016.009H5.17l.006-.008-.004-.015-.01.009-.004-.002v.007l-.006-.001.002-.013-.019-.005.006-.008-.002-.007L5.13 11l-.01.009-.004-.004-.005-.015.003-.017.01-.006-.008-.013.006-.003-.007-.003.002-.02-.016-.023-.027-.01.005-.02-.015-.007v-.005h.008l.007-.008-.004-.03.006-.004-.004-.01.012-.025-.01-.02-.019-.012-.005.007-.007-.006h-.017l-.018.014.005.015.01-.002.002.012L5 10.79l-.002.006.007.013h.005v.004l-.02.005-.015-.004-.007.002-.004.01.005-.006.02.01v.009l.004.001-.012.007-.001.01-.006-.01H4.96l-.014-.008-.017-.002-.011.005-.02-.005-.016.005-.012.01-.002.007.007.013h-.007l.001-.005-.009-.004-.008.01-.008-.01-.004.01-.006-.003-.004.004v-.008l-.008-.007h.006l.004-.006-.003-.018H4.82l-.004.015-.005-.008-.004.011-.01-.005-.004.004-.005-.003-.002.007-.009-.007.007-.013-.005-.006-.004.004-.005-.005-.002.008-.01-.002.002-.008.002.007.013-.012-.003-.006-.012.007-.001-.008.01-.05-.039-.02-.018-.001-.003.004-.01-.012h-.017l.002-.008-.015-.015-.006.011.004.007-.007.01v-.008h-.008l.002-.01h-.008l.004-.003-.02-.029-.01.005-.003.011.006.004.004.024.008.008-.012-.004-.016.01-.013-.001-.016.008-.004.013-.017-.019-.005.003.006.007-.001.007.02.01h-.009l.011.011h.01l.003.009-.015.013-.001.008.004.005h-.007l.012.01-.007.004-.002.015h-.01l-.005.016-.005-.008-.002-.021-.015-.003-.01.012.008.014-.014.003.001-.015H4.52l.006-.024H4.5l.004-.01-.013-.008.02-.023-.013-.01.002-.024-.006-.003-.002.005-.002-.001.006-.02-.004-.056.022-.037-.005-.007.006-.008-.005-.004.003-.001h.004l-.008-.006-.006.012-.005-.016.01-.015.009-.001.011-.012-.004-.002v-.006l-.012.004-.003-.01-.001-.025.012-.006.003-.011-.014-.012-.007-.017-.013-.003-.006.004-.001-.009.01-.023-.001.023.016.001.02-.01-.003-.008.007-.002.006-.012.001-.017-.016-.03.008-.014v.011l.013.006.008-.011-.002-.006.006-.003-.006-.005-.008.009-.007-.001.008-.01-.008-.003.01-.003.007-.018-.016-.013v-.012l-.011-.002-.006-.006.014-.008.018.004.012-.005.013.007.009-.014.027-.022-.002-.02-.015-.026-.025.006-.012-.005-.015.008h-.018l.01-.014-.002-.01-.006-.005-.009.01.007-.011-.015.002.013-.032.005-.001.038-.05-.006-.024.003-.005-.02-.023-.025-.007-.03-.001-.008.01.013.02.01.005-.002.009h-.009l-.012.018-.029.015.002.014-.008.008v.008l-.027.023.002.012h-.013l-.013.014-.042.008-.01.008.004.008-.013-.002-.013.013-.01-.003-.01.011-.024.002-.005.019-.013.006-.002.008-.029.023-.007.016-.005-.004-.006.006.002.005-.013.013-.012.027H4.18l-.002.01-.013.005-.004-.004-.007.002-.006.016-.014.005-.008.015-.019.01-.012.019.003.01-.003.019h-.008l.008-.019-.005-.008-.009-.001-.023.014h-.013l-.009-.003.001-.008.022-.002-.009-.006-.002-.01-.01.01h-.014v-.003l-.006.004-.013-.011v-.004l.011-.007.002-.004-.02.011-.005-.003.005-.022.01-.007.045.001.007-.008-.033-.001v-.007l-.003.006-.003-.004-.01.003-.01-.004-.02.025.006.006-.02.023-.018.004.001.01-.002-.013.015-.016.008-.024.01-.001.005-.006-.003.002-.001-.009.01-.008-.005-.004.003-.01.008-.003.01-.02.01-.002h-.004l.01-.007-.001-.006-.003.003.007-.02-.012-.015v-.008l.014-.013v-.01l.012-.011.004-.017.05-.033.001-.007.004.004.017-.012h.02l.015-.007.005-.015-.01-.008-.004-.019.013-.002.003-.009.016.001.032-.028-.002-.021.016-.023h.006l-.001-.009-.008.003.001-.013-.008-.011-.032-.003-.023.007-.007.01v.014l-.01.01-.004.02.015.01.009.016-.006-.003-.008.008h-.016l-.003.008-.024.02.008-.018.02-.022-.012-.03-.004-.002.004.004h-.005l-.004.007.003-.018-.005-.01.004.01-.004.006-.002-.01-.031-.01-.006.003.002-.006-.004.005-.007-.006-.065-.004-.014.006v.012l-.027.006-.004.003.004.008-.005-.004-.023.013.001-.01-.002-.001H3.92l-.003-.002.006-.02-.002-.016.027-.008.006-.018h-.006l-.007-.01h-.026v.01l.012.012-.003.009-.007-.007-.006.003v-.007l-.01-.008-.01-.04h-.007l-.002-.004v.015l-.013-.002-.019.038-.001-.011-.007-.014.004.038.017.04-.02.02.002.049.012.016-.006.007-.009.031-.015.014h-.01l-.006-.009-.008.012.002.011-.026-.002-.007.004-.003.009.008.008.018-.003.056.006.018.03-.032.01-.005.016-.013.006-.01-.003-.022-.043-.018-.021-.012-.003-.003.011-.006-.002-.005.005.004.02-.01.02-.02-.005-.01.006-.014-.002.005.022.02.003.024-.026.015-.005.012-.02.003.008v.012l-.015.036-.034.048-.01.025-.033.022-.02.05-.018.013.001.009-.02.004-.017.017-.004.024.004.006.01.004.006.004.004.004-.006.023-.044.015v-.009l.015-.01.002-.021.031.007-.003-.01-.023-.01-.012.032-.01-.01-.015-.004-.035.015-.012.02.006.012-.005-.004.002.005-.01.005-.028-.005-.003-.006.004-.005-.011.01-.011-.003-.008.003-.006-.007v.006l-.011.003-.008.019.011.008.04-.024.03.005.013-.005.004-.008.004.003-.007.017.004.007.008-.002.009.034-.021.016-.007-.007-.017-.002-.016.015-.006.017-.03-.003-.01-.009.014.009.003-.008h-.008l-.01-.014-.01-.002-.01-.018-.012.001-.019.016v.02l.01.002-.007.026.01.004-.001.007.004.011.005-.001.003-.012-.01.004.012-.008h.009l.005.01-.001.013-.026.034-.003.015.008-.001v-.005l.001.005.004-.008.004.004.005-.006.022-.003.012.012.026-.022.008.003.015-.007-.002.011h-.012l-.007.008.003.006h-.008l-.004.01-.018.003v.008l-.006-.002-.009.012h-.008l.003.007-.04.009-.027.03-.01.017v.007l.008.003-.012.008v.02l.017.006.009.01h.013l-.02.01-.002.016-.007-.001v-.015l-.007-.01-.016-.004.005-.004-.002-.01-.018-.007-.046.008-.012.007v.01h-.01l-.015.017.004.036-.009-.001-.005.008v.022l-.008.01v.024l-.006.012.013.016h.005l-.006.006.002.006-.006-.004-.004.004v.013l.004.002h.001v.001l-.01.006-.002-.007-.009-.004-.014.01.012.03-.008.007-.002-.007-.013.004.003.013.01-.001.002.004-.004.006-.017.002v.007l.01.002.002.015v.003l-.014.001v.012l.007.009.015-.004.012.008-.002.01.005.006-.005.004.009.007-.002.004-.006-.004-.018.005.013.03-.006.022-.014-.007.002.01h-.006l-.007-.008v-.009l-.017.005-.01-.016-.01-.003-.002-.014-.01.002-.01-.006.001-.004.02.002.023-.031-.005-.006-.023.005-.007.01-.008-.022-.006.004-.001-.01-.01.003v-.005l-.018-.003.01-.008-.002-.005.012-.003.002-.008-.013-.013-.005.008-.007-.006.009-.002.003-.012-.01-.008.005-.005-.005-.012.004-.004-.01-.011H3.05l-.001.012-.012.004-.002.019-.01.02-.005-.002.011.011.01-.002.009.012v.011l-.015-.01-.023-.03h-.011l-.012.013-.006-.004-.015.007v-.016l-.012-.011-.013.006v.007l-.006-.002-.008.013-.001-.015-.018-.006-.023.012v.017l-.003-.003-.027.013-.002.009.008.014-.006.001-.005-.005-.007.005-.012.028-.022-.007-.007.005-.004-.008-.006.006-.016-.007-.007.006-.007-.006.002-.007h-.01l.014-.01.005.004-.001-.01-.027.006.003-.017-.014-.009-.011.001-.008-.01-.022-.003.006-.01.04-.019.011.002v.008h.026l.012.005.002.01h.01l.01.03.01.01h.01l.018-.013.013-.022.004-.02-.006-.019-.014-.004-.024.004-.006-.006-.012.011-.002.01-.006-.012-.016-.004.005-.005.002-.021-.007-.007-.008.01.003.008-.013.01-.008-.001-.006-.013-.011.005-.005.015-.006-.005-.007.005-.002-.007-.005.007-.012-.012-.003.003.005.01-.009.007v.009l-.013-.007-.005.005.004.005h-.007v-.016l-.014-.007h.014l.009-.013.012.004.015-.013.015-.003.008-.025-.003-.02.013.004-.004.002.007-.003-.007-.008-.007.002.003-.006-.006.008-.005-.003-.006.006-.01-.005-.033.007-.02.017v.007l-.01-.004-.005.006-.03-.011-.01-.021-.022.005-.028.024-.006.012-.006.004-.003-.004-.007.008-.01.019-.013.007.007.027.008.003.016-.008.01.004.02-.003-.001.02.02.013.013-.002.011-.01.002.005-.008.011v.016l.007.004-.024.037-.027.01-.004.004-.006-.015-.016-.008.016.016-.003.01.01.004.004-.009.034-.012.025-.04.008.001.008.01.004-.006.005.004.007-.002-.006.015.004-.001.007-.024.02-.03v-.007h.005l-.027.051-.005.023.005.018.012.008.012-.009.027.02.026.003.007.008-.002.026h.01l.019.01.006.016-.008.021-.006-.006-.006-.023-.015-.003-.013.01.013.037.006.001-.003.018.007.014-.014.027-.018.003-.017-.015h-.008l-.018.008-.013.013v.012l.014.007-.013.01-.011.027-.024.107-.061.118h-.003l-.002-.002-.006-.003-.002-.004-.013-.016-.011-.01-.012-.012-.005-.005-.005-.01-.005-.014v-.017l.003-.005.007-.01.002-.003.014-.008.003-.003v-.002l.003-.007-.004-.009-.009-.012-.01-.014-.003-.012-.005-.016-.012-.012.003-.002v-.002l-.002-.002-.001-.001v-.001h-.001v-.005h-.001l-.002-.002H2.48l-.001-.002-.002-.003v-.002h-.001l-.002-.001-.002-.001H2.47l-.002-.001v-.001h-.001v-.001h-.001l-.002-.001h-.007v-.001l-.001-.003-.001-.001v-.002h-.001v-.002l-.003-.001h-.006v-.001h-.002v-.001h-.001v-.001H2.44l-.002-.001-.003-.001v-.001h-.001l-.001-.001v-.001l.001-.002V11.507h-.001V11.497l-.001-.002v-.002l-.001-.001v-.003h.001l.001-.002h.001v-.002h.002v-.006h-.002v-.001l-.001-.001-.001-.003H2.43v-.001l.004-.006-.001-.008v-.002h-.002l-.002-.002-.002-.002h-.001l-.001-.001-.005-.004h-.003v-.001l-.002-.002-.002-.002-.002-.001-.002-.001-.001-.001v-.001l-.003-.001-.001-.001-.001-.002h-.001l-.001-.001v-.001H2.4l-.001-.001-.002-.002h-.001v-.002l-.002-.001-.002-.002-.002-.002v-.002l.001-.003.001-.001.002-.006-.002-.002-.005-.005-.003-.003v-.003h.001l.002-.001.004.003h.001l.003.002V11.4l-.001-.002-.002-.002V11.388l.001-.001v-.002l.002-.004.002-.003.001-.004v-.002l.003-.003v-.01l-.001-.001v-.004l-.002-.005v-.001l-.002-.002v-.005h.007l.003-.004h.001l.003-.003h.002l.002.002h.017l.003.001.002.001h.001l.004.004h.004v-.006l.001-.006v-.002h.001v-.002l.003-.005h.001l.002-.001v-.002h.002v-.002l.005-.001.004-.012.003-.007-.001-.005v-.001l.006-.003v-.006l.001-.004v-.006l-.001-.008-.006-.004-.005-.013.002-.009-.001-.005-.003-.002.002-.001-.001-.006v-.003l-.003-.003H2.45v-.005l-.005-.005-.007-.006.001-.005-.002-.003v-.005l-.002-.002.002-.003-.002-.004-.003-.005-.003-.008v-.006l-.005-.008-.005-.005-.014-.009-.003-.001-.003-.006-.003-.006-.006-.002-.004-.004H2.38l-.004-.003h-.004l-.011-.01-.006-.003H2.35l-.003-.003-.006.003H2.34l-.008.006H2.322l-.001.001v.001l-.002.003v.001h-.006v.002H2.31v.001h-.005l-.002.003-.003.001H2.3l-.002-.001-.001-.001H2.281l-.001.001-.002.002-.004.002-.002.002H2.27l-.001-.001-.002-.004-.001-.003-.002-.002-.001-.001-.002-.001v-.002l-.002-.008v-.003l-.002-.001h-.002v.001H2.25L2.25 11.1l-.005-.002-.003-.001v-.001l-.002-.003v-.001l-.002-.001h-.004l-.002.002h-.004l-.001.002h-.001l-.002.001-.002-.001-.004-.003v-.002l-.002-.001v-.001l-.002-.002-.001-.001-.003-.002v-.006l-.001-.002-.003-.003v-.002l-.001-.002v-.002h-.002l-.001-.002-.002-.001h-.005l-.001-.002v-.002h.002l.002-.001.002-.002h.004l.003-.001h.006l.003.001h.001l.002.001h.007v-.002l.001-.001-.001-.002v-.002l-.001-.002-.001-.002v-.003l-.001-.002v-.006l.002-.003.004-.002.001-.002.001-.001v-.002l.001-.002.003-.002.002-.001.003-.002.002-.003h.004l.001-.002h.002l.002-.001h.003l.002-.001.001-.001.001-.001.005-.002.002-.001h.001l.002-.001h.001V11l.001-.002v-.004l.001-.005.001-.002H2.28l.002-.001h.001l.002-.002h.004l.006-.001.005-.001h.005l.001-.001h.001l.002-.001.002-.003v-.001l.003-.002.003-.002.002-.001.002-.002h.003l.003-.003h.004l.002-.002.002.001h.003l.002-.001h.01l.001-.001h.001l.004-.004.002-.002v-.002l.001-.002v-.002h.002l.002-.002.002-.002v-.001h.002l.002-.002v-.003l.003-.002v-.003l.002-.001v-.002l.001-.003v-.001h.001l.001-.001h.004v-.001l.002-.001.001-.001h.001l.001-.002v-.002h.002v-.005h.002l.002-.001h.005l.001-.001H2.4v-.001h.006l.002-.002v.001l.001.001.004.004.003.005.001.001.001-.003.002-.001v-.004l.001-.001.001-.001.001-.001h.002l.001-.001h.008l.001-.001h.003l.001-.002.002-.002h.003v.002h.001v-.005h.001V10.9l.002-.002h.001l.004-.001.001-.001.002-.002.004-.002h.001l.001-.001v-.003h.006l.001-.002.002-.002.003-.001h.007l.005.002h.002l.001-.001.003-.003v-.005h.002v-.001l.002-.003h.002l.002-.001.001-.001h.001v-.001h.003l.001-.002h.001l.001-.001h.002l.001-.001.001-.001.001-.002H2.522l.002-.001.002-.002H2.535l.002-.001h.004l.01.006h.004l.003.001h.002l.003-.001h.003l.003.004.002.001.001.002.001.001.001.002v.007l.001.002v.002l.002.002h.003l.002.001h.002l.002.001h.002l.001-.002h.001l.004-.002.001-.001.001-.001v-.003l.001-.002.001-.003.001-.002.003-.004h.011v-.001l.002-.001.001-.001h.004l.001.001v.002l.001.001.001.001h.001l.004.001h.002v.001l.002.001.001.002.004.002h.003l.001-.002h.002l.001-.001h.003l.001.002h.003l.002-.002h.001l.001-.004v-.008l-.001-.002v-.002l-.001-.003v-.004l.002-.001.002-.002v-.002l.001-.004.001-.001h.001l.002-.002v-.005l-.001-.001H2.66l-.002-.002h-.001v-.003l.005-.006.002-.001v-.001l.002-.001h.002l.002-.002.003-.002v-.001l.002-.003v-.001l.002-.001h.007l.001-.001h.001l.001-.001h.002v-.001h.001l.001-.002h.003l.003.002H2.707l.001-.003h.012l.001.001.002.002h.003l.002-.001h.002l.001.001.001.003v.002h.001l.001.002.003.003.003.002.001.002v.002h.002l.001.001.001.001v.001l.002.002v.005l.001.002v.002l.002.002h.002l.003-.002h.005l.001-.001.002-.001v-.001h.005l.001.001.001.005.002.002v.002l.003.002h.001l.001.002h.001l.003.002.004.003H2.793l.002-.001v-.002l.002-.001.001-.002.002-.002.003-.001.002-.001h.001l.002-.002v-.005l.001-.002v-.005l.002-.002v-.003h.004l.004.002h.007v-.005h.006v-.001l.001-.004h.004l.002-.001h.004l.002.001.002.001v.001h.002l.001-.001.005-.003.001-.001.002.002v.001l.003.002v.004l.002.002.002.002.002.003h.002v.001h.004l.002.003h.004l.003-.001.002.002h.001l.002.001h.002l.002.002.001.003.002.006H2.904l.001-.001h.003l.002-.002v-.001l.002-.001h.005l.003.002h.004l.002-.002.003-.003h.005l.003-.002.002-.001h.004l.002.001.002.002.002.001h.006l.003-.001h.005l.003-.001h.005v-.002h.001l.001-.001v-.002l.001-.001v-.002l-.001-.002v-.002l-.001-.001v-.004l-.002-.003h-.003l-.001-.002-.002-.002V10.803l.001-.002v-.003h-.002l-.004-.002h-.001l-.002-.002-.001-.002-.001-.005-.001-.001h-.003l-.001-.001V10.774l-.001-.003v-.005l-.002-.003v-.002l-.003-.002-.003-.004v-.005h.001v-.001l.001-.001.003-.002.002-.001.001-.001.004-.002v-.002l.002-.001.001-.002.002-.002v-.002l.003-.004h.003l.001-.001v.002l.002.002.002.002.001.001.001.001v.001h.001v.001h.001l.005-.003.001-.001h.001l.001.002v.001l.001.002.002.001.002.001h.001l.002.001h.001l.004.003.001.001h.001l.002-.002h.002v-.005L3 10.736l.002-.002.002-.001h.003l.008.003.001.001v.001l.002.002.001.001.003.003.002.002h.001l.002.002h.003l.002-.001.002-.002h.008l.001.001h.002l.001.001h.005l.001.001h.002l.002.002h.001l.001-.001v-.002l.001-.003.001-.001.001-.002.002-.001.004-.002.001-.001v-.002l.001-.002v-.001h.001l.001-.002h.001v-.005h.002l.002-.002.001-.001v-.001l.001-.001h.005l.002-.003v-.001l.002-.002h.004l.001.001h.001v-.002l-.001-.002v-.003l.001-.001v-.001l.001-.002v-.001l.002-.003V10.7h-.003l-.003-.001v-.002l.001-.002V10.682l.001-.001.001-.001h.001v-.002l.001-.001.001-.002v-.003l.002-.002.003-.005v-.001H3.085v.002h-.003l-.003-.001-.004.002h-.003l-.001-.002-.001-.001-.001-.001-.001-.001h-.003l-.003-.002h-.001l-.001-.001v-.003l-.001-.001-.001-.001-.002-.001v-.003h.002l.001-.002.001-.003v-.005l-.001-.001-.002-.001v-.001l.001-.001v-.003h-.004v-.012l.001-.002h.003v-.005l.001-.003v-.006h.002v-.002L3.06 10.6v-.003l-.003-.001v-.003l-.002-.006v-.002H3.05v-.001l-.001-.001v-.002l.001-.003v-.002h-.008v-.006l.001-.001.002-.003v-.001l.004-.006v-.002l.001-.002v-.007l.001-.003v-.002l.001-.001h.001l.001-.001v-.004h.002l.002-.002h.001l.002-.004.001-.004.001-.001h.002l.001-.001v-.001h.003v-.007l-.001-.001-.001-.002-.001-.003-.002-.002v-.014h.003l.005-.002.005-.002h.004v.002h.005l.001-.001h.002l.003-.003h.002l.003-.001h.002l.001-.002H3.114l.003.002v.002h.002v.003h.003l.002.001h.001V10.47l-.002-.006v-.006l-.001-.001-.002-.001-.001-.002-.004-.004v-.002l.002-.003.001-.004v-.001h.004l.001-.001v-.003l.002-.004.002-.005.001-.001.002-.001.005-.002.002-.002h.001l.004-.006h.012l.002-.002v-.003h.002l.004-.004h.001V10.4l.002-.001v-.002l.004-.003v-.001h.001v-.008l.001-.001v-.002l.001-.001.001-.002v-.003l.002-.002.001-.002h.001v-.002h.002v-.001l.002-.001v-.001l.001-.001v-.008l-.002-.004-.001-.003v-.002l-.002-.002v-.002l-.003-.004v-.003l-.001-.002-.002-.003v-.003l.004-.001v-.001l.003-.005v-.007l.001-.001.001-.002h.001l.004-.004v-.007l-.001-.004v-.005l-.002-.002-.002-.002v-.002l-.003-.003-.003-.004h-.006l-.002-.002-.003-.003v-.005l-.001-.001v-.004l-.001-.001v-.011l.002-.003.003-.007v-.005l-.001-.003v-.007l.002-.007v-.002l.002-.003v-.001l.003-.004.002-.002.004-.003.003-.002h.007v-.002l.002-.002V10.2l.002-.002h.003l.004.001v-.005l.001-.002v-.004l.001-.001v-.001l.002-.001.003-.002h.004l.001-.002.001-.002.001-.001.002-.002.001-.001.003-.002.002-.001h.002l.002-.001h.002v-.006l.001-.001V10.15l-.001-.001v-.006l.002-.003V10.13l.001-.001h.001l.002-.002.003-.001h.002v-.001l.002-.001v-.001l.004-.006v-.006l-.002-.014v-.002l-.002-.002v-.001l-.001-.002.001-.002.002-.001.002-.002v-.001l.003-.003v-.001l-.001-.002h-.001l-.002-.002h-.001v-.007l-.001-.002v-.004l-.001-.002V10.05l.003-.003v-.001l.001-.002.003-.01.001-.014.001-.008.002-.002v-.001l.001-.001v-.008l.005-.01v-.007h.001V9.98h.002l.003-.003.002-.001H3.279l.002-.002v-.002l.002-.005.003-.002h.002l.002-.002h.005v-.001h.001v-.004l.002-.002.002-.002.001-.001.002-.002.001-.001v-.004L3.3 9.942V9.94l-.002-.001v-.004l-.001-.004v-.003l.002-.001.001-.001v-.008l-.003-.002h-.004l-.002-.002-.003-.002-.003-.004-.001-.002v-.004l-.003-.005-.001-.001v-.01h.001v-.001l-.002-.003-.003-.004v-.006l.002-.001V9.87l.002-.002v-.005l.002-.004.001-.002.001-.001.001-.001.001-.001.003-.002h.003l.001-.001V9.85l-.001-.003-.004-.014-.001-.007h-.001l-.005-.002h-.005l-.002-.002h-.001l-.001-.001-.001-.002-.004-.005v-.001l-.002-.004v-.004h-.002l-.004-.001-.009-.002V9.8L3.248 9.8v-.003l-.001-.002-.001-.002V9.79l-.001-.001-.001-.006h-.002V9.78h-.001v-.002l-.001-.001-.002-.002-.001-.001h-.005l-.002-.002h-.002l-.002-.002-.002-.001v-.003l-.002-.004-.002-.003H3.22l-.002-.001h-.002l-.002.001h-.004l-.002-.002-.002-.002-.001-.003-.001-.001L3.2 9.75H3.192l-.003-.004-.004-.004-.002-.002h-.005l-.001-.001-.001-.002-.001-.002v-.006H3.17l-.002.002h-.002v-.002l.001-.001.002-.001v-.002h-.005l-.002.002H3.16l-.001-.002v-.003l.003-.004.001-.004.001-.005.001-.002.001-.002v-.013l-.001-.002-.003-.003-.004-.004-.003-.002-.002-.002v-.003l.001-.001h.016v-.002l.001-.002V9.652l-.002-.003-.003-.003-.003-.003V9.64l.001-.001h.006l.005.002h.007v-.003l.001-.001v-.002l-.006-.007v-.003l.002-.002h.007l.001.002.003.001.002.003.003.003.002.005H3.2l.001.001h.001l.001-.001v-.003l-.001-.002V9.62l.002-.005.001-.002.002-.002.002-.001.004-.002v-.004l-.003-.002h-.002l-.003-.001h-.003L3.2 9.6l-.003-.002H3.19l-.005-.002-.003-.002-.003-.001-.001-.002.002-.004.002-.003.001-.003.001-.003v-.005l-.002-.005v-.003l.002-.002v-.005h.002l.003-.001.004-.003h.002l.002-.001.001-.001.001-.003V9.53H3.2l.001-.002.001-.002.003-.001v-.002l-.002-.002L3.2 9.52 3.2 9.517v-.001l.001-.002v-.006L3.2 9.506v-.003h.002v.002l.001.001.001.001h.002l.001-.001h.002v-.01l-.002-.004v-.004l-.003-.004-.001-.001-.002-.002-.002-.001-.004-.002-.003-.002-.005-.003-.002-.002-.002-.002V9.46l-.002-.004v-.004l.001-.002-.001-.004v-.005l.004-.004.005-.004V9.43l-.003-.002-.006-.004v-.002l.001-.002.003-.001h.006l.002-.001v-.004l.001-.002v-.003l-.008-.003-.004-.004-.001-.002L3.18 9.4V9.39l.002-.004.003-.001.004-.004.002-.003.007-.002v-.007l-.002-.003v-.002l-.001-.002V9.35h-.006l-.001-.002v-.002h.005l.003-.002.001-.002v-.004h-.004l-.002.001-.002.001-.002.001-.002.001h-.004V9.34L3.18 9.34v-.003l.003-.002h.003l.002-.001.003-.001v-.006l-.002-.002-.002-.001-.002-.001h-.003l-.002-.001-.001-.002v-.004l.002-.001.001-.002h.001l.003-.001V9.31l-.004-.002h-.003l-.002-.001-.002-.002v-.002L3.172 9.3l.001-.002h.003l.002-.002.003-.002h.002v-.007l-.002-.002-.003-.003h-.001l-.001-.002v-.005h.003l.002-.002h.003l.003-.003.001-.003V9.26l-.001-.005v-.004l-.002-.003v-.006l-.001-.002v-.003l.001-.001v-.002l-.001-.001h-.002l-.001.001H3.18l-.002.001h-.002l-.002-.002V9.23h.001l.001-.001.002-.001v-.003l.002-.004.002-.008.003-.002.002-.003.003-.003v-.002l.002-.002v-.003l.002-.002h.002l.002-.002H3.2v-.007l.001-.001.002-.004-.001-.004.001-.002.002-.001.001-.003V9.17h-.002l-.002-.002V9.153l-.001-.002.002-.002.001-.002v-.001l-.001-.001v-.003l.001-.001.002-.002h.002l.002-.002v-.004L3.21 9.13l.001-.001.002-.002.003-.002.002-.002h.002l.001-.002V9.12l.002-.002h.004l.001-.002-.002-.001.001-.003.001-.001.001-.001v-.003l-.001-.002.002-.002h.001v-.001l.001-.001V9.1H3.23l-.001-.003v-.003h.003l.001-.003V9.09l-.002-.001v-.004h.002l.002-.001h.001l.001-.002v-.003h-.002l-.001-.001v-.001l.002-.003.001-.002V9.07l-.002-.001-.001-.001v-.002l.003-.002h.001v-.002l-.001-.001v-.006l.002-.002-.002-.003V9.05l.001-.002.002-.003h.003v-.006l-.002-.002-.001-.002-.001-.004v-.003h-.001v-.001H3.23v-.001l-.002-.002-.003-.003v-.001H3.22l-.001-.002h-.002l-.001-.001v-.001l-.001-.002V9.01h.001v-.002h.001V9l-.001-.002h-.002v-.002h-.002l-.001-.001-.001-.002V8.99l.003-.003h.002l.001-.001v-.002l.001-.001.001-.002h.002v-.006l-.004-.005h-.001l-.001-.002.002-.002v-.002l-.002-.001h-.002V8.96l.001-.002.003-.001.001-.002.002-.001h.001l.002.002h.004v-.002l.001-.002.001-.002h.001v-.004l-.002-.006.002-.005-.003-.012v-.002l-.002-.002h-.003v-.007l.002-.001V8.91h.006l.002-.002v-.007l.004-.007v-.003l.001-.002v-.006l.002-.003h.004l.005.003.003.001h.005l.001-.002h.001v-.001h.001v-.003h.001v-.001h.002v-.001h.003v-.002h.001l.002-.001.001-.002.001-.001v-.003l.002-.001h.002l.001-.001h.001v-.002h.001l.002-.002.004-.002H3.292l.002.001-.007-.035-.002-.008-.065-.305-.017-.08-.046-.213-.014-.06-.006-.03-.02-.095-.025-.12-.039-.18-.004.001-.001.001-.001.002-.002.003h-.001l-.001.001H3.04L3.04 7.74l-.001-.002-.002-.001v-.002h-.002v-.001l-.001-.002V7.73l-.001-.002-.002-.002-.003-.002V7.72l-.001-.001.001-.007v-.005l-.003-.001v-.008h.001v-.001l.002-.001.001-.002V7.68l.001-.003v-.003l-.001-.002-.004-.002-.004-.002h-.002l-.002-.001h-.003v-.002l-.002-.001-.004-.003v-.004l-.001-.002-.002-.002h-.001l-.002-.002V7.63l.002-.003v-.002l-.001-.001h-.001L3 7.623 3 7.623v-.008l-.003-.003v-.007h-.01v.001l-.002.001-.002.003-.004.005h-.002v.001H2.97l-.004-.004-.003-.002h-.002l-.006.003H2.95l-.003-.001-.001-.002-.005-.003-.003-.003v-.006l.001-.001.002-.001v-.001l.001-.001v-.001l.002-.002.002-.003v-.006l-.003-.002-.001-.002-.005-.003v-.017l-.002-.001h-.002l-.001-.001v-.001h-.005l-.001-.002V7.55l-.002-.001-.001-.001-.003-.002-.001-.001-.002-.001h-.003v-.001h-.001l-.001-.001V7.54H2.91l-.001-.001h-.004l-.002.002-.003.001h-.003l-.005.003H2.89l-.003.001h-.002l-.002-.002-.003-.003-.002-.002V7.53l.001-.002.003-.001v-.01l-.001-.001-.002-.002-.003-.004v-.015l.004-.009.002-.001H2.89v-.001l.002-.001v-.002l.002-.005.001-.004.001-.001.002-.001h.001l.001-.002.001-.002.001-.001h.005l.001-.001.003-.001.002-.001h.002l.002.001.002.002.001.002.001.001h.003l.001-.001.004-.003h.005l.005-.001h.001l.003-.002h.002l.004-.003h.001v-.01l.001-.002.001-.002h.001l.002-.001.003.001h.005l.001.002v.004l.003.002.002.004v.001l.003.002h.007l.002-.002.002-.003.001-.001h.007l.002-.002.003-.003.002-.003L3 7.444H3.008l.002-.001.002-.001h.001V7.44l.001-.002.003-.006v-.006l.002-.001.003-.001h.003l.002-.001h.008l.001-.002.002-.001.003-.003v-.006L3.04 7.41h-.001v-.003l-.001-.002v-.003L3.035 7.4v-.006l-.001-.001-.003-.005v-.004l-.003-.003h-.003V7.38l-.001-.001V7.37l.001-.001.002-.001.002-.002v-.001l.001-.002.001-.001.002-.002h.003v-.001l.002-.002.002-.001v-.004h.001l.004-.004.002-.002.002.002h.01l.001-.001h.002l.002.001.001.002.001.003.001.001.002.001h.004l.002-.003.001-.002v-.002l.002-.003v-.002l.002-.003.002-.001.002-.001.004-.003h.006l.003-.002v-.001L3.1 7.33h.004l.002.001h.007l.002.002v.004l.002.001h.002l.001.003.003.003v.001h.003v.005h.002l.003-.001.002-.001h.002l.001.001h.002v.002h.001v-.004l.004-.005.001-.001h.001l.001.001v.001h.001l.002.002v.005h.002l.003-.001h.006l.002.002.001.002.002.001v.005l.002.002v.004l-.003.002v.001l.001.001.001.002.002.001v.007h.007l.003.001.003.001h.006l.005-.003.004-.002h.008l.003.001h.004l.003-.001.004-.001.002-.002v-.001l.001-.001V7.37l.001-.004.001-.002.001-.002h.001l.001-.001.006-.003h.003l.005.005.001.003.002.001.002.002h.003l.002.001H3.258l.003-.002.004-.002.001-.002h.002l.004-.002h.002V7.36l.002-.003v-.004l.003-.005.002-.002.003-.001h.001l.003-.004.002-.002.001-.002.004-.008.002-.004.002-.005v-.002l-.004-.01V7.3l.002-.003h.007l.004.001h.001v-.002l.001-.001.002-.002.002-.001h.003l.002-.001h.001l.002-.002.002-.002.002-.002.002-.002.003-.004.002-.003.002-.003.001-.002h.001l.001-.001h.004l.001-.001h.001l.002-.002v-.001l.001-.001v-.008h.001l.001-.001h.004l.002.002.001.002.002.002.002.001h.002l.001.002.002.002.003.004h.001l.005.002.002.002.002.001.001-.002h.001l.003-.003.007-.005.003-.001h.003l.003-.001h.007l.006-.001h.003l.002.001.002.001h.004l.003.001h.001l.007.005.002.001.001.001h.001v.004l.001.003h.001v.001l.001.002.001.005.001.004.001.001v.001h.002l.005.001.005.001h.003l.002.001.004.002.005.001H3.483l.003.001h.003l.002-.003.002-.002h.012l.003-.003h.008l.002-.002.003-.003v-.002l.002-.003V7.28l.001-.001v-.003h.001l-.001-.004-.001-.001-.001-.001-.001-.001-.001-.001h-.003l-.003-.001h-.002l-.001-.001v-.002H3.51v-.001h-.001l-.001-.001-.001-.002v-.004l-.001-.001-.001-.002-.002-.002v-.004l.001-.001v-.001h.003l.002-.002h.001l.002-.002h.005V7.24h.001v-.006l.001-.001.001-.001h.006v-.001l.006-.003h.003l.001-.001v-.001l.001-.001.002-.003v-.001h.004l.002-.001V7.22l.002-.003v-.001l.002-.001h.002l.002.002h.002l.002.001h.002l.002-.002.001-.003v-.001l.002-.002.002-.002.004-.003.002-.001h.001l.003-.002h.001V7.2h.001v-.002l.001-.003h.004v-.001l.002-.001.003-.004.002-.002h.004V7.18h.004l.002-.001H3.6v-.003l.001-.003v-.01l.001-.001.001-.001H3.613l.002.001h.001V7.16l.002-.002.004-.004.003-.003.001-.002.001-.001.002-.002h.003l.004-.003.006-.003.003-.002h.003l.001-.001h.001l.004-.004.006-.006.001-.001.001-.002.001-.002.001-.001h.006l.002-.001h.001l.001-.003v-.001l.002-.002.002-.002h.002l.002-.002h.002l.001-.002v-.014l.002-.004.002-.002h.003l.004-.002.002-.001.01-.007h.001l.004-.001.002-.002.006-.006.002-.003.001-.002v-.002l.002-.002.003-.002.002-.002h.002v-.002l.002-.003.003-.004.001-.001.001-.001.005-.003.003-.002.002-.002.001-.003.002-.003.004-.008.001-.002v-.008l-.002-.002-.003-.005v-.003H3.75V6.995l-.001-.001v-.002l.001-.001V6.98h-.003l-.003.001h-.007l-.001.001h-.002l-.006-.003h-.003l-.004-.002H3.72l-.005-.003h-.002V6.97L3.71 6.97v-.005l.002-.002v-.008l.002-.003v-.005l.001-.002V6.94h.002l.001-.001.001-.002.005-.004.002-.001.001-.001-.001-.002-.001-.002v-.002h-.001v-.007l.001-.003v-.001l.007-.023.01-.03v-.001l.001-.001h.001l.054-.014h.008l.005.005.013.01.006.006h.002l.003.001h.003l.003.002h.007l.005.001.009.002.006.001.01.003v-.001l-.002-.006-.005-.012-.003-.008v-.003l-.001-.004v-.003l.002-.014V6.82l.001-.003v-.002l.002-.001.003-.004.004-.004.001-.002.002-.002.001-.003v-.002l.001-.005V6.79l.001-.001.003-.003.003-.005.001-.002.002-.005.003-.007.001-.003.001-.004.016-.023.003-.006.003-.005.002-.004V6.713l.002-.007v-.002l.002-.001.002-.002.004-.004.004-.004.005-.003.007-.003.004-.002.003-.001.002-.002.001-.002.002-.001.002-.004.002-.004.002-.004v-.001l.006-.006.003-.001.006-.005.004-.005h.001l.002-.001h.006l.002.002.005.002.004.003h.004l.001-.001.002-.001.002-.001h.002l.004.001h.008v.001l.002.001v.001l.001.001v.004l-.001.001v.002l.001.001v.001l.002.001v.003h.001v.007h.001l.001.001v.005h-.001v.003h.002v.007h.001v.003l.001.002v.004l.001.002v.005h.001v.002l.001.003v.012l.002.003v.004l.002.002h.001v.005h-.002v.005h.001l.001.002v.002h.001l.001.001v.004h.002l.002.001.003.001v.001l.001.001H4.073l.001.001h.005l.001-.001h.002v-.001h.005v.001l.001.001v.001l.001.001v.001h.001l.002-.001h.002l.001-.001v.002h.003v.001h.004v.001h.005v.001l-.001.001v.001l.001.001h.001v.003h.003V6.77h.002v.002h.004V6.77h.001l.001.002v.002h.001v.002h.001v-.001h.002v.002H4.12v.001h.001l.001.002v.001l.001.001h.001v.003l.002.002v.001h-.001v.008h.003l.003.001h.003v.004h.002v.001h.002v-.001h.005l-.005.007-.007.008-.007.01-.003.01-.002.012-.003.01.003.01.004.011.006.01.004.012-.004.01v.012l.002.01.003.011.004.011.006.01.006.009.008.008.006.009.004.01.007.01.009.008.01.005.007.01v.013l-.01.007-.01.005-.01.006-.01.005-.009.006-.006.01-.004.011-.007.01-.001.01-.001.011-.003.013.004.01.006.01.008.008.008.007.01.003.012-.001.012-.001.012-.001.01.002.013.002.011.003.011.004.013.006v.025l.001.013.004.011.006.01.006.01.005.01.004.01.008.007v.013l-.005.01-.003.012.005.01.004.013-.004.01-.003.012-.002.011-.004.01-.005.012-.004.01v.022l-.002.012-.008.01-.006.01-.007.01-.01.006-.006.01-.006.013-.006.01-.009.006-.009.006-.01.006-.006.01-.004.01v.024l.005.013.005.012.002.01.005.01.004.011.004.011v.012l-.003.01-.002.013.003.01.006.01.006.01.008.008.003.01-.004.014.007.008.012.007.011.003.011.003.01.004.011.003.01.002.011.002.011.004.01.004.01.003.015.004.01.003.011.004.012-.001.01.005.013.002.012.003.01.006.004.012-.01.007h-.01l-.01.005-.003.011v.011l.004.011h.011l.013-.002.008.012.006.011-.003.012-.008.008-.004.011-.001.011-.002.014v.011l.002.011.009.007.009.006.008.007.01.006.012.008.01.007.01.006.012.006.011.006.01.005.013.004.01.005.013.003.011.002.014-.004.01-.009.008-.008.01-.006.014.004.01-.003.012.006v.011l.015.004.012-.001.011-.005.01-.002.009-.008.01-.006.009-.009-.001-.013v-.014l.01-.005.011.003.008.01.003.013.012-.001.01-.007-.008-.008-.008-.007-.007-.009-.004-.011.003-.011.001-.013-.013-.01-.008.008-.009.01h-.025l-.012.002-.01.007-.01.008-.01.007H4.65l-.012-.003-.013-.004-.006-.01.008-.012.01-.007.01-.007.01-.006.01-.006.013-.007.01-.006.01-.006.012-.007.018-.01.01-.006.01-.005.012-.006.01-.005.01-.006.009-.006.014-.008.01-.006.01-.006.009-.006.009-.007.01-.005.008-.007.01-.007.01-.007.01-.01.006-.01.006-.01.007-.01.012-.016.006-.016.003-.011.002-.011-.001-.011-.004-.011v-.013l-.006-.01-.001-.015v-.013l-.001-.01-.003-.011-.003-.011-.002-.013-.002-.01.001-.012.006-.01.006-.015.002-.01.007-.01V7.478l.01-.01.009-.008.008-.007.009-.008.009-.007.008-.008.009-.007.008-.008.009-.008.007-.009.006-.01.007-.009.01-.012.007-.012.005-.01.002-.01.005-.01.006-.01.004-.01.006-.012.005-.01.006-.01.006-.01.006-.01.006-.01.006-.01.007-.01.005-.01.006-.01.006-.01.005-.01.006-.01.006-.01.005-.01.008-.008.009-.008v-.003l-.001-.001.002.001.002.001h.004v-.002h-.002v-.002h.003l.003-.002.001.001v.006l.002.001.002.003h.002l.001.003H5.19v.002h.002l.004.001h.002v.003h.007l.001.001v.003h-.002l-.002-.001H5.2v.003h.003l.005.001.006.002.001.001-.004.004v.002H5.22l.002.001h.002v.002H5.22v.002h.002l.001-.001.002-.001h.003l.002.001v.001l-.001.002v.002h.003l.002-.002.002-.002h.001l.002.003-.002.003h-.003v.001h.002l.001.001h.001l.001-.001v-.003l.002-.001h.002v.003l-.003.002-.002.001v.002h.004v.001h-.002v.002h.005l.002-.002.005-.002.001-.002h.002v.004l.006.002h.002l.002-.001h.003v-.001h.001v.003h.004v-.003h.002v.002l.001.001v.002H5.27v.001l.001.004H5.281l.002.002h.002v.001l-.002.002V7.2h-.005l-.001-.001v-.002l-.001.001v.003l.001.001h.004l.003.002.003.004.004.002h.002l.003-.003v-.004l-.003-.001H5.29V7.2l-.001.001h-.001v-.003l.003-.002.002-.002.002-.001.001-.003H5.3l.003-.002.001-.002h.001l.002.011V7.2l.003.002h.002l.002-.004.001-.003h.001V7.2h.002l.002-.002v-.003l-.002-.004V7.19h-.004v-.006l.002-.001h.002l.005.002h.004v-.003l.003-.002h.001v-.001l-.002-.002h-.002l-.001.003-.002.002h-.001L5.32 7.18l-.001-.003v-.001l.002-.002.001-.001.003-.001h.003l.004.002v-.002l-.001-.005-.001-.001h-.001v-.001l.001-.001h.008l.001-.001v.002l.004.002.004-.001.003-.003.001-.005h.001v.008h.005l.002-.003v-.001l-.003-.004v-.001l.002-.002h.01l.003-.002V7.15l.004-.003.004.003v-.005h.002l.003-.003.004.005.003-.006.006-.002v-.001l-.001-.001-.002-.002H5.39l.001-.003.004-.002h.004v-.011h-.004l-.002.002H5.39v-.002l.003-.004.002-.001h.001v.001l.001.001H5.4l.001-.003v-.002l.002-.001.002-.002.002-.002v-.002H5.4v-.001l.002-.002.002-.001.002-.001h.003l.001.002.002.001h.002v-.005h.002l.002.001h.002v-.002l-.001-.001h-.004v-.003h.012v-.003h-.008v-.004h.002l.001-.002.004-.002.001-.002v-.001h-.003v-.003l.002-.002h.005l.002.001h.003l.002-.001h.002V7.07l-.001-.002v-.002l.001-.001h.002l.002.002.002.003v.002l-.001.001v.001h.002l.002-.002.001-.002h.003v-.002l-.002-.002h-.002l-.001-.001v-.002l.002-.002h.002V7.06h.002v.001l.003.001h.003V7.06l-.001-.001-.002-.002v-.001l.001-.001h.006v.004h.003v-.005l-.001-.002V7.05l-.002-.002v-.003h.002l.002-.001v-.002h-.004V7.04h.002l.002.001.002.001h.002l.001-.001V7.04l-.001-.001-.002-.001h-.001v-.002l.001-.001.002-.002v-.001H5.47v-.003l.003-.004v-.001h.001l.003.001.004.003h.001l.002-.002V7.02h.004v-.002h.002v.004h.006l.001-.002v-.003l.001-.003h.005l.001.003v.002l-.003.002H5.5v.001l.002.004h.004l.007-.006v-.001l-.001-.002-.002-.001V7.01l.002-.001.001-.001v-.002h-.004l-.001-.002-.001-.003v-.002h.007l.002-.002v-.005l-.003-.001h-.006l-.002.004-.002.001-.001.001v.005l-.002.002v.003h-.002l-.001-.002.001-.006.001-.002.002-.003.002-.002.002-.004v-.001l-.002-.001.002-.003.005-.005h.002v.001l.001.001h.001v-.002l-.001-.002-.002-.001H5.499l.001-.003.002-.002h.002l.004-.002.002-.002.001-.002v-.005h-.003l-.002-.001h-.003l-.001.002v.002h-.003v-.005l.002-.002v-.003l-.002-.002v-.003l.001-.002.001-.002.002-.002h.003v-.002h-.003L5.5 6.94l-.002.001v.002h-.001l-.001-.001V6.94h.001l.002-.002.002-.004h.005l.001.002h.002v-.002l-.001-.003-.001-.004-.001-.002-.001-.001V6.914h-.002l.001-.001.003-.001.002-.002-.001-.002h-.007V6.898l.002-.002v-.003H5.5l-.002.002V6.9l-.001.002h-.002V6.9l-.001-.002.002-.003.001-.002.001-.002v-.004l-.002-.001V6.88l.001-.002.001-.001.002-.001v-.001h-.001l-.002-.001h-.002l-.001-.001v-.005h-.001l-.002.001-.002.002h-.001v-.004h.001l.002-.002h.004l.002-.002v-.002h-.005l-.002.001h-.001V6.86l.003-.002h.004v-.001h-.001l-.002-.001H5.49v-.002l-.001-.002-.001-.001v-.004h-.002v-.001l-.002-.001h-.002v.007h-.001L5.48 6.85v-.004l.001-.005v-.005h-.003v.001l-.002.003v.002h-.001v.001h-.002v-.001l-.002-.005v-.002l.001-.002h.003l.002-.001h.002V6.83h-.012v-.002l.002-.002h.007v-.004H5.467l-.004.002h-.003v-.002H5.46l-.002-.001v-.004l-.001-.002H5.471v.002h.001v-.002l.001-.002v-.001l-.002-.002-.002-.002v-.002l.001-.002h.004l.001-.001v-.002h-.003l-.004.002-.003.001h-.001v.005l-.001.001-.001.001H5.46l-.001-.004v-.005l.001-.001V6.8H5.46l-.001.001h-.002V6.8l.001-.003v-.005h.002l.002-.002h.003v-.005l-.001-.002H5.46V6.78l.002-.001h.012l.002.001h.002v-.002l-.001-.004-.002-.002v-.006h-.002l-.003.003v.002h-.003v-.003l.002-.001v-.001l-.001-.001h-.002v.002l-.001.002v.002l.001.002v.001h-.004l-.001-.002v-.005l.002-.001.005-.003.003-.003.003-.001h.002v-.002l-.002-.001h-.002l-.004-.002h-.005v-.001H5.46v.002h-.002V6.75l.001-.004.003-.002.003-.004h.003l.002.002v.001h.002v-.006l-.002-.001H5.47l-.007.002h-.002v-.005h.008l.004-.003.002-.002v-.005l.003-.002h.004V6.72h-.003l-.001-.002-.002-.001h-.003v-.001l.002-.002h.005v-.002l-.002-.001h-.002l-.002.001-.002.001-.001.002h-.002v-.002l.002-.001.002-.001.005-.003h.004l.002.001h.002l.001-.001.001-.002.001-.003v-.002h-.004L5.483 6.7 5.481 6.7H5.48l-.001.004h-.005L5.471 6.7v-.003l.001-.003.002-.002.001-.002h.002l.004.001h.001v-.004H5.48l-.002-.002h-.005l-.001.001v-.002h.004l.003-.001h.004v-.006l-.001-.001H5.48v-.002h.003l.004.002h.002v-.004l-.002-.002-.001-.001v-.002l.002-.001h.002l.001-.004.002-.001H5.5l.002-.002-.002-.001v-.001l-.002-.002v-.012h-.004l-.002.003H5.49v-.001l.002-.004V6.64h-.003l-.001.001h-.001V6.63h.002l.002-.001.001-.002.002-.001.002-.001.003-.001V6.62l-.004-.002-.002-.001v-.002l.002-.002h.003l.003.001h.004V6.606l-.001-.004V6.6l-.001-.002v-.002h.005l.001.001v.001l.002.002.001.002.002.003.001.002v.001h-.006v.003h.004l.002-.001.003-.002V6.594l.002-.002h.002v-.004l-.01-.005-.002-.001V6.58h.003l.001-.002h.006v-.004l-.001-.003v-.005l-.002-.004v-.001l.001-.003.001-.001.001-.002h.004v-.001l-.002-.001-.001-.005v-.005h-.003l-.001.003-.001.002h-.004l-.001-.001-.001-.001v-.004l.002-.002h.007l.002-.001v-.004l-.001-.003-.002-.003v-.006h-.002l-.002.002h-.001v-.002l-.001-.002v-.002h.003l.001-.001.002-.002V6.505h-.003l-.001-.001V6.5l.001-.001.003-.001h.003l.002.003.002.001h.01v-.005h-.002l-.002-.003H5.53l-.002-.001-.002-.002h-.002V6.49l-.002-.001v-.003h.006l.002.001h.005l.001-.001.002-.001h.002l.001.002h.001v-.001l.001-.001v-.003l.003-.001.002-.002.001-.002.002-.002-.002-.002h-.004v.001h-.003l-.003-.001h-.001l-.001-.001v-.006l.002-.002v-.003h.001l.002-.002h.002l.001.002v.005l.001.001h.004l.001-.001.001-.001V6.46l-.002-.002h-.002l-.001-.003v-.004h.004l.002.002h.001V6.45h.001l.001-.003v-.002l-.002-.001h-.001l-.002.002h-.003v-.001h-.002v-.004H5.56v-.004h-.012v-.003l.001-.002h.003v-.001h-.001v-.003l.001-.002h.002l.002-.003v-.002l.003-.001h.002v.001l.001.002h.001l.001.002h.002l.001-.002v-.001l-.001-.001-.001-.002v-.004l-.002-.002v-.002l.002-.001h.003v.002l.001.001h.002l.001-.001v-.001l.003-.001.002-.001v-.002l-.002-.001-.001-.001-.001-.001-.002-.002V6.4L5.57 6.4v-.006h-.002v-.001l.002-.002h.002l.006-.001.002-.001.001-.001v-.002l-.001-.001h-.003l-.001.001h-.004v-.004l.001-.002.002-.003h.003l.002.002h.005v-.004l.002-.001.002-.001.002-.001V6.37l.001-.002v-.005h.002l.001.002H5.6v-.007l-.002-.001h-.003l-.001.003-.002.001h-.002V6.36h-.001l-.001-.002-.001-.003V6.35h.012l.001.001v.001l.001.004h.002l.002-.001v-.002l.002-.001h.001l.002-.001.001.001v.001h.002l.004.001.003.001h.002v.001h.002v-.001l.001-.002v-.006l-.002-.002v-.002l.002-.003.001-.001.002-.002h.002l.001.002.001.001.002.001h.002v.002l-.002.003v.002h.002l.001.001h.001l.002-.002V6.34l.001-.001h.002l.001.002v.003l-.001.002-.002.001v.003h.002v-.002h.002l.002-.002h.005v-.001l-.001-.002-.001-.002.001-.002h.002v-.002l.002-.003.002-.003.001-.001.001-.001h.002l.002-.001.004-.002h.004v-.002l.001-.002.001-.002.003-.001h.005v.002l.001.002v.006h.002v-.003h-.001v-.001l.001-.001v-.002h.001l.002-.004v-.003l-.004-.004V6.31l.004-.001.003-.003h.002l.002.004.002.004.002.002.002-.002v-.007l-.003-.005H5.7l.003.001.001.001h.005l.002.002h.001l-.002-.004-.002-.001.001-.001h.003l.002.002.001.001.003-.001.003.002V6.3l-.002-.004v-.003l.002-.001h.002l.002-.001.001-.004.003-.001v.004l-.001.002v.001l.001.002.001-.001.001-.002v-.005l-.001-.002v-.001h.003l.002.001v.004l.001.001h.002V6.29l.001-.002.002-.003V6.28l.002-.001h.005v-.003l-.002-.001-.001-.001V6.27h.003l.001.002v.002l.001.003h.001l.001.002h.002l.002.001v.002l-.002.002v.001h.004l.001-.001.002-.002V6.28l.002-.003.001-.002h.003v.002h.002v-.003l-.001-.001-.002-.001v-.002l.001-.001h.002l.002-.001h.003l-.003-.001-.002-.002-.002-.001V6.26H5.776v.008h.002l.003-.004.001-.005.001-.001.002-.001h.001l.001.001.001.002h.003l.003-.002h.002v-.002l-.002-.002-.001-.001V6.25l.002-.001h.001v-.002l-.001-.001h-.003v-.002l.001-.001h.003l.001.003h.006v.006h.002l.002-.003.001-.002h.002v.001h.002v-.007h.002l.003-.001.001-.001h.002l.001.001v.002l.001.002h.002l.002.001v.002l-.002.004v.001h.003l.002-.002h.011l.001.004h.002v-.002h.001l.002-.001h.004l.002-.001.002-.002v-.005l.002-.005v-.005l-.001-.003-.003-.002-.005-.008-.002-.004-.003-.006-.001-.003v-.004l.002-.006.006-.006v-.006l-.002-.005-.005-.005v-.004l.003-.002h.003l.003.002.003.003.004.007.002.002h.002l.003-.003V6.162l.001-.006.003-.002.005-.001h.005l.009.001.005.003.007.012.004.004.006.001.007-.001.003-.005v-.006l-.003-.007-.01-.009-.015-.008-.007-.007-.002-.006.002-.008.008-.009.013-.004.017.001h.005l.006-.003.003-.007v-.021L5.93 6.07l-.003-.004V6.06l.004-.01-.001-.005-.005-.004-.007-.001-.005.003-.006.002-.005-.002-.004-.003-.003-.01-.003-.007-.005-.003h-.005l-.003.002-.003.004V6.04l-.004.003-.004.001h-.003l-.003-.003V6.032l.01-.01.005-.011.005-.005L5.884 6l.002-.01.003-.011.005-.005.007-.003.004-.002.012-.007h.004l.007.002h.003l.002-.003v-.006l-.001-.006-.005-.005-.013-.005-.006-.004-.002-.005v-.007l.007-.006.002-.004v-.005l-.004-.011.001-.004.006-.003.01-.003.005.003.005.007.004.004h.005l.005-.003.003-.007v-.009l-.003-.008-.008-.006h-.009l-.007.002H5.92l-.006-.004-.003-.007v-.03l.002-.013-.002-.004-.003-.009v-.007l.002-.005.006-.002h.008l.01.006.006-.001.004-.005v-.005l-.003-.006-.005-.002-.007-.012V5.76l.001-.003.003-.005.004-.009.004-.004.004-.001.013.005h.003l.002-.003-.002-.007-.003-.007v-.01l.002-.008.002-.008.005-.004.005-.001.008-.005.005-.003H6.007l.008.008.007.008.001.007.003.006.004.006.013.012.003.002.005.002H6.06l.006-.006.002-.005v-.004l-.004-.009V5.7l.004-.004.012-.008.006-.003.004-.002.002-.003.001-.007-.002-.013-.017-.022.002-.014.015-.015.018-.005.022-.002.009.001.005.005.006.004.004.001h.003l.002-.001.002-.002.002-.005v-.011l.005-.008.002-.006v-.005l-.001-.005v-.005l-.002-.008v-.02l.002-.01.01-.011.013-.014.003-.011.003-.01.025-.033.02-.036-.002-.04-.015-.018-.02-.021-.004-.01-.009-.01-.005-.015-.008-.023-.003-.009.007-.031.014-.012.026-.004.027-.002.014-.007.029-.025.011-.011.006-.016.002-.025.002-.013.005-.009.008-.005.01.002.01.008.004.012V5.146l.001.004.005.005h.009l.01-.004.006-.011.001-.017.005-.01.013-.007.006-.003v-.008l-.003-.006-.01-.005-.007-.003-.003-.005V5.07l.004-.004h.008l.016.001.027-.009.01-.006.004-.008.003-.016-.004-.017-.01-.015-.002-.018.003-.01.004-.004.004-.015.007-.015.003-.009-.005-.003h-.006l-.006.007-.012.007-.037-.02-.001-.013.004-.018.007-.013.015-.006.028-.004.018-.008.02-.014.004-.013v-.022l-.013-.012-.003-.023-.01-.015-.019-.02-.016-.013-.018-.003-.012.007-.014.002-.008-.002-.005-.009.001-.005v-.01l-.003-.013v-.012l.005-.016.023-.032v-.023l.022-.015.004-.01.001-.01.01-.023v-.022l.009-.016.012-.051.03-.02.018-.012.018-.021.019-.012.01-.018.018-.021.007.016.002.005.004.008.005.006.019-.013.01-.006.012-.006.002-.003.006-.003.005-.006.003-.003h.022l.004.002.006-.004h.001l.006-.002h.014l.009.005.002.002.006.003.006.002h.005l.007.005h.006l.006-.002h.002l.006.002h.005l.014-.001.004-.005.003-.001h.003l.003.002h.017l.014.002.01-.003.006-.003.003-.002h.006l.001-.005.003-.004.001-.005.001-.002.004-.001H6.865l.004-.008.002-.01h.047l.002.001.011.005h.008l.01-.003.007-.005.012-.014h.006l.011.011.012.007h.037l.008-.006.001-.003.005-.002.014-.01.012-.01.014-.008v-.002l-.003-.002-.001-.003v-.002l-.003-.006-.004-.006v-.005l.003-.005.004-.004.008.004h.004l.003-.001.004.002.002-.005.003-.003h.001l.003-.004v-.002L7.11 4.23l.004-.012v-.02l-.004-.006v-.002l.004-.008.008-.014.005-.007.01-.01-.001-.007-.006-.01h-.001l-.004-.005v-.012l-.003-.003V4.11l.003-.004v-.004l-.006-.01-.002-.001-.008-.007v-.004l.003-.007v-.002l-.002-.007-.003-.004.003-.008-.008-.008-.01-.013v-.003l-.011-.005v-.009l-.004-.007-.001-.002-.005-.004-.006-.007-.007-.004v-.007l.002-.012.004-.011.01-.01h.008v-.008l.002-.002.009-.002-.003-.011.007-.013.007-.015.009-.014v-.005l-.005-.002-.005-.011-.004-.005.006-.008.003-.006-.006-.015-.003-.005-.006-.005-.002-.002-.003-.005V3.803h.005l.002-.007.005.002.004-.001.007-.001.005-.002.004-.006.004-.005.003-.009h.008l.004.01.009.002.001.01.003.005v.002h.006V3.8l.005-.002.003.001.005.003H7.18l.005.005h.002l.005-.004.009-.004.009-.002.005.001.008.006.002.002h.004L7.23 3.8l.002-.003v-.006l.002-.004.002-.003v-.001l.002-.004.005-.005.002-.004.002-.003.002-.001.004-.007.003-.001.007-.002V3.744l-.003-.01.002-.012-.008-.006v-.004l-.005-.005.005-.015-.002-.001-.001-.002v-.004L7.25 3.68V3.672l.004-.004.004-.007v-.005l.008-.004h.005l.003-.002.002-.002.005-.007v-.008h.008l.002.002.005-.003h.023l.005.003h.002l.002-.002h.003l.002-.003.008-.004.005-.005.001-.002-.004-.005-.002-.007v-.005l-.003-.003-.002-.005v-.017l-.004-.004.003-.002.01-.006.002-.004.005-.015.002-.007.005-.009.007-.006.004-.002.007-.001.006-.003.009.004.005.001.006-.007.004-.001h.016l.006-.003.006-.005.003-.004h.011l.008-.01.004-.003.006-.001h.006l.008-.003.003-.001-.001.006.003.011.004.007.003.008.002.004.002.003h.005l.004-.002.005-.005v-.003l.007-.007.006-.002.006-.007v-.003l.004-.003.007-.004-.001-.005v-.002l.002-.003.004-.002.004.001.004.003.002.001h.002l.001-.002.001-.002.002-.004h.006l.001-.004.001-.003.005-.009v-.006l.003-.006h.004l.01.004h.006v.007l.004.007.004.004.005-.004.006-.003h.003l.005.004V3.48l.003.004.004.002.002.005.004.002h.003l.006.004.002.001.003-.001.003-.005.003.002h.011l.003.001.003.004.003.01.003.004.002.001.002.001h.002l.002-.003.003-.002.003-.001h.001l.006-.003H7.72l.003-.001.005-.005.004-.002.005.002h.01v.006l.001.007.004.002h.004l.004-.003h.008l.003.003h.002l.008-.005.002-.001.004-.001V3.5l.01-.009.003-.004.002-.007.002-.014v-.002L7.8 3.462l-.002-.004-.002-.005v-.015l.004-.004.002-.002h.008l.005-.004.005-.005h.011l.005-.003.001-.002.004-.004.004-.006h.003l.005-.001.008-.01v-.01l.003-.006.012-.013h.001l.002-.004.005-.001.006.004.002.007.01.004h.016l.003.005h.005l.017-.002.004.001.014.014h.005l.007.006.003.003v.002l.001.006v.002h.004l.005.003.002.001h.001l.003-.002H8l.002.002.003.002h.004l.003.007v.012l.001.002.004.003H8.026l.003.002.004.007.002.002.004.001h.003l.003-.001.001-.001.004-.002h.004l.002-.002v-.005l.002-.008-.003-.01v-.005l.004-.003h.007l.005.009v.008l.002.006.007.004.002.004.003.004H8.094l.004-.002.003.002.002.003h.011l.009-.006h.004l.004.001.003.002.002.001.002.002v.01l.003.002.003.003v.002l-.005.007-.002.005-.003.003-.002.007-.004.003v.002l.003.002v.015l.002.002v.005l.002.002h.005l.007.006.002.003.002.002h.002l.002.004.006.006.005.003.005-.001.016.007-.001.01-.001.002-.004.001v.001l.002.002h.006l.006.005.001.002v.008l.005.006h.012l.001.002.002.004v.007l-.003.005v.004l.004.001.004.001.003.003v.004l.001.005.004.001.004.002.004-.001.002-.001.005.002h.003l.004-.005h.003l.006-.003.006.007.003.003h.003l.007.002.004.004.004.003.005.01h.006v.003l-.004.005.001.003.003.002v.002l-.003.005-.005.009-.001.005-.01.006-.003.003-.006.006-.003.005h-.004l-.005.004h-.001l-.006.001-.001.003v.004l-.002.003v.003l.002.001v.003l.001.013v.002l.004.005.003.005.001.004.005.007.001.004v.003l-.003.004v.002l.002.003-.003.005v.002l-.002.003H8.25l-.007-.004-.007.001H8.23l-.005-.004-.003-.004-.003-.002h-.005l-.002.004-.003.008-.002.004L8.2 3.8v.008l.001.006-.002.012.002.006v.002l-.001.004-.001.002v.007l-.003.005-.001.002v.006l-.003.006v.003l.003.003h.002l.003.003.002.004.001.002.007.002.003.002h.004l.003-.002h.006l.007-.006.005-.003.007-.003.004.001.007.004.002.001h.003l.007-.004h.005l.011.003h.002l.002-.002h.006l-.002-.006.003-.006V3.86l-.002-.005.001-.005v-.005l.001-.002H8.3l.006-.007.005-.003h.002l.004.002.008.006.004.001h.004l.004.002.006-.002.006-.003h.002l.006.002.006-.005.005-.002.008-.004.009-.008.003.002.008-.002.003-.001.01-.015.002-.001h.004l.005.001h.002l.002-.001.007-.001.004-.003.005.001h.004l.005-.004.005-.002.003-.006.004-.006.005-.002h.004l.004-.002.005.001.003.004h.003v.004l.003.006.004.006v.007l.001.006.01.003.007.001.001.004.003.005-.003.006.004.001.01-.004.009-.005.003-.002h.004l.004-.005.01.005.004-.001.007.006h.003l.004-.003.011-.009.004-.006h.005l.004.002.008-.006h.005l.005-.002.009.005h.014l.006-.002h.009l.008-.001.003-.004h.006l.005.007h.008l.002-.002h.004l.003.003v.005l.002.005v.001l-.003.003v.008l-.001.005.003.004-.004.006h-.005l-.007.002-.006-.004-.006.005-.01.004-.001.007-.01.002-.007.004-.005.007v.017l.003.003.01.003h.008l.006-.001.004-.003h.011l.007.004h.006l.004.002.008.007.003.004.01.008.002.001.01.001.003.002.004.003h.003v.005l.01.008.003.009.008.003v.007l.002.003-.001.012-.004.01.003.006.003.002.002.004.002.004v.006l-.002.006v.003h.002l.012.003-.002.008.01.012.001.005.006.004.002.004h.028l.006.004.004-.002.005.002h.003l.004.003.005.003h.003l.005.002h.011l.007.01h.01l.001.005.002.003.006.003.005.003.001.002.005-.002.007.002.002.004v.002h.002l.002.001.004.003.003.005.006.002.007-.002.005-.006h.012l.008.005.009.001.003.003h.001l.002-.004.002-.004v-.003l.002-.004.007.005.005-.006v-.004l.001-.006.003-.002.008-.01.007-.003.001-.008.002-.001.005-.002.002-.001.002-.003v-.011l.002-.004.005-.002.004-.003.002-.003.002-.002h.002l.005-.002.002-.001v-.009l.001-.002.002-.006v-.002L9.052 4v-.007l.003-.007V3.98l.002-.002h.005l.002-.003h.002l.005.002.005.002h.008l.008-.001h.003l.002.003.008.012.004.003L9.11 4h.007l.007.006.004.002.002.001v.005l.002.003.002.004.001.007.004.005v.001l.004.002h.001l-.001.014v.002l.007.007.007.01v.008h.002l.005.003.002.002v.006l.005.002.004.004h.003l.007.005.007.002h.004l.007.004.007-.003h.007l.003.004.001.003.003.005v.004l.006.004h.003l.005-.002.004.002.01-.002h.005l.003.005.002.002.003.013.005.003h.011l.011-.006.004-.004.006-.01h.002l.004.003h.003l.001.003.003.004.003.001h.005l.005-.004h.003l.003.001.006.002.007.002.009.005.005.001h.003l.002.001h.008l.007-.002h.002l.006.005H9.4l.003.003.004.003.003.002.004.005.002.001.004.003.003.002.002.001.002-.001.008-.01.006-.01v-.008l.002-.002.002-.001.004-.004.007-.004.004-.002-.004-.006-.002-.004-.002-.003v-.002l.01-.01v-.006l-.004-.008-.005-.008.002-.002.005.002.005-.002.005-.002.005-.009h.015l.006-.004v-.002l.004.001.005.003.01-.001.014-.006.003-.002v-.003l.005.002.004.001.005.002.003.017v.006l.004.007.005-.001.005-.002h.021v-.001h.007l.009.017H9.6l.003-.003.007-.001.006-.005.002-.002.002-.003.004-.001h.003l.01-.002h.007l.014.003v.006l.005.006v.01l.01.01.003.005v.003l.003.001h.012l.004-.002.004-.007.002-.001.005-.002.008-.004.004-.002h.001l.003.002.003.001.005.003v-.003l.002-.002.004.002h.002l.001-.002.001-.002h.003l.002-.002.005-.005.001-.007.004-.006.006-.01V4.07l-.002-.004-.003-.008v-.004l.003-.005.002-.004.002-.004.002-.003H9.78l.008-.005.008-.007.003-.007.006-.001h.005l.003.004v.002l.004.006h.003l.004-.001.006-.004.007-.002h.005l.005-.007.003-.003.005-.002.003-.001.003-.003L9.865 4l.002-.004h.01l.004.002h.002l.002-.003V3.986l-.002-.003-.003-.004v-.007l-.003-.003-.002-.003v-.005l.004-.005v-.002l-.002-.003v-.002h.008l.005-.002h.005l.003.004.003.001.005.001.005.002h.001l.003-.004.002-.005v-.003l.004-.002.003-.003h.008l.004-.006.003-.007.001-.002.005-.002.002-.002h.005l.002-.002v-.003l.008-.007.001-.003-.002-.005v-.003l.001-.006.003-.007v-.006l.002-.009.004-.008.003-.005.006-.006V3.84l.004-.01.002-.003.012-.003.002.002.006.007.006.004h.006l.001-.002.001-.002h.025l.005.004.006.005.004.001h.002V3.834l.005-.006.004-.004.002-.003v-.004l-.002-.004V3.81l.002-.007v-.002l-.002-.003-.001-.004V3.79l.003-.001.003-.001.002-.001v-.012l.002-.002v-.007l.002-.001H10.091l.007.002h.002l.005-.005.003-.001h.003l.003.002h.006l.005-.002.002-.003v-.011l.002-.003v-.001l.004-.006.002-.005.003-.001h.004l.003-.003.003-.003v-.003h.004l.004-.004.003-.004.008-.006.007-.008v-.006l-.001-.002.002-.003V3.68l-.003-.007-.002-.004-.002-.001h-.007l-.002-.002-.001-.002-.002-.002-.004-.003h-.004l-.005-.002-.004-.001-.005-.007v-.008l-.002-.001h-.001V3.64h-.003l-.002-.001-.001-.001-.001-.003-.001-.004-.002-.002-.002-.002-.003-.001h-.002l-.002-.002V3.61l-.002-.003v-.003h.001l.006-.005.005-.003v-.004l.003-.005v-.004l.001-.002.003-.002.006-.007.002-.005v-.002l-.002-.003v-.003l.001-.005V3.55l-.004-.007-.002-.002h-.002l-.002-.003v-.002l.005-.003.003-.002.002-.003.003-.002.002-.001.001-.002.001-.002.003-.007v-.003l-.002-.001v-.004l.002-.002v-.002l.002-.006v-.004l-.001-.002-.002-.001-.004-.001-.001-.002v-.001l.002-.004.001-.008v-.006l-.002-.003V3.46l.002-.004v-.001l-.003-.002-.002-.002v-.005l.002-.002.003-.001h.002l.002-.003.005-.004.004-.004.003-.004.004-.003.004-.005v-.008h.002l.003-.002.004-.009.002-.004h.014l.005-.005.002-.003.001-.006v-.002l.001-.007.003-.004v-.011l.003-.007v-.007l-.001-.003-.002-.003v-.002l.003-.004.002-.007.001-.005.004-.007.001-.005.003-.005.001-.003.004-.001.003-.005.003-.005.003-.004.002-.007.001-.003.003-.003.003-.002h.004l.006-.012.002-.007v-.004l-.004-.006-.003-.004.004-.002.008-.007.005-.003.004-.002.004-.004h.004l.006-.001.004-.004.003-.005.007-.005.004-.002.005-.002h.003l.005-.002.007.002.006.003h.001l.003.002.005.013.005-.001.006.004h.012l.008.002.004.003.016.001.004.004.004.003.006.004.002.002-.002.005v.007l.004.003.005.003.004.005.007.007.007.008.005-.004.005-.001.006.001.006.004.006.001h.011l.004-.003h.006v-.004l.001-.001.003-.003.003-.003-.002-.005-.003-.005-.005-.006v-.003l.004-.003.003-.002.002-.002.007-.003.003.002h.007l.003-.007.003.004v.002l.004.003.003.004h.019l.006-.002h.005l.001.003v.022l.004.013v.001l.002.003.001.001.004.002.006.002h.002l.005.003.003.003.002.003V3.3l-.004.006.002.003.002.003.008.007.006.005.002-.002h.001l.001.006.002.004.004.002h.007l.002.001.002.006-.003.008.005.016h.007l.003.001.011.004.004.002.002.002.005.003.008-.002.008.004.002.001.008.003.01.001.003-.001.006-.007.006-.003.006-.002.004-.001.003-.009.001-.002.004.003h.017v.001h.008l.008.005.004.001h.01l.004.002h.005l.002-.005-.002-.004-.001-.002.002-.004.004-.004v-.01l.005-.004.004-.004v-.003l.008-.005h.001l.006.003.005.002.01-.003.004-.002.003-.004.011-.007.003-.002.001-.008.004-.003.002-.002.01-.007.006-.002h.003l.003-.005.001-.004.011-.008.001-.006.003-.006.006-.006V3.248l.003-.002h.001v-.001l.003-.003.002-.004h.001l.004-.003.002-.003v-.008l.002-.005.002-.003.003.001.008-.01V3.195l.002-.005.002-.002.004-.002.002.001.001.002.003.002h.006l.009-.005.008-.01.005-.002.002-.001.006-.006h.001l.009.002h.002l.003-.003.006-.003.003-.002.004-.013.002-.003.005-.002h.001l.007.004.004-.003h.006l.004-.001h.005l.004-.005h.004l.003.002.002-.002.002-.003.001-.007h.006l.006-.007.002-.003.002-.006.006-.001h.008l.002.002.001.005.005.002.002.001.002.003h.003l.003.007h.002v.007l.001.003.003.003v.003l-.001.002v.008l.003.002h.001l.003-.003h.006l.004-.005.003-.001.004-.007h.003l.004-.004.005-.003.01-.006.003.002.003.001.002-.001.003-.004.003-.007v-.002l.003-.004h.003l.005-.001h.01l.006-.012h.008l.004.001.002-.001.008-.003.002-.004.003-.003.006-.004.002-.001h.011l.003-.003.001-.003.002-.003v-.002l.006-.002.003-.002v-.005l.001-.001h.002l.004.002.003.003.002.002.003.002h.002l.003.001v-.006l.003-.003v-.001l.001-.005.004-.002.002-.002.002-.005v-.003h.003l.004.001h.005l.005-.001.004-.004.005-.008.003-.002h.003l.002-.002.004-.01.002-.004v-.002h-.004l-.002-.003-.004-.002h-.002v-.004l-.001-.005-.002-.004.002-.002.003-.003.001-.003.003-.006-.004-.014-.002-.008-.002-.002h-.006l-.001-.002.001-.001h.006l.002-.003v-.006l.002-.001.003-.002.005-.002.002-.004v-.005l.003-.004.003.001.003.003.004.003.005.003.004.004.002.001h.004l.003.001h.004l.005-.005h.003l.004.002h.003l.003.001.003-.007v-.011l.003.002.002.002.002.001.004.001h.001l.003-.001.005-.005.006-.005.006.004h.003l.005-.003.001-.004.004-.002.004.001v-.004l.002-.004.005-.003.003-.007.008-.008v-.01l.004-.01v-.003l.006-.004V2.86l.002-.001v-.011l.002-.002.003-.003.002-.003.005-.004.008.001.003-.003.003-.001.007-.001.002-.003h.001l.012-.001h.005l.004.001.002.001v-.002l-.001-.006V2.8l.002-.003.002-.003v-.001l-.001-.001-.006-.002-.004-.001-.001-.002v-.005l.002-.005v-.003l-.001-.002-.004-.002-.006-.003-.004-.003-.003-.003-.002-.004v-.002l.002-.001h.003l.002-.002.002-.001.007-.007.008-.007.008-.001.004-.001h.001v-.003l-.001-.001-.003-.001v-.001l-.004-.003-.006-.003-.003-.004H11.5l-.003-.001v-.001l-.002-.008v-.001l-.002-.003.003-.004.001-.003.002-.002v-.002l-.002-.003-.001-.004-.002-.001h-.006l-.003-.007-.004-.006-.005-.004V2.678l-.005.008-.002.007-.004.002H11.455l-.002-.001-.002-.002-.001-.006-.005-.004-.004-.003-.002-.002-.001-.002h-.002l-.002-.002h-.001v-.001l-.004-.003h-.003l-.003.002-.004.004-.001.003h-.004l-.004-.004-.004-.005-.004-.004-.003-.003h-.005l-.002-.001-.002-.003-.001-.004-.003-.003-.006-.006v-.002l.003-.001.003-.003v-.006l.002-.004.008-.004v-.002h.006l.002-.002.004-.006.01-.007.005-.006.005-.005.004-.001.005-.002h.002l.006-.01.002-.002v-.007l.003-.008.005-.004.007-.004.003-.002.006-.003.002-.002.001-.001.002-.003.002-.003v-.001l-.003-.004v-.002l-.001-.002v-.003l-.001-.002V2.53l.004-.005.002-.002v-.008l.001-.003V2.51l.001-.001.006-.002-.004-.003v-.002l-.002-.003-.002-.001h-.002l-.005.003-.004.004v.002l-.009.007-.002.001h-.006l-.002-.003-.002-.003-.004-.002h-.006l-.004.001-.005.001-.01.003h-.004l-.003.001-.003.001-.003-.001-.002-.003v-.006l.001-.006-.002-.006v-.005l.002-.005v-.005l-.001-.002-.001-.003V2.47l.004-.01v-.006l-.003-.002-.005-.003h-.005l-.006-.001-.015-.013-.004-.004-.005-.006-.003-.001h-.003l-.012-.002-.008-.002-.012-.004-.005-.003-.003-.001-.003-.002h-.004l-.006-.003-.002-.001-.004-.005-.004-.002h-.012l-.005.001h-.008l-.003-.001h-.003l-.003.003-.002.004-.003.002-.002.003-.001.003-.002.004v.004l-.003.003-.002.002-.009.004-.004.003-.003.005h-.007l-.003.002-.003.001h-.002l-.002-.002-.003-.001h-.011l-.001.002v.01l-.001.001h-.001l-.003-.002h-.005l-.007-.004h-.002l-.003.001h-.004l-.003.006h-.001v.005l-.003.004V2.477l-.002.004-.005.003-.004.004h-.003v-.004l-.002-.003-.002-.001-.004-.002-.001-.003V2.47l.002-.003.001-.002.001-.002-.003-.008v-.001h-.008l-.003-.001-.004-.003-.002-.002-.003-.002v-.004l-.001-.002-.001-.001h-.002l-.002-.002-.003-.004-.002-.001h-.003l-.001-.001-.002-.002-.001-.002-.006-.004-.003-.002h-.002l-.005-.002h-.002l-.002-.004-.002-.008.001-.003-.005-.006-.004-.005-.001-.004v-.005l-.005-.002-.001-.001-.003-.004h-.005l-.002-.002-.01-.001-.002.002h-.004l-.003.002-.002.002v-.003l-.003-.003-.001-.003-.003-.004-.002-.002h-.008l-.005.002h-.003l-.001-.003-.001-.001-.001-.001h-.005l-.001-.002L11 2.358v-.005l-.003-.003-.002-.003-.002-.002h-.005l-.005.001-.006-.002-.006-.002h-.002l-.002-.002-.004-.008-.003-.001-.004-.002-.001-.003v-.003l-.003-.001h-.004l-.003-.002-.002-.001-.003-.002-.001-.001-.003-.007-.002-.002-.005-.002-.003-.002h-.007l-.005.002-.002.001h-.005l-.002.004-.001.002-.002.003-.005.004-.007.002h-.002l-.003.004-.004.005-.005.004-.005-.002-.004-.002-.003-.003-.003-.001h-.004v-.007l-.004-.003h-.001l-.007-.001h-.006l-.008.003-.004.002-.005.005-.004.005v.002l-.005-.003-.004-.001h-.008l-.002-.002-.01-.002h-.007l-.002.004-.002.002H10.766l-.004.004-.003.002-.004.001-.003.002h-.005l-.006-.006-.002-.002h-.006l-.003-.006-.002-.003-.006-.005-.009-.005-.006-.006-.005-.005h.011l.004-.003.003-.004v-.006h.002v-.001l.002-.003h.002l.001-.002.002-.003v-.003l.004-.003.004-.004-.002-.006.002-.005v-.006l.002-.002.01-.001.008-.009h.002l.001.001h.002l.001.001.006-.008v-.007l.01-.005v-.006l.002-.001.003-.002.001-.004h.01l.002-.008.004-.006v-.001h.006l.001-.002.007-.006.006-.008.002-.001h.01l.002-.002.002-.002V2.17l.002-.001.006-.003.004-.001h.005l.002.001h.007l.005.002.005.003h.005l.004-.002h.003l.003.002.003.002.003.001.003-.002.002-.003.003-.003.002-.002.002-.001.004.001.004-.002h.003l.004-.001.005-.004.003-.002.001-.002.004-.003.002-.002.001-.001.002-.004.002-.008v-.003l-.004-.006-.002-.004-.002-.002-.002-.006-.002-.003v-.002l.001-.008.005-.009v-.004l-.003-.002-.006-.004h-.001l-.002-.003h-.002v-.002h-.005l-.005-.003h-.003l-.004-.002H10.9l-.008-.005-.002-.002-.009-.001h-.002l-.001-.003v-.003l-.002-.001-.004-.002-.004-.002-.002-.003v-.004l-.002-.001h-.007l-.001-.001-.002-.002v-.011l-.002-.004-.003-.003v-.002l-.002-.002h-.001v-.001l-.005-.006-.002-.004-.004-.003h-.01v-.003L10.824 2v-.003l.001-.002v-.002h-.002l-.008-.002-.005-.003-.005-.005h-.001L10.8 1.98h-.006l-.005.004-.008.001-.005.001h-.003l-.003-.002h-.022l-.008-.003-.005-.005-.003-.002H10.719l-.003-.002-.001-.002v-.003l-.003-.004v-.004l.001-.006V1.95l-.002-.003-.001-.003.002-.014v-.002l-.001-.004-.002-.009-.001-.004-.002-.001-.004-.002-.003-.003v-.002h-.008L10.69 1.9l-.001-.002h-.002l-.002-.003-.002-.004-.003-.004-.003-.005-.002-.005-.001-.001-.009-.002h-.013l-.002-.002-.002-.003-.005-.002-.008-.003-.003-.003-.003-.007v-.004l-.004-.003h-.007l-.002-.001h-.008l-.003-.003-.002-.005-.002-.005H10.6l-.004-.002h-.006V1.818l.001-.002.003-.003.003-.005v-.004l-.005-.004v-.016l-.002-.012-.001-.002-.008-.003-.003-.001-.002-.003-.001-.001v-.005h.001l.002-.001h.003l.004-.003h.006l.006-.002h.006l.002.001h.003v-.001h.001l.004-.009V1.74l.005-.006H10.627V1.725l.002-.007.001-.005.002-.002.003-.004.005-.003.002-.002v-.004l.001-.007.002-.006v-.012l.004-.007h.002l.008.007.001.003h.004l.002-.002h.003l.007-.001.004-.002.004-.004.003-.005.002-.003h.002l.006-.005.002-.002.001-.002.002-.006.005-.006.002-.003.001-.003.004-.004.002-.004V1.62l.004-.005.003-.003h.002l.008-.002.001-.005.005-.008.006-.01.003-.005h.022l.007.002.007.003.004.004.004-.001V1.58l.002-.002.002-.001h.004l.006.002h.002l.003-.002H10.825l.002.002h.001l.004-.004.01.003.001-.001h.006l.005-.004.004-.003h.004l.002-.001h.006l.002-.003h.002l.004-.002.002-.003V1.55l.002-.001.001-.002v-.003l.003-.001.003-.002.001-.002v-.01l-.001-.007-.001-.003v-.001l.003-.005.003-.002h.004l.008-.001h.002l.003-.001.005-.004h.002l.003.001.007.007.01.007.004.003h.005l.003.001h.007l.005-.006.002-.004.002-.001h.005l.003-.004.001-.005.004-.005.003-.003.002-.002.001-.003h.003l.008-.001H11.005l.005.003.002.002h.004l.007.004.003.005.007.007.001.005v.002h.001l.001.004-.001.001-.001.002v.005l.005.003.002.001.002.007v.001l.002.002h.003v.007l.001.003.001.005.003.003.001.002v.002h.013l.003-.002.013-.008.005-.003.005-.004.002-.007v-.004l.008-.007.003.002.002.002.003.002.001.002.001.003h.003l.002-.002h.008l.007-.004.002-.004.004-.002h.008l.002-.002h.009l.002.004v.004l.002.002.005.009h.003l.005.003.007.006.002.003.002.001.004.002h.006l.005.002.005.004.003.002h.003l.006-.006.002-.002h.003l.004.003h.002l.002-.005.002-.003.003-.002.003-.001.005-.003h.002l.005-.001.005.001.002.001.002.006.004.007.002.001.002.001h.003l.002-.003.004-.006v-.01l.002-.004.007-.005h.004l.002.003.003.001h.004l.003-.004.003-.003h.003l.003.003h.004l.003-.003h.008l.004-.004.002-.004V1.52l.001-.006v-.002l.002-.004v-.001l.001-.001v-.001l.002-.002h.006l.006-.004.003-.003v-.001l-.003-.007-.002-.005v-.005l.002-.002.008-.003.003-.003.004-.004.003-.005.002-.002h.003l.004.003H11.386l.003-.001.015-.004.006-.002.002-.002.002-.002v-.006l-.002-.004v-.003l.003-.007.003-.004.002-.002v-.002l.003-.003v-.025l.003-.004v-.003h.007l.002-.001h.005l.003-.002.003.003v.002l-.002.005.003.003.002.003h.011l.006.006H11.476l.002-.001v-.004l.002-.002.004-.004.001-.005.007-.006.003-.002h.004l.004.003.003.002.002-.002.003-.003.003-.003.003-.006.002-.003.004-.005.002-.003V1.36l.004-.002.003-.003.001-.002.004.002h.008l.002-.002.004.001h.003l.005.001h.003l.004-.003.003-.002h.002l.002.002h.004l.002-.003.002-.001.002-.002.001-.002.004-.002h.017l.011-.005h.006l.002.002h.003l.001-.004.002-.003.002-.004v-.002l.002-.003h.002l.004-.001.002-.002v-.004l-.002-.003-.002-.002-.002-.004v-.004l-.003-.005-.001-.002v-.021l.002-.008-.002-.002v-.003l-.001-.004-.001-.002-.002-.003-.002-.002h-.003l-.001-.002v-.002l.001-.005.002-.005.003-.003.001-.003V1.223l-.001-.003v-.003l.002-.001h.006l.005.003h.002v-.005l.003-.003.001-.001.001-.004V1.188l.001-.003.002-.003.002-.003v-.003l.002-.001h.005l.002.003h.002v-.001h.006l.006-.005.005-.006.005-.008.004-.003.003-.003.002-.002.003-.006H11.707v.001h.001l.003-.004h.001l.002-.002h.004l.002-.001.005-.003.005-.002h.007l.002.001.002.001.001-.002.004-.005.002-.001.004-.001.005-.005.002-.003v-.002l.003-.001h.002l.004-.001.004-.001.002-.002.002-.003.007-.002.003-.001h.003l.004.003.001.001.002.003v.003l.001.004.003.004h.005l.006-.001.003.006.003.002.001.005.001.005.003.007.003.002.003.002.003.002h.006l.003.003.003.003.004.003.003-.001.002-.002.002-.003v-.011h.006l.003.001h.011l.004-.005.002-.003h.005l.002.002.003.001.004.001.001.002v.003l.002.003.002.002.006.004h.001v.004l.002.004v.003l.003.003.003.001h.003l.002.002.003.003h.006l.002.007h.003l.009.007.006.002h.002l.002.004.005.003.004.003.005.002h.004l.007-.002h.002l.004-.004.002-.002h.003v.006l-.003.005v.001h-.002v.003l.004.003v.012l-.001.004-.002.003-.002.006v.003l.002.003.004.003.002.003.006.002h.006l.008.001.003.002.007.002v.003l-.002.004-.001.004v.014l-.002.005v.008l-.004.006-.004.002h-.014v.002l-.003.004v.006l-.001.002-.003.002h-.001l-.002.003-.002.002v.006l.001.006v.007l-.005.005v.006l-.003.011v.005l.002.002.003.002h.008l.003.004.001.002.005.001v.004l.001.003.002.002.001.005-.001.007V1.412l.003.01.005.002.003.001.006.008.003.003h.003l.005.002.003.001.005.006.005.004.002.003.003.004.002.003h.007l.003.002.006.002h.003l-.001.003v.003l.006.007.003.007v.004l-.003.003-.001.002V1.5l.002.001.005.004v.003l-.003.002h-.002l-.002.004-.002.005-.002.001h-.004l-.005.006h-.003l-.002.001.002.005v.005l-.001.001h-.003v.006l-.002.003-.001.002v.014l.007.002.01.002.005.002.002.003V1.58l.001.003.007.009v.001l.008.006.004.003h.002l.002.001.004.003h.005l.004-.004h.005l.004.003h.002l.001.002.002.002.003.002.001.002.003.001h.005l.009.01.003-.002h.004l.001-.002h.005l.003-.003h.007l.003.003.001.003.002.002h.011l.002-.003.003-.003.001-.002h.002l.002-.002.001-.004.002-.002.002-.004v-.004l.005-.003h.005l.001-.003.003-.001.002-.003h.003l.002-.002.008-.004h.003l.006-.004.006-.005.003-.004.002-.005v-.004l.001-.001.002.002h.011l.005.005v.004l.002.004.004.004.003.005.007.013v.017l-.001.003-.002.001h-.002l-.001-.001-.002.002-.001.004.001.002.001.003v.006l.003.003v.008l.002.004.003.005.004.006.005.005.002.003.001.005v.008l-.005.011-.008.008-.003.002H12.27l-.002-.001-.002.001-.006.006-.002.003v.002l.002.003.006.004v.002l-.002.007v.005l-.003.002-.007.002-.006.002-.001.002-.001.003h-.001l-.001.005-.003.002h-.003l-.005-.002-.003-.003h-.001l-.002.001h-.002v.001h-.006l-.002.002-.002.003h-.004l-.001-.006-.003-.004-.003-.006-.001-.001-.008-.001-.002-.002v-.004l-.002-.003-.003-.001h-.003l-.003.003-.004.006-.002.004-.002.002h-.006v.006l-.002.003-.001.001v.002l-.003.003v.004l-.003.004v.007l-.002.006V1.792l.001.004-.002.003-.003.003-.003.002-.003.003-.003.003-.001.001-.004.002-.002.002v.003l-.002.005-.002.006v.003l.001.003v.006l-.003.002-.004.001-.002.002-.006.006-.005.005-.001.002-.003.005v.007l.001.003.002.003v.002l.001.003v.003l-.001.003V1.897l.003.003.001.002.002.003.002.002.001.002v.004l.002.001.003.004.002.002.002.003.001.002v.008l.002.001.004.006.004.003.007.004h.003l.004-.003h.005l.003.001h.002l.002-.001h.01l.006.005-.002.001v.002l.003.002.004.003.002.002v.001l.003.006.005.003.003.005.002.002.007.002.005.005.005.008.001.003.003.01.003.003.008.004.006.002h.005l.007.002.003.003.002.003.002.007.002.001.002.007v.001l.002.002v.005l.001.001.002.002.004.005.001.005v.007l.003.005.003.006.004.003.005.002.008-.001h.005l.003.003.001.005.004.002.004.003.001.001.001.002.005.003.006.008.002.004v.008l-.003.005-.003.006-.003.003-.002.003v.008l.002.003h.016l.004.004.003.005.001.002.005.005.004.002.007.003.007.002h.003l.006.003.001.001.003.002.005.002h.006l.01.003h.004l.004.002.011.007v.017l-.002.002-.009.007-.001.002-.002.003-.006.005v.02h.007l-.005.004-.004.001-.005.007-.007.009v.002l.002.001v.003h.001l.001.005-.001.005-.006.006-.004.006-.005-.002-.001-.001h-.007l-.006.003h-.004l-.004.005h-.004v.004l-.002.003-.001.003-.004.004-.01.005v.006l.001.005.002.009.001.007v.005l.001.004.003.005.007.002.006.001v.004l-.007.006-.007.005h-.003l-.015-.009-.003-.002h-.01l-.012.005-.009.004-.01.003-.003.003-.005.008-.006.002-.012.002-.01.008-.014.008-.009.003-.001.003-.007.014-.008-.001-.003-.004H12.19l-.004-.002h-.002l-.006.008-.006.005-.003.003h-.007l-.008-.003-.012.001-.008.002-.01.004-.003.004v.006l.004.006-.008.008-.004.003H12.1l-.006-.002-.006-.002-.002-.003h-.002l-.003.006-.002.01v.019l-.005.004-.006.003-.011.001-.005.003-.004.005-.001.003-.003.002-.009.005-.005.005-.004.005v.008l.004.002h.008l.004-.001.007.002.004.004.001.003v.004l.001.003v.003l.002.003.005.003v.001l.001.003v.004l.004.004.002.002.001.002.003.002.003.001h.01l.009-.001h.001l.004-.003.006.002h.003l.001.002v.001l.002.002h.001l.003.002.001.002v.004l-.002.005v.003l.003.003.003.002.006.003.002.001.006.001.005.002.004.01.001.001.001.003.007.01.003.004.002.004.005.006.003.001.001.002.005.002.004.004.001.003v.001l-.005.004-.003.003v.002l-.001.002-.001.005-.002.004-.003.003-.002.005v.006l-.006.001-.003.003-.003.007-.002.005-.003.004-.005.005-.005.003-.003.006-.002.004V2.769l.002.002-.006.007-.003.007v.004l.002.003.003.001v.004h.005l.003.002.002.008v.007l-.001.002-.008.004-.009.005-.005.002-.003.001h-.003l-.007.007-.006.005-.004.002-.001.003v.005l-.002.006-.005.003-.01.008-.001.002-.001.004-.007.01.005.006v.005h.004l.006-.004h.002l.005.003.003-.002.002-.003.005-.001.005.002.004-.006.014.001h.012l.005-.004h.002l.001.001.008.002-.004.008V2.9l-.003.004v.005l-.004.005v.003l.006.008.002.002.001.009h.006l.003-.001.004.002.007.006v.003l.002.005.002-.002.006-.005.005-.004h.007l.005-.005h.003l.002.001.004.004.003.002.008.001.009-.003h.004l.002.001.003.001.005.005.007.003h.003l.008.003.01-.003.004-.002.015-.012.006-.004.001.01v.003l-.001.004.002.003.002.006.006-.004.006-.004h.006l.004-.001.003-.005h.001l.002-.003.004-.001.008-.006.003-.002.004-.002h.006l.002.001h.002l.002.001h.021l.006.002v-.01l.006-.009v-.002l.006-.004.008-.001.008-.001h.004l.003.002.002.001h.011l.01-.005H12.457l.002.001.002.003.002.003.006.005.003.002.006.006.004.004.002.005.002.004.003.004.004.001h.003l.006.001h.014l.02.003.008.003.004.003.003.005.005.008.007.006.006.007.007.006.009.008.001.001h.001l.002.002-.006.006.004.002.002.003.002.004v.006l.001.003.003.002.002.003.001.002.006.006.016.014.004-.014h.005l.006-.006.003-.001h.004l.007.004.015.007" fill-opacity=".4" stroke="none" fill="#fff"/></g></svg>