<svg height="249.6" version="1.2" xmlns="http://www.w3.org/2000/svg" baseProfile="tiny" width="288" viewBox="0 0 15 13"><g fill-rule="evenodd" stroke-linejoin="bevel" stroke="#000" fill="none" stroke-linecap="square" font-weight="400" font-family=".AppleSystemUIFont" font-size=".903"><path d="M-1.981-1.981h19.81v17.829h-19.81V-1.981" stroke="none" fill="#fff"/><path d="M0 0h14.857v13H0V0" stroke="none" fill="#fff"/><path fill="none" d="M0 0h14.857v12.876H0z" fill-opacity="0" stroke="none"/><g stroke-width=".051" stroke="#96cb65" fill="#96cb65"><path d="M7.447 9.956v.099H7.15v.099h-.198v.099h-.1v.1h-.198v.098h-.098v.1h-.1v.098h-.098v.1h-.1v.098H6.16v-.099h.1v-.099.1-.1h.099v-.198.1l.099-.1.099-.099v-.099h.099v-.099h.198-.1.1v-.1h-.1.1-.1.1-.1v-.098h.1v.099H7.15v-.1h.099v-.098h.198v.099h0M5.763 10.748v.1h.198v.098l-.099-.099v.1h-.198v.098h-.099v.198-.099l-.099.1v.099l-.099-.1V11.541v-.1h-.099v-.098l.099-.1h.1v-.198h.098v-.099h.1v-.198h.098M8.338 9.263h.199-.1v.099h-.099l-.099.099v.099H8.14l-.099.099h.1-.1l-.099.099h-.099v.099h-.099v-.1h.1V9.66h.098v-.1h.1v-.098h.098v-.1h.1v-.098h.098M5.961 11.442v-.1h.198v.1H6.06h.1-.199.1-.1 0M5.662 11.687h.091v-.078h-.09v.078M8.669 8.98h.056v-.046h-.056v.046M5.565 11.64v.099-.1.1-.1.1-.1h0M5.64 11.736h.053v-.04H5.64v.04M5.794 11.549h.055v-.03h-.055v.03M8.637 9.028h.04V8.99h-.04v.038M8.592 8.79h.026v-.034h-.026v.035M5.617 11.772h.021v-.015h-.021v.015" stroke-width=".05051448"/><path d="M6.122 11.437h.011v-.013h-.011v.013M6.056 11.459h.013v-.01h-.013v.01M5.73 11.718l-.003.01-.005-.003.006-.006.002-.001M8.522 9.218l.001-.001.005.002-.008.001.002-.002M2.606 9.227h.033V9.17h-.033v.057M11.508 5.3h.198v-.098h.1v-.199h.098v-.099h.1V5.202h-.1V5.4h-.099v.099h-.198v.099l-.1.099v-.1h-.098l.099-.098h-.1.1l-.1-.1h.1v-.098h0M9.527 8.47v.1h-.099l-.1.098v.1H9.23v-.1h.099V8.57h.099V8.47h.099v-.099h.1-.1v.1h0M11.21 6.291v.1h-.198v-.1h.1v-.198h.099v-.099V6.291h0" stroke-width=".05051448"/><path d="M12.102 5.003h-.099v-.099h.1l.098-.099v.1h.1-.1v.098h-.099 0M10.716 6.885h-.1.1v-.198h.099v.1h-.1v.098h0M11.706 4.805v.1h-.099v-.199.1-.1h.099v.1h0M11.013 6.49v.098l-.1-.099h.1M10.022 7.876v-.1h.1-.1v.1h0M9.725 8.173v.1h-.099v-.1h.1M10.22 7.48v.099l-.099-.1h.1M10.914 5.895v-.1l.099.1h-.1 0M10.603 6.707h.071v-.05h-.07v.05M11.27 5.48h.036v-.028h-.036v.027M10.33 6.664h.023v-.026h-.022v.026M9.907 8.05h.021v-.024h-.021v.024M10.182 7.316h.023V7.3h-.023v.017M9.925 8.023h.017v-.017h-.017v.017" stroke-width=".05051448"/><path d="m10.22 7.52-.004-.002-.003-.009.012.005-.004.006M3.188 8.371h-.1v-.595h.1v-.594l-.1-.099-.098-.099v-.198h.099V6.49h.099V5.202l-.1-.1.1-.099V4.706h.099v-.198h-.099V4.211h-.1v-.099H2.99h.099v-.099.1-.1.1h-.1v-.1l-.098-.099h.099v-.1h-.1V3.22v.1-.1h.1v-.594h.099v-.099h-.1v-.396.1-.1l.199-.099h.099v.198h.1v-.099h.098v-.099.1-.1h-.099.1-.1v-.099h.198v-.199l-.099.1v.099-.199h.1v-.098h-.1v-.1l-.099-.098v-.1h-.099V1.24h.198-.099v.099h.1V1.14h.098v.099l.1.099v.396-.1.1-.1.1h-.1.1v.099-.1.199h.098-.099.1v.1-.1.1h-.1.1v.198h.098-.099.1-.1v-.1l.1.198v.1l.098.296v.1l-.099-.1h.1-.1.1-.1V2.428h-.099V2.33h.1V2.23h-.1.1-.1v.198-.099V2.627h.1v.198-.199V2.924h.098v-.1.199l-.099.099v.198-.198.099-.198.099-.1.199-.1.1h-.099.1-.1v.099h.1l-.1.099v.198-.198.198-.1V3.816h.1v-.1.199l.098.099v-.099h-.099V4.211v-.099.1-.1.1h.1v-.199.198V3.914h-.1.1v.397h.098-.099v.098h.1-.1.1-.1.1V4.31 4.607l.098.198v.496h.1V5.598h.099v.198l.099.099v.396h.099V6.59h.099v.098h.099V6.985h.099-.1v-.199h-.098v-.099l-.1-.099V6.49h-.098V6.39h-.198l-.199-.099H3.98l-.099.1h-.099v.098h-.099v.396l-.099.1v.198l-.099.099v.396h-.099.1l-.1.099.1.099v.198h.098v.099h.1v.1h.098v.396H4.08v.594h-.1v.198-.496h-.099v-.099H3.584v-.099h-.099l-.099.1-.099.197V9.362h-.099v.198l-.1-.1v-.198l-.098-.099v-.396h.099-.1l.1-.099V8.47h.099v-.099h-.1.1-.1.1m.628-4.727h.002v-.007h-.002v.007M3.683 8.47v-.198l-.099-.099h-.099v-.199l-.099-.098v-.198h-.099v.099l-.099.099V8.47l-.1.198v.396h.199v-.198l.1-.099h.098v-.099h.198V8.47h0m-.099-2.08V5.796l-.099-.198V5.3l-.099-.1v-.098h-.099V6.885h.1l.098-.099v-.198h.1V6.39h0m.494-1.287-.099-.199v-.198l-.099-.099-.099-.099h-.099v.1l-.099.098v.397l.1.198.098.198v.099l.1.099.098.099h.198v-.198H4.08v-.496h0" stroke-width=".05051448"/><path d="M3.287 2.076h.115v-.083h-.115v.083M2.89 2.23h.1v-.099.1h-.1 0M3.855 3.246h.04V3.18h-.04v.066M3.782 3.617h.1v.099-.1h-.1 0M3.889 3.093h.024V3.05H3.89v.043M3.805 3.588h.011v-.044h-.01v.044M3.913 3.998h.009v-.03h-.009v.03M3.8 3.528h.013v-.015h-.012v.015M3.904 4.005v-.012l.002-.004.005.02-.007-.004M3.937 3.995h.011v-.013h-.01v.013" stroke-width=".05051448"/><path d="M3.813 3.618h.005V3.6h-.005v.02M3.942 4.015h.007V4h-.007v.015M3.937 4.02h-.003l-.003-.01h.007l-.001.01M3.883 2.514l-.002-.002-.002-.003.005-.008-.003.008.002.005M3.839 3.226l.002-.003.003.002v.005l-.005-.004M3.905 3.098l-.006.003-.002-.002.005-.003.003.002" stroke-width=".05051448"/><path d="m3.948 4.014.002.004-.002.001-.003-.005h.003M4.045 4.417v-.003h.004l-.004.005v-.002M3.952 4.02v-.005l.002-.002.001.002-.003.004M3.876 2.728l.001.004-.002.004v-.008M3.815 3.564l.001.006-.001.002-.001-.008h.001M1.346.936h.042V.898h-.042v.038M.316.348V.25h.099v.1h.198v.098h.099-.1V.745H.515v.099h-.1v.099-.1H.317V.646h-.1l-.098.1V.545h.099V.447L.316.348h0M.018.348v.198H-.18h.1-.1v.1l-.099-.1v.1-.1h.1V.447h.098V.348h.199-.1 0M.514 1.042v.099h-.1.1v-.1h0" stroke-width=".05051448"/><path d="M.316.943v.099h.099-.1.1-.1v.099h.1-.1V.943h0M-.516.889h.132V.804h-.132v.085M2.693 2.23h-.1v-.099.1-.1.1-.1h-.098.099v.1h.099" stroke-width=".05051448"/><path d="M2.693 2.23h.099-.1l.1.1h-.1v-.1h0M.785.43h.068V.372H.785V.43M.696.807h.042V.78H.696v.027M-.363.54h.042V.518h-.042v.02M1.688 1.201h.034v-.024h-.034v.024M2.68 3.196h.039v-.02H2.68v.02M-.011.92h.023V.899H-.01v.023M.514 1.14v.1h-.1v-.1h.1M2.387 4.246h.017V4.23h-.017v.015M2.597 3.264h.014v-.018h-.014v.018M14.155 2.403h.011v-.018h-.011v.018M13.44 2.63h.01v-.012h-.01v.012M2.516 2.163h.01v-.011h-.01v.011M2.596 2.219h.015v-.006h-.015v.006M.07.825.07.819l.01-.002-.004.005-.008.003M2.71 3.139v-.006l.01.004-.005.005-.005-.003M-.454.71-.457.706-.448.7l.001.002-.003.005-.004.001M-.092.576v.01h-.003L-.1.582l.006-.007.001.001M13.004 4.163l-.002.001-.008-.003.004-.005.006.007M2.65 3.13l.002-.005.012.002-.003.003H2.65" stroke-width=".05051448"/><path d="M2.756 2.304H2.75l-.005.007.001-.008.009.001M2.745 2.469l-.006-.002.002-.005.005-.001-.001.008M2.587 3.246l-.003-.003-.001-.003.01.004-.006.002M13.577 2.86l-.003-.005.004-.003.004.005h-.005v.002M2.712 3.205V3.2l.003-.005.001.009-.002.003-.002-.002M13.512 2.579l-.003.004-.004-.007h.006v.003M2.696 3.132l-.004-.006h.01v.004l-.006.002M.575 1.066l.003-.002v.006l-.003.001-.002-.003.002-.002M-.478.675-.483.674V.67h.004v.004M2.357 4.203l-.003.001h0l.003-.004.002.002-.002.001M.482 1.163l.002.004H.48v-.002l.003-.002M12.992 4.166l-.002-.001.003-.003.001.004h-.002M-1.133 11.493l.002.004h-.003 0l.001-.004M13.448 2.632h-.003v-.001l.004-.001v.002" stroke-width=".05051448"/></g><path d="M3.584 6.39v.198h-.099v.198l-.099.1h-.099V5.102h.1v.099l.098.099V5.598l.1.198V6.39h0" stroke-width=".05051448" stroke="#bdd66b" fill="#bdd66b"/><g stroke-width=".051" stroke="#a9d168" fill="#a9d168"><path d="M3.683 8.47v.198h-.198v.1h-.099l-.099.098v.198h-.199v-.396l.1-.198v-.595l.099-.098v-.1h.1v.199l.098.099v.198h.1l.098.1v.197h0M4.08 5.103v.495h.098v.198H3.98l-.099-.1-.099-.098v-.1l-.099-.197-.099-.198v-.397l.1-.099v-.099h.098l.1.1.098.098v.198l.1.199h0" stroke-width=".05051448"/></g><g stroke-width=".051" stroke="#bdd66b" fill="#bdd66b"><path d="M1.009 8.074v.099l-.198.1v.098l-.1.1V8.767l-.098.197-.1.198-.197.199v.099l-.1.198-.098.099-.1.099-.099.099-.099.099-.099.099-.099.099-.099.1-.198.197-.099.198-.099.1h-.099l-.1.098-.098.198-.1.1-.098.099v.099l-.1.099-.018.018V9.776l.019-.018.099-.1V9.56h.099v-.1l.099-.098v-.397l.099-.099v-.099l.099-.099V8.57l-.1-.099.1-.099v-.099l.099-.099.1-.099v-.1l.098-.098.1-.198.098-.198.198-.397.1-.198.098-.198.199-.297.099-.198.198-.198v-.1l.099-.197V5.4l.099-.198.099-.199V4.706l.099-.099.099-.099h.099l.099-.099H1.801l.1.1.098.098V5.598l-.099.297-.099.099v.792l-.099.198v.1l-.099.099v.099l-.198.198-.099.099v.198l-.099.099-.099.099v.099h-.1 0m-1.386.594v.1H.02v.098l.099.1-.1.098H-.18l-.198-.099-.198.1-.099.098-.099.1v.396l.1.198.098.099h.1l.098-.1.198-.197.198-.1.1-.098V9.163l.099-.099h.099l.099-.099.099-.198v-.099l.099-.297v-.495h-.1v-.198l.1-.1h.099l.099.1.099.099h.099l.099-.1V7.48l.099-.1V7.084h.1l.098-.099.1-.099V6.588l-.1-.099-.099-.099-.099-.099V5.994l-.099-.1H.811l-.1.199-.098.1v.197l-.1.1-.197.098-.1.1v.197l-.098.298v.099l-.1.198-.099.198-.099.198-.099.198-.099.198v.1l-.099.098.1.1v.098h0m-.793 1.981.198-.099v-.198l-.1-.099-.098-.099h-.1v.099l-.098.1v.197l.099.1h.099M13.667 1.249h.068v-.084h-.068v.084" stroke-width=".05051448"/></g><g stroke-width=".051" stroke="#a9d168" fill="#a9d168"><path d="m14.513-1.288-.034.051-.099.199-.099.297-.099.099-.198.198-.099.297-.198.396-.198.198-.1.198V.943h.1v-.1h.099l.099-.198.198-.099.1-.099.098-.099.1-.099.098-.099.1-.099v-.198l.098-.099-.099-.198V-.741l.1-.198v-.1l.098-.098H14.876v.099h.099v.099l.099.099v.099l.099.099H15.47V-.345l-.1.099V.349l.1.098.099.1v.198h-.1v.099h-.593l-.1.099-.099.099-.099.099-.099.099-.099.198h-.099v.099l-.099.099v.198h-.099v.198l-.099.1-.099.098v.1h-.099l-.099.098v.1h-.1l-.098-.1h-.1V2.33h-.098V2.626l.099.198v.496l-.1.099v.099h-.098l-.1.099v.099h-.098v.099h-.198v.099l-.1.099v.1l-.099.098v.1H12.4V4.012h.1v-.099h.098v-.198h.1V3.32l-.1-.1v-.693l-.099-.099-.099-.099v-.198l-.099-.099V.447l.1-.099V.051l.098-.198v-.199l.1-.098v-.1l.099-.197.099-.1.099-.197.099-.199v-.05h1.52m-.847 2.536h.068v-.084h-.068v.084m1.11-1.693h.099v-.198l-.1-.1h-.099V-.443h.1M.712 4.41v.098h-.1v.1H.415v-.1L.317 4.41v-.198l.099-.099v-.396h-.1v-.1H.218l-.1-.098v-.495l.1-.1.099-.099h.099l.099-.099v.496l.099.099H.81l.099-.1.099-.098h.198v.198l.1.099-.1.099v.198l-.099.099-.1.099v.199L.91 4.21v.1l-.198.098h0M-.378 9.857l-.099.099h-.099l-.099-.1-.099-.197v-.396l.1-.1.098-.099.198-.099.198.1h.198l.1-.1-.1-.099v-.099h-.396V8.57l-.099-.099.1-.099v-.099l.098-.198.1-.198.098-.198.1-.198.099-.198v-.1l.099-.297v-.198l.099-.099.198-.099.099-.099v-.198l.099-.099.099-.198H1.108l.099.099V6.291l.1.1.098.098.1.1V6.885l-.1.098-.099.1h-.099V7.38l-.099.099v.198l-.1.099H.91l-.1-.1-.098-.098h-.1l-.098.099v.198h.099V8.37l-.1.297v.1l-.098.197-.1.1H.218l-.1.098V9.461l-.099.099-.198.099-.198.198h0" stroke-width=".05051448"/></g><path d="M-1.486-1.288h17.829v.646h-.08v-.1h-.1V-.84h-.099v-.1.1h-.099.1-.199l-.099.099v.198h-.1v.198h-.098v.694h.099v.198h.099V.843h-.1v.099h-.098v.099h-.396v-.1h-.198l-.1.1h-.098l-.1.099v.099h-.099v.099h-.099.1-.1v.099-.1.1h-.099.1v.099h-.1V2.329 2.23h.1v.1h-.1v.098-.099h.1v.198h-.1v-.099h-.099V2.33h.1-.1v.1-.1h-.099l-.099.1h-.099l-.099.098h-.099v.1h-.099v.098h-.1v-.198h-.098v.1-.1.1h-.1.1-.1.1v.098h.099v.1h-.1.1-.1.1-.1v.098h.1v.1h-.198.099v.198h.099-.1.1-.1v.099h.1-.1v.099h-.098.099v.099h-.1v.198h-.098v.099h-.1v.198h-.098v.1h-.1.1-.198v.198h-.1v.098h-.098v.1h-.1v.098h-.099v.1H12.4v.098H12.3h.1V4.41h-.1v-.198h-.099V3.32l-.099-.1V2.924l-.099-.099V2.23l-.099-.099v-.594l-.099-.396-.099-.297V.348L11.607.25V.051l.099-.099V-.742l.1-.098V-1.138l.074-.15H.613v.051h.099v.1h-.1v.099H.515v.099h-.1v.198H.217v.198-.1H.119v.1h-.1v.099H-.08v.099H-.18v.099h-.198v.099h-.099v.198h-.099v.1h-.099v.098h-.099v.1h-.198v.098h-.1v.1h-.098v.198h.099v.099h.198v.099h.594v-.1.1h.1v-.1.1h.098-.099v.396-.1V1.538h-.099v.198h.1-.1l.1.099v-.1H.117v-.198h-.1v-.198h.1V1.24H.415v.099h-.1v.099H.118v.099h.1l.099.099h.198-.1v.099H.317v.198h-.1.1-.198v.1h.495v-.1h.099l.099-.099v-.198H.91v-.1V1.835v-.1.1h-.1v.199H.713v.098l.099-.099v.1l.099-.1v-.099h.099V1.636l.099-.1v-.098h-.1v.099V1.239h.1v.1h.495v-.1h.1v.1H1.8v.099h.1v.099h.098v.099h.1-.1v.099l.1.099h.099v.199h.198v.098h.198-.198.099v.1h.099v.098h.099v.1h.099-.1v.098h-.098v.396h.099v.1h-.1v.099h-.098.099-.1.1v.099h-.1.1-.1.1-.1.1-.1.1-.1.1-.1.1-.1.1-.1.1-.1.1-.1.1v.099h.099v.099h.099v.099h-.1V3.815h-.098v.099h-.1.1v.099h-.198v.198h-.1.1v.1h-.1v.098h-.098.099v.1h-.1.1v.098l-.1.1h.1-.1v.198h-.099v.098h.1-.1v.199l.1.099V5.598h.099-.1l-.099.099v.198h.1V6.193h-.1v.198H2v.098h.1V6.39v.198h-.1.1-.1v.1-.1.1-.1h.1v.1h-.1v.396H1.9 2h-.1.1l-.1.099H2h-.1v.099h-.099v.099h-.099v.099h-.099v.099h-.099v.099h-.099v.099l-.099.099v.198h-.099v.199-.1l-.099.1-.1.098v.1H.91v.198h-.1V8.964H.713v.1h-.1V9.361H.515v.099h-.1v.198H.317v.099H.118v.198h-.1v.099H-.08v.099H-.18v.099h-.099v.1h-.099.1l-.1.098v.1h-.099v.098h-.099v.1l-.099.098h-.099v.1h-.099v.198l-.099.098v-.099.1h-.1.1v.099l-.1.099h-.098v.198h-.198v.099h-.1v.099h-.018V7.975h.019v-.198h-.019v-.1h.019-.019v-.296h.019-.019.019-.019.019v-.198h-.019v-1.27l.019-.018.099-.1.198-.098h.099l.099-.1H-.675l.1-.098h.098v-.1l.1-.098.098-.1v-.396h-.099v-.099h-.099l-.099-.099h-.099l-.099-.099V4.31l-.099-.099V3.023l.1-.199v-.891h.198v-.099h.098l.1-.1V1.24h-.199l-.099.099v.099h-.198v-.1h-.099V1.24l-.1-.1-.098-.098H-1.468l-.018.018V.605l.118-.059.099-.099.198-.099.198-.099.1-.099.098-.099v-.099l.1-.099.098-.099.1-.1.197-.098.1-.1.098-.098.199-.198.198-.297.075-.15h-1.976m17.154.05h.099l.051-.05h-.645v.05l.099.1h.198v-.1h.198m-2.674-.05v.05l-.1.199-.098.198-.1.099-.099.198v.099l-.099.099v.198L12.4.051V.35L12.3.446V2.033l.1.098v.198l.098.1.1.098v.694l.099.099v.396h-.1v.198h-.099v.099H12.4V4.311h.198v-.1l.1-.099v-.099l.099-.099v-.1h.198v-.098h.099v-.1l.099-.098h.099v-.1l.099-.098v-.496l-.1-.198V2.33h.1v.1h.099l.099.098h.099v-.099l.099-.099h.1V2.23l.098-.099.1-.099v-.198h.098v-.198l.1-.1v-.098h.098l.1-.198.098-.1.1-.098.099-.1.099-.098h.594v-.1h.099V.546l-.1-.099-.098-.099V-.246l.099-.1V-.641H15.172l-.098-.1V-.84l-.1-.1v-.098h-.098v-.1H14.578l-.099.1v.099l-.099.198V-.444l.1.198-.1.099v.198l-.099.1-.099.098-.099.1-.099.098-.099.1-.198.098-.1.199h-.098v.099h-.1V.645l.1-.198.198-.198.198-.396.1-.297.197-.198.1-.1.098-.296.1-.199.033-.05h-1.52M1.01 8.073h.099v-.1l.099-.098.1-.1v-.198l.098-.098.198-.198v-.1l.1-.099v-.099l.098-.198v-.792l.1-.1.098-.296V4.607L1.9 4.508l-.099-.099H1.108l-.1.1H.91l-.1.098-.098.1V5.002l-.1.199-.098.198v.297l-.1.198v.099l-.197.198-.1.198-.198.297-.099.198-.099.198-.198.397-.099.198-.099.198-.099.099v.099l-.099.099-.099.1v.098l-.1.1.1.098v.1l-.1.098v.1l-.098.098v.397l-.1.099v.099h-.098v.099l-.1.099-.018.018v1.783l.019-.018.099-.1v-.098l.099-.1.099-.099.099-.198.099-.099h.099l.1-.099.098-.198.198-.198.1-.099.098-.099.1-.1.098-.098.1-.1.099-.098.099-.1.099-.197v-.1l.198-.198.099-.198.099-.198V8.47l.099-.099v-.099l.198-.099v-.099h0M.712 4.409.91 4.31v-.099l.099-.099v-.198l.099-.1.099-.098v-.198l.1-.1-.1-.098v-.198h-.199L.91 3.22l-.1.099H.613l-.098-.1v-.495l-.1.1H.317l-.1.098-.098.1v.495l.099.099h.099v.099h.099v.396l-.1.1v.198l.1.098v.1h.198v-.1h.099V4.41h0" stroke-width=".05051448" stroke="#96cb65" fill="#96cb65"/><g stroke-width=".051" stroke="#7296a8" fill="#cbe2f1"><path d="m1.603 12.73-.099.098v.1-.199h.1M5.169 11.64v-.1l.099.1h-.1 0M4.246 11.092h.1v-.029h-.1v.029M2.594 10.253v-.099h.099v.099h-.1 0M2.453 10.095h.067v-.18h-.067v.18" stroke-width=".05051448"/><path d="M3.089 9.956h.099v.099h.099v.099h.1v.099l.098.1v.098l.1.1.098.197h.1l.197.198h.1l.098.1v.098H4.476l.099.1h.198v.099h.099v-.1h.099v-.099l.099-.099h.099v-.099h.099v.1h-.1v.198H5.07V11.54h.099V11.838v-.1.1h.099l.099-.1h.1v.1h-.1v.099H5.07v.099l-.1.099h-.098v-.1.1H4.574v-.1.1h-.198l-.098.099v.099h-.1v.1H4.08l-.099.098v.396l-.099.1v-.1h-.099l-.099-.099h-.099l-.099-.099h-.099l-.099-.099-.099-.099h-.1v-.099h-.396l-.098.1-.1.098v.1l-.098-.1v-.099l-.1-.099h-.198v.1L2 12.63v.1h.1v.098h.198v.1h.099l.099.098h.099v.1l-.1.098-.197-.099h-.1v.1h-.099v.098H2v.1H1.9l-.099-.1v-.099h.1v-.396h-.1l-.099-.099V12.432l.1-.099H1.9l.1-.099.098-.1h.1v-.098h-.1v-.1H2v-.098h.1v-.1h.099l.099.1v.099h.396v-.1h.099v-.098l-.1-.1V11.343h.199v-.495h.099v-.396l-.1-.099v-.198h-.098.099v-.198h.099l.099-.1v.1h0" stroke-width=".05051448"/></g><g stroke-width=".051" stroke="#fff"><path d="M1.207 8.173v.1-.1l-.099.1-.1.098v.1H.91v.198h-.1V8.964H.713v.1h-.1V9.361H.515v.099h-.1v.198H.317v.099H.118v.198h-.1v.099H-.08v.099H-.18v.099h-.099v.1h-.099.1l-.1.098v.1h-.099v.098h-.099v.1l-.099.098h-.099v.1h-.099v.198l-.099.098v-.099.1h-.1.1v.099l-.1.099h-.098v.198h-.198v.099h-.1v.099h-.018V8.37H-1.269v-.099.1h.198-.1.1v.198H-.773v.098h.198v.1h.098v-.1.1-.1.1-.1H-.179V8.57h.098V8.272H.217v.1-.1.1-.1h.099v-.099h.198v-.099h.099v-.198h-.1v-.1.1H.416v-.1H.217v-.098h.099v-.1H.118V7.48h.099v-.1H.514v-.098h.198v-.1H.91v.199h.099v.099h-.1v.099h.1v.099h.099-.1.1v.099h-.1v.099H.91v.099h.099-.1v.099h.1-.1H1.208v.099h0" stroke-width=".05051448"/><path d="M-1.131 11.497h-.003 0l.001-.004.002.004M7.447 9.956v.099H7.15v.099h-.198v.099h-.1v.1h-.198v.098h-.098v.1h-.1v.098h-.098v.1h-.1v.098H6.16v-.099h.1v-.099.1-.1h.099v-.198.1l.099-.1.099-.099v-.099h.099v-.099h.198-.1.1v-.1h-.1.1-.1.1-.1v-.098h.1v.099H7.15v-.1h.099v-.098h.198v.099h0M5.763 10.748v.1h.198v.098l-.099-.099v.1h-.198v.098h-.099v.198-.099l-.099.1v.099l-.099-.1V11.541v-.1h-.099v-.098l.099-.1h.1v-.198h.098v-.099h.1v-.198h.098M8.338 9.263h.199-.1v.099h-.099l-.099.099v.099H8.14l-.099.099h.1-.1l-.099.099h-.099v.099h-.099v-.1h.1V9.66h.098v-.1h.1v-.098h.098v-.1h.1v-.098h.098M5.961 11.442v-.1h.198v.1H6.06h.1-.199.1-.1 0M5.662 11.687h.091v-.078h-.09v.078M8.669 8.98h.056v-.046h-.056v.046M5.565 11.64v.099-.1.1-.1.1-.1h0M5.64 11.736h.053v-.04H5.64v.04M5.794 11.549h.055v-.03h-.055v.03M8.637 9.028h.04V8.99h-.04v.038M8.592 8.79h.026v-.034h-.026v.035M5.617 11.772h.021v-.015h-.021v.015" stroke-width=".05051448"/><path d="M6.122 11.437h.011v-.013h-.011v.013M6.056 11.459h.013v-.01h-.013v.01M5.73 11.718l-.003.01-.005-.003.006-.006.002-.001M8.522 9.218l.001-.001.005.002-.008.001.002-.002M2.606 9.227h.033V9.17h-.033v.057M11.508 5.3h.198v-.098h.1v-.199h.098v-.099h.1V5.202h-.1V5.4h-.099v.099h-.198v.099l-.1.099v-.1h-.098l.099-.098h-.1.1l-.1-.1h.1v-.098h0M9.527 8.47v.1h-.099l-.1.098v.1H9.23v-.1h.099V8.57h.099V8.47h.099v-.099h.1-.1v.1h0M11.21 6.291v.1h-.198v-.1h.1v-.198h.099v-.099V6.291h0" stroke-width=".05051448"/><path d="M12.102 5.003h-.099v-.099h.1l.098-.099v.1h.1-.1v.098h-.099 0M10.716 6.885h-.1.1v-.198h.099v.1h-.1v.098h0M11.706 4.805v.1h-.099v-.199.1-.1h.099v.1h0M11.013 6.49v.098l-.1-.099h.1M10.022 7.876v-.1h.1-.1v.1h0M9.725 8.173v.1h-.099v-.1h.1M10.22 7.48v.099l-.099-.1h.1M10.914 5.895v-.1l.099.1h-.1 0M10.603 6.707h.071v-.05h-.07v.05M11.27 5.48h.036v-.028h-.036v.027M10.33 6.664h.023v-.026h-.022v.026M9.907 8.05h.021v-.024h-.021v.024M10.182 7.316h.023V7.3h-.023v.017M9.925 8.023h.017v-.017h-.017v.017" stroke-width=".05051448"/><path d="m10.22 7.52-.004-.002-.003-.009.012.005-.004.006M16.343-1.288v.646h-.08v-.1h-.1V-.84h-.099v-.1.1h-.099.1-.199l-.099.099v.198h-.1v.198h-.098v.694h.099v.198h.099V.843h-.1v.099h-.098v.099h-.396v-.1h-.198l-.1.1h-.098l-.1.099v.099h-.099v.099h-.099.1-.1v.099-.1.1h-.099.1v.099h-.1V2.329 2.23h.1v.1h-.1v.098-.099h.1v.198h-.1v-.099h-.099V2.33h.1-.1v.1-.1h-.099l-.099.1h-.099l-.099.098h-.099v.1h-.099v.098h-.1v-.198h-.098v.1-.1.1h-.1.1-.1.1v.098h.099v.1h-.1.1-.1.1-.1v.098h.1v.1h-.198.099v.198h.099-.1.1-.1v.099h.1-.1v.099h-.098.099v.099h-.1v.198h-.098v.099h-.1v.198h-.098v.1h-.1.1-.198v.198h-.1v.098h-.098v.1h-.1v.098h-.099v.1H12.4v.098H12.3h.1V4.41h-.1v-.198h-.099V3.32l-.099-.1V2.924l-.099-.099V2.23l-.099-.099v-.594l-.099-.396-.099-.297V.348L11.607.25V.051l.099-.099V-.742l.1-.098V-1.138l.074-.15h4.463" stroke-width=".05051448"/><path d="M14.155 2.403h.011v-.018h-.011v.018M13.44 2.63h.01v-.012h-.01v.012M13.004 4.163l-.002.001-.008-.003.004-.005.006.007M13.577 2.86l-.003-.005.004-.003.004.005h-.005v.002M13.512 2.579l-.003.004-.004-.007h.006v.003M12.992 4.166l-.002-.001.003-.003.001.004h-.002M13.448 2.632h-.003v-.001l.004-.001v.002M3.188 8.371h-.1v-.595h.1v-.594l-.1-.099-.098-.099v-.198h.099V6.49h.099V5.202l-.1-.1.1-.099V4.706h.099v-.198h-.099V4.211h-.1v-.099H2.99h.099v-.099.1-.1.1h-.1v-.1l-.098-.099h.099v-.1h-.1V3.22v.1-.1h.1v-.594h.099v-.099h-.1v-.396.1-.1l.199-.099h.099v.198h.1v-.099h.098v-.099.1-.1h-.099.1-.1v-.099h.198v-.199l-.099.1v.099-.199h.1v-.098h-.1v-.1l-.099-.098v-.1h-.099V1.24h.198-.099v.099h.1V1.14h.098v.099l.1.099v.396-.1.1-.1.1h-.1.1v.099-.1.199h.098-.099.1v.1-.1.1h-.1.1v.198h.098-.099.1-.1v-.1l.1.198v.1l.098.296v.1l-.099-.1h.1-.1.1-.1V2.428h-.099V2.33h.1V2.23h-.1.1-.1v.198-.099V2.627h.1v.198-.199V2.924h.098v-.1.199l-.099.099v.198-.198.099-.198.099-.1.199-.1.1h-.099.1-.1v.099h.1l-.1.099v.198-.198.198-.1V3.816h.1v-.1.199l.098.099v-.099h-.099V4.211v-.099.1-.1.1h.1v-.199.198V3.914h-.1.1v.397h.098-.099v.098h.1-.1.1-.1.1V4.31 4.607l.098.198v.496h.1V5.598h.099v.198l.099.099v.396h.099V6.59h.099v.098h.099V6.985h.099-.1v-.199h-.098v-.099l-.1-.099V6.49h-.098V6.39h-.198l-.199-.099H3.98l-.099.1h-.099v.098h-.099v.396l-.099.1v.198l-.099.099v.396h-.099.1l-.1.099.1.099v.198h.098v.099h.1v.1h.098v.396H4.08v.594h-.1v.198-.496h-.099v-.099H3.584v-.099h-.099l-.099.1-.099.197V9.362h-.099v.198l-.1-.1v-.198l-.098-.099v-.396h.099-.1l.1-.099V8.47h.099v-.099h-.1.1-.1.1m.628-4.727h.002v-.007h-.002v.007" stroke-width=".05051448"/><path d="M3.287 2.076h.115v-.083h-.115v.083M2.89 2.23h.1v-.099.1h-.1 0M3.855 3.246h.04V3.18h-.04v.066M3.782 3.617h.1v.099-.1h-.1 0M3.889 3.093h.024V3.05H3.89v.043M3.805 3.588h.011v-.044h-.01v.044M3.913 3.998h.009v-.03h-.009v.03M3.8 3.528h.013v-.015h-.012v.015M3.904 4.005v-.012l.002-.004.005.02-.007-.004M3.937 3.995h.011v-.013h-.01v.013" stroke-width=".05051448"/><path d="M3.813 3.618h.005V3.6h-.005v.02M3.942 4.015h.007V4h-.007v.015M3.937 4.02h-.003l-.003-.01h.007l-.001.01M3.883 2.514l-.002-.002-.002-.003.005-.008-.003.008.002.005M3.839 3.226l.002-.003.003.002v.005l-.005-.004M3.905 3.098l-.006.003-.002-.002.005-.003.003.002" stroke-width=".05051448"/><path d="m3.948 4.014.002.004-.002.001-.003-.005h.003M4.045 4.417v-.003h.004l-.004.005v-.002M3.952 4.02v-.005l.002-.002.001.002-.003.004M3.876 2.728l.001.004-.002.004v-.008M3.815 3.564l.001.006-.001.002-.001-.008h.001M-1.486-1.288H.613v.051h.099v.1h-.1v.099H.515v.099h-.1v.198H.217v.198-.1H.119v.1h-.1v.099H-.08v.099H-.18v.099h-.198v.099h-.099v.198h-.099v.1h-.099v.098h-.099v.1h-.198v.098h-.1v.1h-.098v.198h.099v.099h.198v.099h.594v-.1.1h.1v-.1.1h.098-.099v.396-.1V1.538h-.099v.198h.1-.1l.1.099v-.1H.117v-.198h-.1v-.198h.1V1.24H.415v.099h-.1v.099H.118v.099h.1l.099.099h.198-.1v.099H.317v.198h-.1.1-.198v.1h.495v-.1h.099l.099-.099v-.198H.91v-.1V1.835v-.1.1h-.1v.199H.713v.098l.099-.099v.1l.099-.1v-.099h.099V1.636l.099-.1v-.098h-.1v.099V1.239h.1v.1h.495v-.1h.1v.1H1.8v.099h.1v.099h.098v.099h.1-.1v.099l.1.099h.099v.199h.198v.098h.198-.198.099v.1h.099v.098h.099v.1h.099-.1v.098h-.098v.396h.099v.1h-.1v.099h-.098.099-.1.1v.099h-.1.1-.1.1-.1.1-.1.1-.1.1-.1.1-.1.1-.1.1-.1.1-.1.1v.099h.099v.099h.099v.099h-.1V3.815h-.098v.099h-.1.1v.099h-.198v.198h-.1.1v.1h-.1v.098h-.098.099v.1h-.1.1v.098l-.1.1h.1-.1v.198h-.099v.098h.1-.1v.199l.1.099V5.598h.099-.1l-.099.099v.198h.1V6.193h-.1v.198H2v.098h.1V6.39v.198h-.1.1-.1v.1-.1.1-.1h.1v.1h-.1v.396H1.9 2h-.1.1l-.1.099H2h-.1v.099h-.099v.099h-.099v.099h-.099v.099h-.099v.099h-.099v.099l-.099.099v.198h-.099v.099-.099H.91h.099-.1v-.1h.1-.1v-.098h.1v-.1h.099v-.098h-.1.1-.1v-.1H.91V7.48h.099v-.1h-.1v-.198H.712v.1H.514v.099H.218v.099h-.1v.099h.199v.099h-.1v.099h.199v.099h.099v-.1.1h.099v.198h-.1v.099H.316v.1H.218v.098-.099.1-.1H-.081V8.57H-.18v.098H-.477v.1-.1.1-.1.1h-.099v-.1h-.198V8.57H-1.072v-.198h-.098.099-.198v-.099.1h-.217v-.397h.019v-.198h-.019v-.1h.019-.019v-.296h.019-.019.019-.019.019v-.198h.099v-.1h.099-.1v-.099h-.098v.1-.1h-.019V3.023h.019v-.1h-.019v-.297h.019v-.099h.099-.1v-.099h.1-.1.1V2.23v.1-.1h-.1.1v-.099h-.1v-.099h-.018v-3.32" stroke-width=".05051448"/><path d="M.316.348V.25h.099v.1h.198v.098h.099-.1V.745H.515v.099h-.1v.099-.1H.317V.646h-.1l-.098.1V.545h.099V.447L.316.348h0M.018.348v.198H-.18h.1-.1v.1l-.099-.1v.1-.1h.1V.447h.098V.348h.199-.1 0M.514 1.042v.099h-.1.1v-.1h0" stroke-width=".05051448"/><path d="M.316.943v.099h.099-.1.1-.1v.099h.1-.1V.943h0M-.516.889h.132V.804h-.132v.085M2.693 2.23h-.1v-.099.1-.1.1-.1h-.098.099v.1h.099" stroke-width=".05051448"/><path d="M2.693 2.23h.099-.1l.1.1h-.1v-.1h0M.785.43h.068V.372H.785V.43M.696.807h.042V.78H.696v.027M-.363.54h.042V.518h-.042v.02M1.688 1.201h.034v-.024h-.034v.024M2.68 3.196h.039v-.02H2.68v.02M-.011.92h.023V.899H-.01v.023M.514 1.14v.1h-.1v-.1h.1M2.387 4.246h.017V4.23h-.017v.015M2.597 3.264h.014v-.018h-.014v.018M2.516 2.163h.01v-.011h-.01v.011M2.596 2.219h.015v-.006h-.015v.006M.07.825.07.819l.01-.002-.004.005-.008.003M2.71 3.139v-.006l.01.004-.005.005-.005-.003M-.454.71-.457.706-.448.7l.001.002-.003.005-.004.001M-.092.576v.01h-.003L-.1.582l.006-.007.001.001M2.65 3.13l.002-.005.012.002-.003.003H2.65" stroke-width=".05051448"/><path d="M2.756 2.304H2.75l-.005.007.001-.008.009.001M2.745 2.469l-.006-.002.002-.005.005-.001-.001.008M2.587 3.246l-.003-.003-.001-.003.01.004-.006.002M2.712 3.205V3.2l.003-.005.001.009-.002.003-.002-.002M2.696 3.132l-.004-.006h.01v.004l-.006.002M.575 1.066l.003-.002v.006l-.003.001-.002-.003.002-.002M-.478.675-.483.674V.67h.004v.004M2.357 4.203l-.003.001h0l.003-.004.002.002-.002.001M.482 1.163l.002.004H.48v-.002l.003-.002M1.346.936h.042V.898h-.042v.038" stroke-width=".05051448"/></g><g fill-opacity=".4" stroke="none" fill="#fff"><path d="M-1.486 14.164h17.829V-1.288H-1.486v15.452m7.122-2.407h.002v.003h-.003l-.006.012-.005-.002-.002-.005-.005.002.003-.008.008.004.008-.006m.062-.07.001-.011-.007-.006-.002-.014-.01-.007-.006-.014-.006-.003h-.006v-.002l.015-.008.023-.006.01-.007h.003l.006.008.009.004h.025l-.013.018-.003.009.004.007h.007l-.004.004.002.003h-.003v.003l-.005.004-.009.002-.001-.001v.003l-.01.002-.02.012m.148-.158.002.006-.003.004.004.005v.005l-.015-.001-.006-.004-.01.002-.008-.003H5.8l-.005-.003.018-.002.008-.008-.001-.008.002-.003.006.006h.004v.005l.01.001.005-.002m-.116.189-.003.01-.005-.003.006-.006.002-.001m-.088.003h.007l.005-.01.004.002.002.005h.003l.002-.01.005.001-.002.003.001.005.004-.003.005.003.002-.008-.004-.003.001-.003.005-.002.004-.005.003.008.004.001-.001.005-.008.001-.007.015h-.002l.001-.002h-.003v-.002l-.01.001-.012.013h-.004v-.004l-.007-.001.002-.01m-.104-.032h.01l.007-.005.003.01.014.003.007-.001.003-.007h.008l.003.003-.008.003-.002.009.014.012-.014.003-.013-.004-.005.008h-.004l.004-.002-.002-.006-.004-.001-.002.004-.001-.005.005-.005-.001-.01-.01-.006-.006.003-.006-.006m.524-.23v-.006h-.006l.003-.005.005.005.004-.002-.006.008m.068-.026-.004.004h-.004l.004-.005h-.003l.003-.008.006.003.001.003-.003.003m-.13.011-.002-.001.003-.006-.007.002v-.003l.002-.001v-.005l.006-.007v-.002h.004l.001-.01L6 11.404l-.006-.017.002-.005h.006l.009-.01.01.003.022-.01.012.003v-.003l.011-.002.006.007.001-.007.008-.001.012.006.004.007v-.01l-.006-.004-.01-.003v-.008l.017-.01.015-.017.009.004.003.007.005.004.001-.003-.005-.002-.003-.012h.002l.008.007.005-.006v.01l.008-.001.001-.004-.005-.002v-.01l.003-.004.004.003h.01v.002l.003.001-.001.006h.008l.002.006h.006v.005l.011.015.009.003.005-.003-.003.004.006.006-.003.004h-.008l.003.017h-.004l-.001.005-.004-.005-.008-.003-.01.004-.001.003H6.16l-.003-.005v.004h-.005l-.008.007.002.004.003-.001v.005h.008l.002.003h-.004l-.005.005-.007-.004v-.004l-.005.002-.004-.003-.002.003.002.004-.005.004-.003-.006-.002.004H6.12v.009h.004l-.006.013-.01-.009v.006l.003.002h-.003l-.002.005-.004.002-.001-.004-.005-.001.001.005h-.01l-.001.004-.003-.001.002.008-.006.002-.012-.01-.007.002-.001.008h-.004l-.003.004.002.003-.003.002h.004l.002.003-.007.005v.008l-.009-.002-.012.006-.003-.002.001-.004.005-.002.002-.003-.008-.002.002-.004-.005.002-.003-.008-.005-.006-.001-.013.004-.006h.003v-.003l.009.003v-.005h-.008l-.005.004v-.005.005H6.01l-.003.005v.004h.003l.002.003-.003.006h-.003v-.003L6 11.444M7.433 9.97l.003.002.002.012-.005.003v.005l-.004.006v.005h-.004l-.002.008-.006.003v.005l.003.004-.004.008h-.024l-.017.012-.015-.011-.008-.003-.01.004-.008-.002-.016.002-.002-.003-.002.002-.013.001-.003-.003-.003.006-.007-.004-.01.004-.001.003h-.003l-.007.005-.02.004-.006.005-.014.015-.006.001-.012.014h-.005l-.001.002.003.003H7.2l.002.008-.003.006-.012-.004-.005.002v.003l-.008.006-.006-.003H7.16l-.017.012-.003.007-.008-.003-.008.006-.033.004-.017.008-.012.01v.007h-.004l-.006.005.001.004H7.05l-.003-.003-.008.003-.018.013-.002.004.002.002-.01.005-.003.008H7l-.005.003H6.99l-.005.004v.003l-.004-.001-.012.011-.021.013-.015.017v.004l-.008.006-.002.01h-.002l-.002.005h-.008l-.007.008-.002.008-.011.01-.001.006-.005.004-.01.018-.016.006-.007.008-.008.001-.006.007-.002.008h-.007v.006l-.004.003H6.82v-.005l-.003-.002-.008.006-.007-.004-.01.001-.016.01-.026.006-.019-.011-.016-.015-.002-.024-.023-.002-.023.01-.021.025-.006.022v.004l.01.008.015.004v.005l-.01.008-.012.018-.002.008-.009.013v.01l-.03.034h-.016l-.01.006-.008.009-.001.01-.005.006-.016.001-.007.003v.003l-.003-.001-.005.002-.003.007-.004-.001-.007.003-.008.006v.004l-.009.003-.007.006-.002.005.002.002-.005.001v.008l-.003-.002-.01.003-.001.008-.003-.003-.005.002-.005.007v.006l-.005.002-.003.005v.005l-.004.003-.004.013H6.44l-.006.006-.012.02-.004.022-.006.007.001.004-.007.001v.004l-.005.002-.007.01-.006.004-.003.007-.004-.003-.002.002-.005-.002-.028.011-.01-.001-.013-.007-.017.008-.035.037-.014.024v.007l-.011.022v.007l-.02.021-.006.002-.01-.005-.013.002-.024-.01-.006-.006-.002-.01.01-.037.014-.018.016-.005.019-.022.001-.006-.014-.021v-.009l.002-.004-.001-.01.01-.022.002.004v.008l.004.02.011.015.01.003.02-.02.006-.017-.002-.008.002-.011-.016-.012-.003-.004.002-.003.013-.002.007.004.005-.002.001.005.008-.001-.001.006.008.003.001.006h.013l.023-.013.02-.026.009-.004.005-.006.01-.038v-.013l-.003-.01-.004-.003-.013.001-.005-.005h-.02l-.003-.003v-.003l-.006-.002-.008-.02-.001-.011.005-.008.014-.006h.005l.004.005h.006l.003.005h.007l.015.019.01-.001.018-.007.006-.006.003-.018.007-.015v-.013l.006-.007.004-.001.003-.004h.006l.002-.005.005.002.013-.008.005.001.03-.019.024-.025.024-.031.01-.009.004.001.002-.005h.014l.004-.004-.004-.003h.008l-.002-.01.004-.002-.004-.004.001-.006-.003-.005.004-.001-.001-.004.005-.004-.002-.006.003-.02.006-.005-.001-.016-.004-.009-.02-.01v-.002l.007-.001v-.004l.02.011.009-.003.009.003.004.005-.002.005.01.01.023.002.007.005.01-.002.025-.015.004-.006.002-.004-.002-.004.003-.012-.005-.008v-.008l.006-.003.003-.006v-.015l.014-.007.004-.016.01-.003.01.002.006-.011.016-.001.005-.005.008-.003h.004l.007.009h.003l.006-.003.01-.012.002-.005-.003-.004.008-.012v-.008l.003-.002-.012-.005.003-.01-.002-.007.003-.012-.007-.01v-.006l-.002-.003v-.01l-.004-.015.002-.007-.004-.01.015-.028v-.004l.02-.027.014-.007.01.006.005.007.01.004-.003.006.002.015.007.007-.004.007.01.026.012.014-.006.005.008.019-.002.007.003.01.007.003-.002.007.006-.001.002.008.011.006.018.005.025.002.066-.007.05-.012.026-.01.002-.003v-.005l.005-.004v-.005l.02-.01.006-.001.001-.003.008-.004v-.002l.007.002-.001-.008.005-.008h.003l.01-.006.002-.006h.007l-.004-.008.005-.008.005.002.005-.006.002-.006-.006-.01.01-.02h.007l.009-.009.005-.013.006-.003h.005v-.003l.006.001.001-.006h.005l.001-.007.006-.004.003-.012.004-.005.018-.002.005-.006.009-.002.006-.007v-.014l.01-.013.01.002.024-.005.023-.007.004-.007.002.003.002-.001.002.002h.013l.001-.004.03.008.005-.002.001.006.01.003.012.009.01.016v.025l-.01.01-.026.012-.004.016.001.014h.008l.001.007h.006l.01.014m-1.703.79.004.002-.003.005.004.003h.008l.004.01.02.01.01.025.005.003h.003l.005.007h.012l-.002.003.003.005.025.007.009.008.038-.004.037.003.023-.004.032-.011.004-.004.001-.005.018-.01-.007.006-.01.02-.005.018-.007.011v.013l-.006.005h-.004v.006l-.01.001-.003.004.001.002-.003.001v.004h-.007l.002-.002-.02-.018h-.016l-.027.016-.013.017.001.007-.003.004.004.004-.002.004-.004-.003-.008.002-.002.008-.006.002-.004.005v.004h-.006l-.003.005-.005.002-.006.012-.04.003-.007-.001-.016.004-.018-.002-.015.006-.01-.002-.01.003-.03.029-.01.026.004.005-.007.004.003.002-.002.004-.008-.002-.004.004.001.005h-.007l-.001.004-.003-.003-.006.004-.002-.003-.002.003-.005-.002-.009.01-.001.002.002.002-.004.002v.002l-.006-.004-.003.004-.005-.002-.015.016-.01.012-.004.011v.006l.005.003-.001.004-.007-.001-.003.007-.006.001.001.007-.01.013-.001.027.002.005.007.005-.017.001.002-.008-.007-.002-.009.002-.007.006-.006.012-.003.014-.004.001v.005l-.004.006-.001.027-.005.005v.008l-.01.001-.032.019h-.017l-.009.004-.007-.004-.007.001-.01.007-.008.016-.002-.002-.004.002-.006.013-.004-.003-.005.004-.009.022-.004.04.002.022-.008.043-.003.044-.004.014-.006.003-.002-.017.001-.016.003-.01.002-.015.002-.004v.018h.001v-.004l.005-.003-.004-.004h.002l.002-.01-.004-.004-.009-.002-.02-.001-.037.008-.008.004h.004v.002l.003-.003v.004h-.006l-.005-.01-.004-.008-.002-.012.005-.014v-.01l-.01-.034-.007-.008.003-.01.002-.004.023-.008.005-.018.014-.022.037-.02.001-.009h.004l.008-.004.004-.006.011-.002.007-.005.004-.015.003-.004.018-.013.008-.002.009-.013.014-.007.003-.005-.004-.008h.006l.008-.005.014-.005.013-.01.005-.01-.004-.026.001-.012.006-.003.003-.008.016-.02.003-.009.018-.012.013-.016.012-.018.003-.015.016-.025.027-.023.011-.005.005-.01.008-.005.014-.02.007-.016.006-.027-.002-.013h.004l.006-.006.003-.008.015-.017.02-.05.03-.03.01-.003.002.002.003-.004.003.003.005-.006m2.792-1.54.001-.002.005.002-.008.001.002-.002m.144-.19-.01-.007-.006.004-.013-.012v-.01h.003V9l.009-.001.004-.009h.005l.001.004.006.003.002.011.01.017-.011.003m.053-.091.006.008-.01-.007-.007.007.005.005-.002.008.004.006h-.01l-.003.008-.01.008-.017-.003-.001-.005-.004-.001-.001-.005.007-.009.008-.015.017-.008.018.003m-.106-.146-.004-.002-.017-.017.002-.009.006-.007.012.004.006.007v.012l-.005.012m-.275.444.004-.007v.007l.007.003.01-.014.003.004h.012v-.003l.006.003h.012l.003-.003.008.004h.006l.004.006.013.004.002.009.006.001.006-.005h.01l.01-.006.002.001.002-.002.007.004.017-.006.008-.009.008-.003.002.002-.011.01-.004.001-.005.008H8.48l-.003.005-.014.005-.004.008h-.005l-.012.01H8.44l-.006.013-.015.01-.009.008v.004l-.015.004-.001.004-.004-.002-.002.004h-.003l-.003.007-.015.015-.016.011-.013.017v.009l-.013.002-.016.018-.01.006-.015.015-.02.027-.003.019-.005.005v.015l.011.004-.01.004-.006-.001.003.004v.003l-.023.01v.004l.006.006-.012.016-.015.004-.016.013-.002.008-.01.001-.001.003-.007.004v.005l-.004.002v.004l-.004-.003-.005.004-.003.011H8.15l-.004.005-.008-.003-.01.002v.003l-.013-.006-.003.004-.008.002L8.1 9.6h-.004l-.01.01v.005l.005.006-.02.004-.01.006-.003.01-.006.001-.003.007-.007.004v.005H8.04l-.002.006h-.003l-.005.005-.01.003-.002.007-.006.002-.01.013-.006.013-.017.012v.007h-.004l-.004.007h-.003v.004l-.012.005-.004.012-.015.011v.005l-.003.003-.006-.002-.003.007-.014.006h-.004l-.011.007-.007-.002-.01.002-.004.007.003.005h-.02l-.002.005-.007.004v.007l-.004-.004h-.006l-.002-.003-.005.003-.001-.003-.003.002-.003-.002-.011.002-.011-.006-.02.009-.002-.005-.007.002-.001.004-.003-.005h-.004l.003-.005.007-.002-.003-.005.014-.002.008-.013.01-.005.003-.01-.003-.005.005-.003-.002-.008.01-.014-.005-.01.001-.002.006.002.007-.006.012-.004.002-.006.01-.007.02-.035.017-.043h.006l.007-.005.01-.025.006.002.003-.003.004-.008-.003-.007h.003l.009-.007v-.005l.006-.006.008.002.002-.004.003.004.012-.003.017.007.021-.008.014-.01.003-.007.02-.016.01-.012.003-.007v-.011l.005-.015.01-.007.002-.011.007-.009.003-.01.005-.004-.002-.002.01-.001.015-.02.024-.01.005-.006.006-.021.004-.007.026-.02.005-.008.01-.005.024.005h.003l-.001-.004.002-.002.004.006h.013l.007-.003.004-.008.008.006.003-.004-.002-.005.01.001.004-.007-.003-.007.003-.02-.01-.018.007-.001.002-.005.002.001.011-.01.008-.012h.013l.006-.005.009-.003.003.004.011-.003.003-.005.006-.003.002-.01m-5.706-.02-.006.002-.008.01-.006-.001-.002.002-.003-.004.004-.003-.005-.016.006-.006-.004-.024.002-.003.001.005h.006l.004-.006.002.006.005.002-.002.012.004.004.003-.002v.006l.006.008-.004.008h-.003m8.557-2.969-.003.002.002.005-.003.003.003.004.005-.002-.003.01.004.002-.006.001-.002.006.009.004v.01l.008.004-.009.003.004.004-.003.011.004.008h-.005l-.003.005.002.003-.005.002.002.004-.004.004.002.006-.002.004-.01.006h-.005l-.006.008-.01-.006-.008.007-.01.001v.003h-.004l-.003.006h-.005l.002.006-.008.001v.004l-.003-.001v.002l-.002-.004-.01-.007H11.1l-.007.004-.011-.008-.02-.006-.004-.01h-.002l.003-.002V6.33l-.005-.017.004-.005v-.009l-.004-.006-.001-.007.013-.005.005-.013.001-.017.008-.015-.001-.004.005-.001.007-.007.02-.031.004-.027.014-.022v-.004l.007-.007-.002-.005.003-.01.013-.02v-.016l.003-.01.006-.009.01-.002.01-.008.001-.01.004-.002-.003-.003.002-.004-.001-.012.016-.003.009.004.003.005-.002.007.01.002.003.006.025.001-.007.006-.003.01v.022l-.005.008-.001.006v.016l.001.004-.003.004-.014.003-.019.021-.005.014v.01h-.004v.004h-.003l-.003.007-.003.024.002.027.003.014.008.002m-.277-.363.002-.013.005-.006v-.01l.022-.013.017.002.01.005.01.023-.013.015-.005.017-.007.005v.013l-.006.008-.017-.006-.02-.019.006-.007-.004-.014m1.16-.877L12.07 5 12.06 5l-.004-.005-.008-.001-.005-.008-.002-.017-.003-.005.013-.011-.002-.011.008-.02-.003-.019.012-.004.012.003.011-.004.04-.033.033-.035.02-.008.021-.004.018-.01h.005l.007-.007.003.021.007.01h.005l-.006.004v.01l.003.002-.005.005.005.02v.02l.002.008.005.005-.003.001-.009.019-.005.003-.004.016.002.003-.004-.001-.007.007-.002.01-.006.004v.005l.005.002h-.007v.006l-.01.017-.005.001-.005.012h-.003l-.005.004v.007l.005.012-.006.003-.001.003-.007-.007-.004.002-.001.004-.011-.004h-.005l-.002.005-.008-.003-.005.007-.011-.007h-.011l-.004-.005-.005.001-.001.003H12.1l-.01-.016-.018-.014m-.355-.18.008-.003-.003.005h-.003l-.003.002v.012l.004.01-.009.012-.008-.002-.01.005-.015.001-.01-.002h-.014l-.013-.004-.007.003-.008-.003-.004-.009-.008-.008-.014-.008.002-.007-.014-.028v-.008l-.005-.006v-.002l.005.002.004-.005-.001-.007.005-.008-.002-.01.004-.003.007.003.026-.01.007.005.015-.001.005.003h.007l.02.01.008-.003.014.006.004.004-.001.01.003.015.003.004.001.01h-.002l-.003.005.005.01m-.177.502h.005l.003-.006h.006v-.005l.004.002.022-.009.008.005.034-.011.02.001.012-.01-.001-.007h.004v-.004h.004v-.004l.01.005.005.011.004.004.017-.005.003-.005.002.002h.003l.008-.012.01-.007.013-.015.015-.02.01-.006.006-.014.006-.003.01-.02-.002-.008.005-.006.004-.012v-.006l-.005-.01.017-.01v-.007l.01-.008.008-.012.003-.01-.003-.007.013-.047.002-.012-.002-.008.004-.013.012-.013.005-.003.015-.027.012-.014.009-.004.003-.006.013-.01.008-.01.033-.028h.01l.013.011h.012l.017.009h.006l.004-.007.002.002.002.007.006-.004v.007h.006l-.002.007-.004.003.004.009-.004.02-.007.006-.004.01.002.007.004.002.003-.002.002.006-.008.008-.006.014.003.004v.007l.003.01.01.007.002.017.01.005-.002.012-.008.011-.004.025.002.009v.011l.004.006v.009l.008.011-.003-.001-.004.006h-.004l-.01.015h-.005l-.009-.007h-.004l-.021.01-.01.005-.006.01-.007.006-.003.005.002.006-.01.017.002.014-.001.013.003.005-.004.01-.007.007-.013.005-.024.055-.005.002-.003.009-.008.003.002.006-.006.013.002.003-.008.005-.013.035-.006.003-.016-.001-.022.013-.011.018v.004l-.005.006-.002.008.003.004-.005-.002-.012.009-.009.002-.012-.01-.012.004-.013-.002-.002.003-.005-.001-.003.004h-.008l-.004.006h-.006l-.007-.008-.01.003-.004-.002-.013.006-.003.007h-.006V5.5l-.012.005-.006.01-.007-.001-.013.006-.025.024-.013.02-.001.009-.005.004-.012.026-.002.023-.004.006.002.013-.008.001-.004.01-.01.006-.002-.005.004-.007-.003-.004.004-.006-.002-.009-.007-.008-.022-.015-.012-.005h-.013l-.029.005h-.014l-.007.006-.004-.003v-.008l-.004-.004-.003-.012.002-.006.012-.014.002-.012.015-.042v-.008l-.004-.026.005-.022-.004-.012-.024-.02-.008-.03-.004-.004.01-.02.016-.009.002.003h.011l.015-.002.02.009.01.01.007.002.007-.003.012-.01.01-.015V5.35h-.001l.005-.008-.005-.007v-.008m-.264.152-.007-.006.002-.002-.002-.007.001-.005.009-.007h.011l.01.01h.004l.001.002-.005.004-.005.01-.02.001m-1.262 2.38-.003-.001.001-.006.007-.008v-.017l-.003-.01.003-.002v-.002l.004-.009.018-.03.019-.005.003-.004.006.007-.002.007.008.011.001.006-.004.003.003.012-.002.01-.003.004-.003.017-.005.007v.004l-.01.003v.007l-.013.006-.009-.001-.007.002-.006.011v.006l-.003-.001.001-.004-.002-.003.003-.002V7.87l-.005-.007.003-.005m.183-.542-.012-.003-.003-.007.005-.007h.012l.006.003v.01l-.008.004m.024.204-.005-.002-.003-.009.012.005-.004.006m-.016-.006v.017l.006.005-.002.005.006.003-.001.004h-.006l-.007-.005-.019.005-.006-.008-.014-.011-.009-.002-.011-.011-.005-.027.003-.012.01-.01h.013l.005.01.005.002.005-.003.003.005h.004l.008.013.004.003h.005l.006.006-.006.006.003.005m.506-.67-.006.03-.014.017-.02.01h-.005l-.013-.013-.001-.016.012-.026.008-.001.004-.006h.007l.002-.003h.002l.004.007.015-.004.012-.014v-.01l.004-.003.004-.009v-.012l-.004-.006.004-.002V6.77l.004-.002.001-.027.024-.01.022-.006h.008l.012.008h.002l.002.005.008.003.001.007-.003.003h-.002l-.003.007-.005.005-.006.025-.007.005-.011.017-.01.001-.018.014-.004.001-.005-.003-.004.002-.021.02m-.363-.183-.006.003-.01-.006-.001-.005.004-.013h.004l.005-.002.01.004-.001.016-.005.003m.699-.132-.012.017-.007.003h-.01l-.015.013-.012.002-.01-.009-.003-.008-.011-.008-.004-.033-.008-.009-.003-.018.005-.006.011-.003.002.005.005.003.017-.005.007.005.007.001.018.012.007.011.013.005.003.01v.012m-.389.144h.01v-.002h.004l-.003.009.005.016-.024.01-.019-.002-.005.003-.003-.004-.01.001-.001-.002.001-.01-.009-.006.002-.007-.003-.003.004-.01.006-.001.005.003.003-.007h.006l.004-.004.005.007.005-.002.002.004h.005l.01.007m-.98 1.5.01-.007.034.002.007.003.013.015.005.012.001.015-.005.015-.014.012h-.01l-.003.006v-.004l-.007-.004H9.7l-.019.004V8.24h-.003l.002-.002h-.002l.006-.005-.006-.006-.009-.003.003-.003V8.2l-.005-.007.003-.01.01-.01m.245-.128v-.005l-.008-.002.001.009-.006.004.001-.003-.005-.013.006-.004h.012l.002-.004.001.008-.005.015-.005-.007.006.002m.004-.022h-.003V8.02l.007-.01.01-.004v.01l-.01.002-.004.004m-.42.471-.005.026-.009.005.001.005-.01.002-.006.003-.001.003h-.01l-.006.004-.005.013-.016.018v.006l-.01.011-.007.02-.02.009-.034.027-.024.008-.017.018v.008h-.003l-.007.013-.025.03-.015.008-.005-.001-.02-.006-.01-.01-.005-.006-.003-.013-.004-.005.002-.004-.002-.003.001-.008-.012-.009.008-.006-.002-.006.006-.004.005.004.008-.005h.016l.002-.001.005.002.003-.002.004.006.014-.005.02.007.012-.006.007-.009-.002-.009.015-.019.01-.017-.002-.009.012-.02h.004l.016-.008h.005l.01-.008.001-.006.01-.006v-.004l.014-.004.001-.005.008.002.005-.006.008-.005.006-.018-.002-.005.004-.001.014-.015.004-.012.008-.005v-.006l.005-.016.008-.006.003-.005-.002-.005.007-.002.003-.013.005-.004.02-.035.008-.006.014-.001.01.005v.002l-.013.002-.016.013.001.017.003.006.008.007h.005l.003-.024h.008l.004-.004h.009l-.001-.008-.01-.01.008-.003v.006l.004.002.012.006.006-.003-.004.01.001.01-.009.007.002.008h-.004l-.003.006H9.57l-.008.01-.006.001-.018.017H9.53l-.003.006-.016.014-.006.015.002.014M4.045 4.417v-.003h.004l-.004.005v-.002m-.093-.398v-.004l.002-.002.001.002-.003.004m-.048-.014v-.012l.002-.004.005.02-.007-.004m.04-.023.002.006-.007-.004.01.008-.001.003-.001-.004-.01-.005v-.003l.006-.001m-.027-.006-.003-.004v-.004l.005.002.004.006-.002.022-.002-.004.001-.014-.003-.004m-.089-.4.01.062.01.033-.001.003h-.004l-.003.006h-.003l.002-.002-.004-.007.002-.008h-.002v-.012l-.005-.015-.004-.004.002-.057m-.01.039V3.61L3.813 3.6l.005.008v.01l-.002.001v-.004m0-.05v.006l-.001.002-.001-.008h.001m-.002-.02.002.008-.004.016.005.02-.004-.014-.003-.004-.004-.016.002-.01h.006m.124.476h-.003l-.003-.01h.007l-.001.01m.011-.006.002.004-.002.001-.003-.005h.003m0-.014.001.005h-.003l.003.008-.003-.004-.002.006-.002-.01L3.948 4M3.14 8.366l-.007-.017.002-.012-.013-.039-.013-.022-.022-.025-.005-.01.004-.02.015-.033.002-.014-.01-.023V8.14l-.007-.023.002-.005-.006-.01.002-.01-.005-.03v-.02l-.004-.014.005-.023-.003-.023.005-.02-.003-.022.011-.012.006-.019.009-.014V7.87l.004-.012.014-.02.01-.03.011-.01-.002-.006.003-.002v-.006l.006-.005.002-.01-.002-.006.006-.013.002-.036.06-.074.012-.03V7.6l-.01-.02.001-.008-.004-.017v-.032l-.006-.02.002-.024-.006-.023.005-.009-.005-.024.001-.039-.01-.024.001-.05-.005-.03-.045-.1-.072-.12-.043-.086-.005-.018-.007-.014v-.014l-.006-.018-.001-.024-.006-.008.002-.006-.005-.016.002-.013.004-.011.009-.008.008-.018.008-.004.014-.019.006.002.015-.012.017-.021-.013-.043.013-.008.005.002.001-.009.006-.002.004-.008.001-.05.006-.032.008-.012.003-.033v.002h-.001l.006-.011-.007-.03V6.49l.02-.018.004-.012v-.014l.01-.013.005-.016V6.41l-.008-.011-.004-.017.002-.011-.003-.007V6.34l.005-.028-.006-.007.003-.003-.001-.01.004-.005.007-.04.005-.006.002-.019.006-.011.012-.014v-.027l.01-.037-.002-.03.004-.023-.002-.045.002-.014.004-.009.003-.036L3.2 5.96l.003-.004v-.018l-.002-.01.003-.035-.002-.01.004-.004.003-.026-.01-.028v-.012l-.005-.025-.005-.006.001-.017.006-.012v-.01l-.004-.014v-.013l-.006-.007.003-.002v-.006l.008-.006.006-.018v-.012l-.002-.003.001-.011-.005-.01H3.19l.006-.003.01-.01.007-.016-.003-.008.002-.004-.003-.021.003-.01-.001-.054-.005-.022.002-.009-.005-.014-.003-.023.004-.004.001-.013-.004-.018.002-.004-.001-.005-.007-.007-.003-.016-.008-.012.001-.002.008.002.01-.02-.004-.025.001-.022-.004-.012-.012-.018-.003-.011-.015-.021-.013-.04-.007-.013-.004-.02-.008-.015-.003-.033.005-.02v-.025l.004-.041.006-.025.005-.039.011-.021-.003-.02.003-.01v-.025l.002-.02-.006-.024.01-.013.006-.017.004-.023-.001-.018.013-.004.03-.04.025-.05.01-.025.01-.055-.002-.077-.005-.024-.008-.018-.011-.015-.012-.01-.007-.016v-.012l-.008-.018-.004-.019.007-.005.002-.005v-.018l-.005-.012-.022-.026-.034-.058.002-.012-.01-.021.01-.01.002-.004v-.01l-.006-.016-.016-.023-.083-.078-.022-.028.011.005h.011l.007-.002.008-.01h.004-.003l-.005.001-.008-.003v-.022l-.002.006V4.04l-.004.003V4.04l-.002.012-.01.01.002.004-.005.002-.007-.002-.053-.084-.038-.03-.028-.016-.015-.018-.001-.004.008.004.008.01.02.008.003.006.016.01.02-.005.012-.008.002-.011.006-.008-.003-.011.008-.015V3.88l-.007-.015-.015-.01-.004-.015-.01-.01-.007-.012-.015-.011-.029-.006-.011-.009-.02-.008-.009-.01.017-.012.007-.017.006-.021-.002-.02.003-.025-.016-.054.001-.018-.014-.024.001-.012.004-.01-.002-.008.018-.015.009-.01.01-.032v-.01l-.007-.02-.025-.037.013-.027.004-.017-.006-.025-.014-.02-.005-.015.006-.007.003-.011v-.011l.002-.007v-.008.004l.002-.002-.001-.002v-.004l-.001-.005v-.005.004l.002.005v.006l.004-.006-.002-.021.013-.01.015-.004.01-.018.017-.02.006-.005.011-.016.003-.013.01-.015v-.007l.01-.019.001-.013.015-.028.003-.02v-.014l-.005-.006-.006-.002H2.98v.005h.006l-.007.001.02-.055-.002-.012-.012-.003.01-.02.002-.014.008-.015-.004-.01-.01-.002-.002-.004.02-.057.002-.026-.005-.023.007-.066.008-.011.012-.032-.002-.032.017-.046.005-.033-.006-.02.007-.004-.002-.011-.007-.006-.012-.021-.012-.027-.018-.029-.007-.019.001-.015-.001-.022-.017-.038-.008-.03-.001-.025.003-.026.005-.013v-.01l-.004-.008-.008-.006-.001.008-.007-.012-.004-.014v-.016l.041-.032.02-.02.005-.002H3.02l-.005.002-.012.011.008-.013.02-.011.176-.091.026-.01.035-.004.008.004-.001.003-.01-.001v-.004l-.004.007-.01-.003-.01.006.008.016.01.014-.003.018-.01.002.005.012.005.025-.006.017-.004.005.01.04.018.019.007.004.003-.002h.025l.001-.007.013-.016h.007l.027.015.02-.006.027-.026.011-.017.021-.039.013-.033.024-.035.01-.007.005-.002.02.015.009.002.003.004.004-.002.002.004.001-.003-.004-.009v-.029l-.007-.002-.008.006h-.003l-.038-.038-.01-.024-.005-.001-.01.007.002.002-.008.017.006.01v.007l-.01.008.002.002-.002.005h-.003l-.01-.017v-.01l.003-.015-.005-.013v-.026l-.01-.04.035-.018.012.008h.013l.026-.016.012-.003.007.015v.013l.02.04.007-.008.019-.003.006-.005.035-.075v-.02l-.01-.045.001-.01-.003-.004-.005-.013v-.015l-.008-.011v-.011l-.025-.007-.002-.008-.003-.002-.008.069-.005.012v.037l-.004.012-.03.021-.014.02-.008-.007-.004-.013.002-.011.04-.078.018-.043.009-.032.005-.056-.002-.034-.009-.013-.012-.01-.009-.017-.015-.014-.02-.025-.011-.016-.005-.012-.015-.011-.016-.03-.01-.014-.038-.035-.018-.033-.007-.048-.019-.039-.012-.008-.016-.026-.02-.013-.012-.014-.01-.005-.002-.006.003-.006.008-.003.016.01.01.012.017.009.02.006h.025l.02-.003.034-.012.068-.036-.007.007-.012.007.008.024h-.008l-.006.004-.007-.01h-.008l-.016.005-.001-.003h-.002v.004h.002l-.004.005.004.003-.007.03.009.016.01.006.005-.002.01-.008.003-.009-.007-.01-.008-.03h.008l.002.002.009.003.013.021.004.002.006-.003-.002-.01.01-.007-.004-.003.005-.002.005.003.001-.006-.018-.034.005-.004-.001-.002.022-.016.016-.018.004-.02-.002-.007-.007-.01v-.019l.014-.008.002-.007.011-.001.013.006v.013l.006.007-.002.014.022.031v.007l.011.03.002.016.01.023.055.075-.001.004.018.033.008.009.016.027.006.004.014.036v.02l.006.018-.008.022-.004.025-.003.005-.022.019-.002.005-.014.014-.01.024-.004.026h-.004l-.002.002.004.005.002-.004-.002.042.003.036-.003-.013-.01-.001-.007.004-.003-.002.003-.001v-.009l.005-.002-.003-.002-.008.016-.014.014.005.007.01-.005h.016l.002.003.008-.009.003.033.012.048-.01-.024-.02.015v.005l.01.035.01.003.016-.002.002.005h-.003l-.003.002-.003.02.007.004.009.013.008.004-.005.005-.003.009-.003-.004-.003.003.006.008.006.001.009-.008-.026-.071-.004-.022.01.037.028.074-.003-.004-.005.002-.01.01.004.006-.005.016.002.01.008.007.005-.008.011-.01-.008-.024.001-.004.022.06h-.004l-.039.016h.004l.009.007h.005l.003-.004.003.003.004-.004.016.002-.004.006.007.005-.003-.03.03.078-.003-.001-.004-.013-.007-.006-.003-.008-.004-.002-.015.007v.012l-.01.008-.01.001.005-.003-.002-.008-.004.007-.005-.004v.005l.004.002-.002.004.01.01.008.015.012.004h.014l.011-.005.004-.012-.005-.013h.006l.027.077-.007-.006-.008.002v.003l.006.002.007-.003.002.002.015.038-.01-.02L3.8 2.12l-.018.006-.012.015.002.006h-.004l.001.004.007.011.012.005.014-.005.008-.005.003-.007h.003l.012.026-.002.002-.005-.003-.002-.006-.01.001-.01.016.005.006V2.2l-.015.006-.003.006.006.007.006-.001v.003l.008.003.007-.005.005-.008.007-.001.002.002.007-.007-.002-.007-.001.004.001-.004-.002-.003-.01.003-.002-.004-.008.002.005-.008.013-.009.04.128.02.081.013.073.033.25.002.035.006.038v.007l-.003.004-.002-.019-.006-.024.001-.012-.003-.011.002-.01-.005-.021v-.026l-.005-.008-.002-.023-.005-.01v-.034l-.006-.007v-.017l-.013-.024-.001-.006.007-.021h-.003l-.004.013-.004-.018.005-.046-.006-.012-.014-.003-.003-.01-.017-.015-.003-.008-.022-.008-.005-.01-.006-.003.006-.009-.001-.004h-.005v-.004l.007-.014.001-.01-.004-.019-.004-.008-.004-.003.005-.007.012-.005.017.004.001.003h.006v.002h-.005l.003.002.005-.004-.003-.007-.005.003-.002-.004-.001.003-.006-.002v-.017l.006-.026-.003-.003.006-.004-.012-.002-.001-.004.004-.004-.005.003-.003-.002.01-.006.004-.01-.005.004-.001.005-.006.001-.004-.002.002-.003-.006-.002.004-.01-.013.003-.004-.002-.03.025.004.02-.009.018-.002.023-.018.009v.003l-.003.001-.003.014.008.008.012.004-.006.019.003.004v.01l.005.007.007-.001.001-.007V2.4l.002-.018-.003-.005.004.003v.017l-.006.026.004.008.004.024.008.009-.006.008-.005.026.004.009.01.008v.017l.013.024-.012.012-.004.009H3.8l-.004.008.004.001.001.005h.005l.002.002-.003.004.01.005-.003.004-.004-.002h-.004l.004.002-.003.002h.003v.004l.031.016-.004.006.003.017.013.019-.005.002-.01.013.006.005v.006l.003-.002.013.012.003.016.002.002.005-.004.008.006-.001.002-.005-.002-.002.004h.002l-.004.007v.009l.004.002.004-.004.003.008-.003-.002h-.002l.01.011v.007l.001-.002.002.003-.004.012.01.007V2.78l.004.002-.003-.006.002-.01.002.009.006-.011-.005-.001.002-.004-.003-.004v-.008l.01-.018.006-.007v-.006l-.01-.023.007-.018.005-.005-.003-.003-.003.006v-.006h.007v.003l.004.006v.031l.005.013-.003.015.004.007v.023l.005.015-.004.02.005.015-.003.065.004.042.002-.01-.002-.01v-.048l.003-.008-.001-.019.002-.01-.004-.015.003-.004h-.003v-.005l.012.01-.005.012-.002.017-.004.225-.006.05-.017.093-.02.054-.022.035-.019.04-.005.004v-.007l.006-.012.005-.021-.002-.007-.006-.006.01-.015.003-.02.013-.012.004-.017.004-.006.017-.009.009-.01v-.015l-.002-.011h-.013l-.012.008-.002-.008.01-.013.002-.009v-.008l.005-.008.007-.021.01-.008-.003-.006-.007-.004.004-.01.004-.012.01-.008.003-.006-.001-.01-.005-.002h-.004l-.011.01.007-.024.005-.008-.003-.007.005-.01v-.005l-.006.01-.003.016-.003.01-.003.002v.005l-.004.001-.004.005-.013-.003-.004.001.01.013.007-.003.005.003-.005.002-.003.008.001.005-.008.002.001-.004-.003-.001-.004.003.007.006-.002.002.004.006-.01.002v.004l-.007.002.008.003.001-.001.002.015h-.004l-.002.008-.007.002.005.004-.004.002.01.003.005-.011.003.008-.004.003-.001.013-.004.004-.014.007h-.002l.003-.002v-.004l-.004.004-.004-.003.004.013h-.012v-.003l-.003.004-.004-.005h-.002l.003.003-.004.003h.01l.002.006-.008.005-.006-.003-.001.004h.008l.002.008-.006.001h.007v-.001l.006.004.002.008-.007.014-.008.01h-.012l.005.003.006-.002.002.002-.006.006-.003-.002v.008l-.003.01-.004.002v.012l-.003.013-.003.007-.01.01v.008l.003.002-.002.017-.006.011h.003l-.001.005.002.003-.005.004.012.004-.006.008v.011h.007l.001.007.006-.005v.005l.001-.005.003.002v-.004l.004-.002.004-.025-.002-.005.009-.023v-.018l.003.004-.005.036.009.013-.008.01-.005.015-.01.058-.004.085.001.034.004.022-.002.003-.001-.016-.003-.002v-.032l-.004-.017-.003-.004.003-.006v-.018l.007-.044-.002-.016.005-.013V3.391l-.007.022.001.011-.004.01-.002.014.002.004-.003.004.002.007-.005.008.003.007-.003.015-.003.001-.005-.005v-.006l-.006-.01-.004.008h-.004l-.007.002h.01l.003.008.001.04.002-.004.001.002-.003.004.003.003-.003.01-.003-.003h-.004l.009.015-.003.002-.003.008.005.002v-.008l.007.007.01.029-.004.003h.004l.004.01-.002.002-.003-.007-.008.002.002-.004-.002.002v-.002.007l-.012-.006-.003.003.005.003.002-.001.001.002h.004l.005.005v.01l.003.005.001-.003.003.001.003.007.005.005.001.008-.002-.002v.003l-.002.003.007.01v.009l.004.01-.01.014-.003-.007v-.005l-.007-.004v.011l.007.012-.016.015.001.009-.003.001-.002.001.006.001.01.01.019.01-.006.016.003.017-.003.003h.008l.005.007.012-.01v.004l.006.008-.003.002v.001l.006-.002v-.003l.003.003.002-.002.005.008-.002.002h.002l-.003.006.007-.004.005-.016-.004-.006v-.01l-.012-.04-.008-.011-.004-.022-.006-.012v-.004h.003l.004.007.04.127.036.096-.004.012.004.005.014.039-.002.002h-.006l.001-.013-.004-.01-.013-.002-.003.002-.001-.002-.006.014-.013.016v.033h-.003l-.003-.003.003.031-.002.004h-.003v.007h-.005l-.005-.003-.004.005.007.006-.001.004.009.023-.018.033-.004.035.008.005.003-.003.002.009.01-.004-.005-.002.006-.002v-.004l.002-.002.003.003-.001.008.004.004.006-.01v-.004h.002l.01-.005-.002.005h.007l.01.012-.005.004.006.004.005-.001-.003-.007.01-.003.006-.008.001.002h.004l.003-.006-.005.002.005-.008v-.016l-.01-.038.003-.023h-.004v.004l-.001-.017.001-.01.007-.01.006-.001.004.005h-.002v.018l.013.013.005.033.006.02.003.001-.003.001.002.02.01.029.004.02v-.003.011l.004.007.004.02.001.003h.002l-.003-.003V4.21l-.008-.03L4 4.16l-.01-.02.003-.02-.007-.023-.005-.003.003-.005H3.98l.001-.007-.005-.008.002-.005-.003-.012-.004-.002v-.014l-.006-.011h-.003v.002L3.96 4.03l.003-.017-.008-.012-.004-.02-.01-.03-.015-.023.002-.004h.005l.005.006.016.046.054.191.02.116.008.06-.001.002-.001-.012-.012-.024-.01-.01-.014.006-.008.01H3.97l-.002.006.007.01-.005.006.005.006.01-.005.014.003v.003l-.005.006.004.015-.006-.002.004.003-.006.006.005.002.008-.01.019.007.01.012-.003.007.007.005-.01.003.003.007.003.002.008-.006.002.011-.004-.004-.004.002-.003.011.005.003.004-.002.002.008h.007l-.005.01-.008-.004-.004.002.002.008-.007-.002-.001.012h.005v-.003l.004.003h.006l.01-.01h.009l.003-.002H4.06v-.011l-.01-.026-.004-.004v-.011l-.014-.008.01-.006-.008-.03.002-.002.028.097.047.213.034.19.003.01.008.01-.004.013.003.014-.002.012.003.024.018.084-.002.01-.005.005.007.04-.002.014.016.09.023.099.021.079.026.077.029.07.034.064.03.065.01.017-.006.03.007.035.044.126.033.067.004.011-.002.018-.003.002v.01l-.003.012.003.016-.002.009.012.058.036.068.028.036.002.008-.009.006-.007.013.006.035-.003.013.017.052-.003.002v.007l.008.035.01.027.002.03.004.024.033.07.017.06.023.051-.006.009.004.013.021.025.045.034.011.006.008.011.012.007.009.01.014.009.005.007.006.002.01.014.028.02.01.018.009.006v.003l-.008.009-.004.021.008.028.006.012.006.006-.002.007-.004-.003-.004.002-.007.01-.002.036.007.021.016.03.012.016.01.006.002.003-.005.003-.007-.01-.014-.002-.01.003-.013.01.004-.032-.004-.017-.01-.013.004-.03-.004-.037-.027-.05-.004-.012-.01-.008-.004-.015-.012-.025-.012-.012-.013-.022-.036-.036-.009-.02-.025-.025-.019-.012-.027-.01-.01-.025-.015-.01-.015-.016-.008-.013-.002-.01-.007-.008-.007-.02-.008-.009-.014-.008-.016-.017-.003-.01-.011-.014v-.004l-.003-.008-.017-.013-.052-.03-.043-.014-.084-.022-.14-.023-.065.001-.082.012-.055.015-.068.03.006-.003.008-.011h.009l.002-.006-.002-.004-.002.006-.007.001-.004.003.003-.004h-.002l-.006.013-.014.003v.007l.004-.006h.003l-.001.005-.055.038-.022.02-.03.037-.03.044.001.01-.013.035-.003.029.006.036.011.011-.002.003.003-.002v-.001l.005.01v.027l.004.012-.004.014v.018l-.073.135-.037.089-.01.042-.027.073-.018.072-.003.027-.027.078-.006.023v.015l-.009.009-.007.028-.005.004.001.01-.009.032-.004.006-.002.019-.01.01.005.009-.003.012-.003.01H3.47l.002.007-.005.018-.01.019-.003.023-.006.014-.001.012v.02l.004.003v.018h-.003l-.009.008.001.006-.004.013.002.037-.001.01-.004.007.001.004-.004.009-.005.02.003.026.008.004.002.006-.007.013.002.046.014.071.022.07.025.06.03.053.028.042.028.035.027.021.03.01.023.028.018.006.008.01.008.005.004.017.02.048.004.002.024.03-.004.001-.003.004.005.011v.015l.007.01.002.036.008.021-.002.005v.024l-.013.017-.002.006.002.012.02.041.003.018.007.012.003.016.01.01-.001.013.01.018-.006.014.002.012.01.009.002.008.01.01.015.004.006.017.005.006.042.031.039.018.04.006.032-.007.007-.005.004-.012L4 8.672l.001-.012.004-.004.015.005.015.02v.02l.006.02-.001.015.009.032.002.003h.003l-.002.02-.004.003-.002.005.002.028.003.013.01.02-.007.015v.011l.005.018.01.018-.003.003.003.018-.002.003v.013l.008.011h-.002l-.002.006.005.008-.002.01.01.017-.001.008.009.017-.003.013.003.01.015.022.006.002.005-.005.004.015-.003.003h-.005l-.008.01-.004-.002-.004.002-.005.009-.004.002-.003.008v.016l.003.018.003.003-.003.001-.004-.004-.01.001-.012.011-.005.015-.004.027-.003.003.002.01-.002.007-.01.012-.007.002-.01.017-.003.044.002.022.004.01-.004.01-.021.03v.013l-.007.02-.003-.003-.003-.014-.006-.054.007-.01.002-.009-.002-.032.008-.016.002-.02L4 9.238l-.012-.047-.02-.052-.001-.014-.017-.036v-.01l-.006-.013.001-.011-.003-.014.007-.014-.001-.02-.014-.023-.011-.014.003-.004-.032-.038-.023-.022-.03-.022-.018-.008H3.81l-.002.006-.006.005-.016-.002-.01.003-.035-.014-.024.003-.023-.011-.03-.008-.033.014h-.006l-.004.003-.018.005-.013-.003-.003-.011-.006-.001h.006l.003-.004-.004-.005-.005.001.003-.002-.004-.007.004-.004-.008-.016.002-.009-.003-.01-.005-.005.002-.007-.004-.007-.001-.019-.004-.012.002-.004-.002-.002-.003.002.001-.002h-.003l-.006-.008H3.55l.001.002-.004-.003-.004.003.003.005-.004.001v.003l-.003-.004-.005.012-.038.002-.025.007-.018.01-.047.037-.022.029-.023.047-.036.12-.027.06-.01.032-.003.015-.022.054v.025l-.005.02.003.023-.001.01-.004.004-.001.023-.008.015v.004l-.004.005v.017l-.011.015v.008l-.008.014.002.009-.005.01.002.008-.005.019-.003.003-.002.008h-.006l-.01.008-.017.004-.014.016-.007.025.002.015-.004.006.001.014-.004.005.002.006-.003.002.004.006-.001.004-.01-.015-.01-.005-.008-.008-.001-.005-.005-.002-.008-.021-.015-.02-.003-.015-.01-.016-.018-.017-.006.003.002-.003-.001-.006-.013-.01.009-.005.002-.006v-.039l-.002-.011-.005-.002.004-.005v-.01l-.008-.029-.002-.028-.009-.044-.006-.066-.01-.037v-.013l-.01-.029-.005-.025L3 9.027v-.013l-.008-.02v-.012L2.99 8.97l-.005-.037.006-.008.002-.009-.008-.031.014-.01.012-.016v-.016l.003-.008h-.004l-.002-.008.004.004.002-.006-.002-.004.004-.025.007-.01.007-.005-.002-.007.01-.025.005-.003-.003-.013.007-.02.007-.005V8.69l.02-.042.007-.006v-.01l.007-.02.003-.002h.007l.007-.032v-.01h.004v-.023l.006-.007.007-.03.004-.004-.004-.008v-.01l.009-.018.001.003-.001.002.004-.003-.004-.003.003-.007v.002h.002l-.002-.001.002-.007h-.001v.004h-.001l.001-.008.006-.006v-.02l.003-.006-.003-.007v-.005h-.002l-.001-.004.004-.014-.003-.013.002-.01m.736-5.637.001.004-.002.004v-.008m.008-.214-.002-.002-.002-.003.005-.008-.003.008.002.005m-.59-.439H3.29l-.003-.004.003-.037.002-.006.012-.007.023-.01.024-.014.014-.004h.012l.011.013.014.01-.008.001-.013-.006-.008.002.001-.002-.005-.005v.002l.003.002v.004l.005-.002-.006.005h.003l-.003.002-.015.006h-.012l-.008.008h-.02v.005l-.022.004v.004l.002.005-.004.005h.002l-.002.003.001.004-.003.002.005-.001v-.008l.004.003.001.006-.008.006v.004l-.002-.001.002.001m-.38.14V2.21l.005-.009.021-.012.025-.008.022-.003.01.001.003.005-.001.003-.025.003-.03.011-.02.012v.009l-.01-.008M3.81 3.52l.002.006.001-.001-.002.003-.01-.005.002-.002.003.002-.003-.008.002-.002.005.002v.005m.029-.294.002-.003.003.002v.005l-.005-.004m.066-.128-.006.003-.002-.002.005-.003.003.002m-.016-.005.008-.032.016-.01-.01.022-.008.013.001.005-.007.002m-.032.132.002-.018.007-.013.009-.004.002-.004v.003l.002-.005.009.002.002-.003.002.003v-.003L3.89 3.18h.007l-.002.01-.02.018-.02.037.003-.021"/><path d="m3.816 3.637.002.005v.002-.003l-.002-.004"/></g></g></svg>